<?xml version="1.0" encoding="UTF-8"?>
<svg width="34px" height="36px" viewBox="0 0 34 36" version="1.1" xmlns="http://www.w3.org/2000/svg" xmlns:xlink="http://www.w3.org/1999/xlink">
    <!-- Generator: Sketch 45.1 (43504) - http://www.bohemiancoding.com/sketch -->
    <title>Page 1</title>
    <desc>Created with Sketch.</desc>
    <defs></defs>
    <g id="Page-3" stroke="none" stroke-width="1" fill="none" fill-rule="evenodd">
        <g id="01desktop_04quienes01" transform="translate(-378.000000, -693.000000)" fill="#FFFFFF">
            <g id="paño-ppal" transform="translate(16.000000, 15.000000)">
                <g id="entradila" transform="translate(238.000000, 378.000000)">
                    <path d="M124.432479,335.052184 L131.712813,335.052184 L131.712813,311.998442 L124.432479,311.998442 L124.432479,335.052184 Z M128.121202,300.885518 C125.629738,300.885518 124,302.605815 124,304.867944 C124,307.080664 125.582468,308.853163 128.024339,308.853163 L128.072936,308.853163 C130.612665,308.853163 132.19223,307.081013 132.19223,304.867944 C132.144297,302.605815 130.612665,300.885518 128.121202,300.885518 L128.121202,300.885518 Z M157.968254,321.83295 L157.968254,335.052184 L150.687589,335.052184 L150.687589,322.718196 C150.687589,319.61988 149.634711,317.505452 146.999447,317.505452 C144.987734,317.505452 143.790475,318.930435 143.263704,320.309064 C143.071638,320.801837 143.022378,321.487529 143.022378,322.177324 L143.022378,335.052184 L135.739474,335.052184 C135.739474,335.052184 135.837248,314.162715 135.739474,311.998442 L143.021383,311.998442 L143.021383,315.266107 C143.006787,315.290724 142.987713,315.316999 142.973781,315.340831 L143.021383,315.340831 L143.021383,315.266107 C143.989009,313.697614 145.716937,311.456959 149.584538,311.456959 C154.375979,311.456959 157.968254,314.751947 157.968254,321.83295 L157.968254,321.83295 Z" id="Page-1"></path>
                </g>
            </g>
        </g>
    </g>
</svg>