<?xml version="1.0" encoding="UTF-8"?>
<svg width="61px" height="65px" viewBox="0 0 61 65" version="1.1" xmlns="http://www.w3.org/2000/svg" xmlns:xlink="http://www.w3.org/1999/xlink">
    <!-- Generator: Sketch 47.1 (45422) - http://www.bohemiancoding.com/sketch -->
    <title>LOGO</title>
    <desc>Created with Sketch.</desc>
    <defs></defs>
    <g id="Escritorio" stroke="none" stroke-width="1" fill="none" fill-rule="evenodd">
        <g id="Events" transform="translate(-40.000000, -40.000000)" fill="#111111">
            <g id="LOGO" transform="translate(40.000000, 40.000000)">
                <g>
                    <polygon id="Fill-1" points="2.79927348 0.000143645761 2.79927348 0.00122099383 2.79927348 5.84080663 2.79927348 29.2005856 8.63921823 29.2005856 8.63921823 29.1998674 27.2306547 29.1998674 27.2306547 23.3599227 8.63921823 23.3599227 8.63921823 17.520337 24.6694392 17.520337 24.6694392 11.6807514 8.63921823 11.6807514 8.63921823 5.84080663 27.2295773 5.84080663 27.2295773 0.000143645761"></polygon>
                    <polygon id="Fill-2" points="36.312663 0.000143645761 36.312663 58.4003094 36.312663 64.2402541 42.1522486 64.2402541 60.7440442 64.2402541 60.7440442 58.4003094 42.1522486 58.4003094 42.1522486 0.000143645761"></polygon>
                    <path d="M15.015,40.4783729 C9.96331492,40.4783729 5.85323204,44.5888149 5.85323204,49.6408591 C5.85323204,54.6921851 9.96331492,58.802268 15.015,58.802268 C20.0666851,58.802268 24.176768,54.6921851 24.176768,49.6408591 C24.176768,44.5888149 20.0666851,40.4783729 15.015,40.4783729 M15.015,64.6551409 C6.73558011,64.6551409 0,57.9199199 0,49.6408591 C0,41.3614392 6.73558011,34.6251409 15.015,34.6251409 C23.2944199,34.6251409 30.03,41.3614392 30.03,49.6408591 C30.03,57.9199199 23.2944199,64.6551409 15.015,64.6551409" id="Fill-3"></path>
                </g>
            </g>
        </g>
    </g>
</svg>