<?xml version="1.0" encoding="UTF-8"?>
<svg width="34px" height="36px" viewBox="0 0 34 36" version="1.1" xmlns="http://www.w3.org/2000/svg" xmlns:xlink="http://www.w3.org/1999/xlink">
    <!-- Generator: Sketch 44.1 (41455) - http://www.bohemiancoding.com/sketch -->
    <title>Page 1</title>
    <desc>Created with Sketch.</desc>
    <defs></defs>
    <g id="Page-3" stroke="none" stroke-width="1" fill="none" fill-rule="evenodd">
        <g id="01desktop_04quienes02" transform="translate(-256.000000, -785.000000)" fill="#FFFFFF">
            <g id="RRSS" transform="translate(256.000000, 785.000000)">
                <path d="M0.432479442,35.0521844 L7.71281266,35.0521844 L7.71281266,11.9984421 L0.432479442,11.9984421 L0.432479442,35.0521844 Z M4.12120151,0.88551773 C1.62973845,0.88551773 0,2.60581467 0,4.86794359 C0,7.08066429 1.5824684,8.85316285 4.02433938,8.85316285 L4.07293631,8.85316285 C6.61266457,8.85316285 8.19223043,7.08101346 8.19223043,4.86794359 C8.14429695,2.60581467 6.61266457,0.88551773 4.12120151,0.88551773 L4.12120151,0.88551773 Z M33.968254,21.8329503 L33.968254,35.0521844 L26.687589,35.0521844 L26.687589,22.7181957 C26.687589,19.6198804 25.634711,17.5054525 22.9994475,17.5054525 C20.9877339,17.5054525 19.7904749,18.9304348 19.2637041,20.3090642 C19.0716385,20.8018371 19.0223781,21.4875291 19.0223781,22.177324 L19.0223781,35.0521844 L11.7394741,35.0521844 C11.7394741,35.0521844 11.8372484,14.1627148 11.7394741,11.9984421 L19.021383,11.9984421 L19.021383,15.2661072 C19.0067873,15.290724 18.9877134,15.3169994 18.9737812,15.3408306 L19.021383,15.3408306 L19.021383,15.2661072 C19.9890091,13.697614 21.7169365,11.4569593 25.5845384,11.4569593 C30.3759794,11.4569593 33.968254,14.7519473 33.968254,21.8329503 L33.968254,21.8329503 Z" id="Page-1"></path>
            </g>
        </g>
    </g>
</svg>