<?xml version="1.0" encoding="UTF-8"?>
<svg width="34px" height="28px" viewBox="0 0 34 28" version="1.1" xmlns="http://www.w3.org/2000/svg" xmlns:xlink="http://www.w3.org/1999/xlink">
    <!-- Generator: Sketch 44.1 (41455) - http://www.bohemiancoding.com/sketch -->
    <title>Fill 1</title>
    <desc>Created with Sketch.</desc>
    <defs></defs>
    <g id="Page-3" stroke="none" stroke-width="1" fill="none" fill-rule="evenodd">
        <g id="01desktop_04quienes02" transform="translate(-346.000000, -793.000000)" fill="#FFFFFF">
            <g id="RRSS" transform="translate(256.000000, 785.000000)">
                <path d="M123.96667,11.5302333 C122.717798,12.0872333 121.377626,12.4644833 119.969518,12.6330667 C121.407369,11.7672333 122.507775,10.3934833 123.029394,8.76198333 C121.680855,9.56373333 120.192134,10.14615 118.606065,10.4619 C117.335818,9.0989 115.528955,8.24998333 113.525077,8.24998333 C109.680616,8.24998333 106.563408,11.3854 106.563408,15.2503167 C106.563408,15.7984833 106.624882,16.33365 106.743688,16.84565 C100.958811,16.5533167 95.8292736,13.7655667 92.3961602,9.52956667 C91.7958334,10.56215 91.4544111,11.7649 91.4544111,13.04915 C91.4544111,15.4784833 92.684559,17.6220667 94.550576,18.8762333 C93.4097398,18.8378167 92.3365915,18.5220667 91.3974107,17.9973167 L91.3974107,18.0849 C91.3974107,21.4762333 93.7978063,24.3065667 96.9807146,24.9508167 C96.3975377,25.10865 95.7826294,25.1963167 95.146346,25.1963167 C94.696888,25.1963167 94.2621772,25.1514 93.8359999,25.0660667 C94.7224885,27.84965 97.2924769,29.8737333 100.337441,29.9290667 C97.9561006,31.8059833 94.9534726,32.9214833 91.6919403,32.9214833 C91.1301385,32.9214833 90.5767045,32.8874 90.0317212,32.8254833 C93.1129732,34.8157333 96.7706914,35.9759 100.702475,35.9759 C113.508259,35.9759 120.50837,25.3069 120.50837,16.0543167 L120.485089,15.1477333 C121.852684,14.16665 123.03594,12.9339 123.96667,11.5302333" id="Fill-1"></path>
            </g>
        </g>
    </g>
</svg>