<?xml version="1.0" encoding="utf-8"?>
<!-- Generator: Adobe Illustrator 21.1.0, SVG Export Plug-In . SVG Version: 6.00 Build 0)  -->
<svg version="1.1" id="Capa_1" xmlns="http://www.w3.org/2000/svg" xmlns:xlink="http://www.w3.org/1999/xlink" x="0px" y="0px"
	 viewBox="0 0 198 81.2" style="enable-background:new 0 0 198 81.2;" xml:space="preserve">
<style type="text/css">
	.st0{clip-path:url(#SVGID_2_);}
	.st1{clip-path:url(#SVGID_4_);fill:#FFFFFF;}
	.st2{clip-path:url(#SVGID_6_);}
	.st3{clip-path:url(#SVGID_8_);enable-background:new    ;}
	.st4{clip-path:url(#SVGID_10_);}
	.st5{clip-path:url(#SVGID_12_);}
	.st6{clip-path:url(#SVGID_14_);fill:#FFFFFF;}
	.st7{clip-path:url(#SVGID_16_);}
	.st8{clip-path:url(#SVGID_18_);fill:#FFFFFF;}
	.st9{clip-path:url(#SVGID_20_);}
	.st10{clip-path:url(#SVGID_22_);fill:#FFFFFF;}
</style>
<g>
	<defs>
		<path id="SVGID_1_" d="M81.6,45.2c-0.7,1.5-4.9,6.7-4.9,6.7h6.7c0,0-1.3-4-1.5-4.9C81.6,46.3,81.6,45.4,81.6,45.2L81.6,45.2z"/>
	</defs>
	<clipPath id="SVGID_2_">
		<use xlink:href="#SVGID_1_"  style="overflow:visible;"/>
	</clipPath>
	<g class="st0">
		<defs>
			<rect id="SVGID_3_" x="-83.4" y="-800.6" width="1075.3" height="1535.6"/>
		</defs>
		<clipPath id="SVGID_4_">
			<use xlink:href="#SVGID_3_"  style="overflow:visible;"/>
		</clipPath>
		<rect x="72.4" y="41" class="st1" width="15.1" height="15.1"/>
	</g>
</g>
<g>
	<defs>
		<rect id="SVGID_5_" x="63.5" y="5.3" width="66.9" height="66.7"/>
	</defs>
	<clipPath id="SVGID_6_">
		<use xlink:href="#SVGID_5_"  style="overflow:visible;"/>
	</clipPath>
	<g class="st2">
		<defs>
			<rect id="SVGID_7_" x="-83.4" y="-800.6" width="1075.3" height="1535.6"/>
		</defs>
		<clipPath id="SVGID_8_">
			<use xlink:href="#SVGID_7_"  style="overflow:visible;"/>
		</clipPath>
		<g class="st3">
			<g>
				<defs>
					<rect id="SVGID_9_" x="63.5" y="5.1" width="67.2" height="67.2"/>
				</defs>
				<clipPath id="SVGID_10_">
					<use xlink:href="#SVGID_9_"  style="overflow:visible;"/>
				</clipPath>
				<g class="st4">
					<defs>
						<path id="SVGID_11_" d="M105,38.2h-3.8l25.5-32.9H63.5v58.1l0.1-0.1c0.1-0.1,4.3-5.3,8.2-10.4c3.5-4.5,6.7-8.8,7-9.2
							c0.7-1,1.7-3.2,1.7-3.2h5.1c0,0,0.2,2,0.3,2.5c0.1,0.4,3.3,10.7,3.3,10.8l1.7-2.2l-3-9.1c0,0-0.7-1.7-0.9-2h6
							c0,0,0,0.9,0.2,1.6c0.2,0.7,1.5,5.4,1.5,5.4s4.1-5.1,4.3-5.5c0.4-0.6,0.5-1.5,0.5-1.5h5c0,0-0.9,0.7-2.5,2.7
							c-0.5,0.7-5.8,7.4-5.8,7.4s0.5,1.6,0.7,2.3c0.1,0.2,0.1,0.4,0.1,0.4c0,0,0.1-0.1,0.3-0.4c1.4-1.7,7.6-9.8,7.9-10.5
							c0.3-0.6,0.7-1.2,1-1.9h4.9c0,0,0.1,1.4,0.3,1.9l3.1,10.6c1.2,3.3,3.6,11.7,4.5,12.4h-6.3c0,0,0-1.2-0.3-2.2
							c-0.3-1-2.5-8.3-2.5-8.3h-10L98.4,57c0,0,1.9,5.9,2,6.2c0.2,0.5,1.1,2.1,1.1,2.1h-6c0,0-0.2-0.9-0.2-1.3c-0.1-0.3-0.6-2-0.6-2
							s-1.4,1.5-1.7,2.2c-0.4,0.7-0.5,1.1-0.5,1.1h-4.7c0,0-0.2-0.9-0.2-1.3c0-0.3-0.6-2.1-0.6-2.1s-1.3,1.6-1.7,2.3
							c-0.4,0.7-0.5,1.1-0.5,1.1h-4.7c0,0,1.3-1.3,1.8-1.8c0.8-0.9,3.7-4.7,3.7-4.7l-1.2-4h-9.9c0,0-5.7,7.4-5.9,7.7
							c-0.2,0.2-1.9,2.6-1.9,2.8h-3v6.7h66.9V5.3L105,38.2z"/>
					</defs>
					<clipPath id="SVGID_12_">
						<use xlink:href="#SVGID_11_"  style="overflow:visible;"/>
					</clipPath>
					<g class="st5">
						<defs>
							<rect id="SVGID_13_" x="63.5" y="5.1" width="67.2" height="67.2"/>
						</defs>
						<clipPath id="SVGID_14_">
							<use xlink:href="#SVGID_13_"  style="overflow:visible;"/>
						</clipPath>
						<rect x="59.3" y="1.1" class="st6" width="75.3" height="75.1"/>
					</g>
				</g>
			</g>
		</g>
	</g>
</g>
<g>
	<defs>
		<path id="SVGID_15_" d="M92.2,54.9l-1.8,2.3l1.2,3.5l1.8-2.5C93.3,58,92.2,54.9,92.2,54.9"/>
	</defs>
	<clipPath id="SVGID_16_">
		<use xlink:href="#SVGID_15_"  style="overflow:visible;"/>
	</clipPath>
	<g class="st7">
		<defs>
			<rect id="SVGID_17_" x="-83.4" y="-800.6" width="1075.3" height="1535.6"/>
		</defs>
		<clipPath id="SVGID_18_">
			<use xlink:href="#SVGID_17_"  style="overflow:visible;"/>
		</clipPath>
		<rect x="86.3" y="50.7" class="st8" width="11.4" height="14.2"/>
	</g>
</g>
<g>
	<defs>
		<path id="SVGID_19_" d="M107.2,45.2c-0.7,1.5-4.9,6.7-4.9,6.7h6.7c0,0-1.3-4-1.5-4.9C107.3,46.3,107.3,45.4,107.2,45.2L107.2,45.2
			z"/>
	</defs>
	<clipPath id="SVGID_20_">
		<use xlink:href="#SVGID_19_"  style="overflow:visible;"/>
	</clipPath>
	<g class="st9">
		<defs>
			<rect id="SVGID_21_" x="-83.4" y="-800.6" width="1075.3" height="1535.6"/>
		</defs>
		<clipPath id="SVGID_22_">
			<use xlink:href="#SVGID_21_"  style="overflow:visible;"/>
		</clipPath>
		<rect x="98.1" y="41" class="st10" width="15.1" height="15.1"/>
	</g>
</g>
</svg>
