<?xml version="1.0" encoding="utf-8"?>
<!-- Generator: Adobe Illustrator 21.1.0, SVG Export Plug-In . SVG Version: 6.00 Build 0)  -->
<svg version="1.1" id="Capa_1" xmlns="http://www.w3.org/2000/svg" xmlns:xlink="http://www.w3.org/1999/xlink" x="0px" y="0px"
	 viewBox="0 0 198 81.2" style="enable-background:new 0 0 198 81.2;" xml:space="preserve">
<style type="text/css">
	.st0{clip-path:url(#SVGID_2_);}
	.st1{clip-path:url(#SVGID_4_);enable-background:new    ;}
	.st2{clip-path:url(#SVGID_6_);}
	.st3{clip-path:url(#SVGID_8_);}
	.st4{clip-path:url(#SVGID_10_);fill:#FFFFFF;}
</style>
<g>
	<defs>
		<rect id="SVGID_1_" x="24.2" y="21.9" width="149.5" height="37.4"/>
	</defs>
	<clipPath id="SVGID_2_">
		<use xlink:href="#SVGID_1_"  style="overflow:visible;"/>
	</clipPath>
	<g class="st0">
		<defs>
			<rect id="SVGID_3_" x="-642.6" y="-1160.2" width="1881.9" height="2687.5"/>
		</defs>
		<clipPath id="SVGID_4_">
			<use xlink:href="#SVGID_3_"  style="overflow:visible;"/>
		</clipPath>
		<g class="st1">
			<g>
				<defs>
					<rect id="SVGID_5_" x="24.2" y="21.9" width="150" height="38.2"/>
				</defs>
				<clipPath id="SVGID_6_">
					<use xlink:href="#SVGID_5_"  style="overflow:visible;"/>
				</clipPath>
				<g class="st2">
					<defs>
						<path id="SVGID_7_" d="M54.1,47.6c0,7.1-5.1,11.7-15,11.7c-3.3,0-7.2-0.8-9.9-2.3l-4.9,2V23.6c3.5-1,7.7-1.7,11-1.7
							c8,0,12.7,3.9,12.7,9.3c0,2.1-0.7,3.8-2.2,5.5C51,37.9,54.1,41.9,54.1,47.6z M30.5,52c2.3,1.3,5.2,2,8.2,2
							c5.9,0,8.8-2.7,8.8-7c0-4.4-2.9-7.1-10.2-7.5c3-2.2,4.4-4.8,4.4-7.1c0-2.7-1.8-5.3-6.6-5.3c-1.4,0-3,0.2-4.7,0.7V52z
							 M58.8,30.6c3.9-2,7.9-2.9,11.4-2.9c7.6,0,11.5,3.8,11.5,10.3v21l-5-2c-2.6,1.6-5.6,2.3-8.5,2.3c-7.8,0-11.4-4.3-11.4-8.6
							c0-2.7,0.8-5,2.8-6.9c2.8-2.7,8-4.5,16-5.2c-0.1-3.9-2.1-5.6-6.2-5.6c-2.5,0-5.7,0.8-9.2,2.7L58.8,30.6z M68.9,54.3
							c2.1,0,4.4-0.5,6.6-2v-8.9c-10.2,1.1-12.5,3.7-12.5,6.7C63.1,52.6,65.3,54.3,68.9,54.3z M92.8,30.5c3.4-1.9,6.8-2.7,9.9-2.7
							c3.2,0,5.9,1,7.6,2.8c1.6,1.7,2.5,4,2.5,7.3v20.7h-6.1V39.5c0-2.5-0.4-3.8-1.4-4.8c-0.8-0.8-2.3-1.3-4.2-1.3
							c-2.2,0-4.7,0.6-7.3,2.2v23h-6.1V28L92.8,30.5z M121.7,43.3l12.8,15.3h-7.7l-12.8-15.1l13-15.1h7.6L121.7,43.3z M138.5,58.6
							h6.1V28.3h-6.1V58.6z M150.9,30.6c3.9-2,7.9-2.9,11.4-2.9c7.6,0,11.5,3.8,11.5,10.3v21l-5-2c-2.6,1.6-5.6,2.3-8.5,2.3
							c-7.8,0-11.4-4.3-11.4-8.6c0-2.7,0.8-5,2.8-6.9c2.8-2.7,8-4.5,16-5.2c-0.1-3.9-2.1-5.6-6.2-5.6c-2.5,0-5.7,0.8-9.2,2.7
							L150.9,30.6z M161,54.3c2.1,0,4.4-0.5,6.6-2v-8.9c-10.2,1.1-12.5,3.7-12.5,6.7C155.2,52.6,157.4,54.3,161,54.3z"/>
					</defs>
					<clipPath id="SVGID_8_">
						<use xlink:href="#SVGID_7_"  style="overflow:visible;"/>
					</clipPath>
					<g class="st3">
						<defs>
							<rect id="SVGID_9_" x="24.2" y="21.9" width="150" height="38.2"/>
						</defs>
						<clipPath id="SVGID_10_">
							<use xlink:href="#SVGID_9_"  style="overflow:visible;"/>
						</clipPath>
						<rect x="16.9" y="14.6" class="st4" width="164.2" height="52.1"/>
					</g>
				</g>
			</g>
		</g>
	</g>
</g>
</svg>
