<?xml version="1.0" encoding="utf-8"?>
<!-- Generator: Adobe Illustrator 21.1.0, SVG Export Plug-In . SVG Version: 6.00 Build 0)  -->
<svg version="1.1" id="Capa_1" xmlns="http://www.w3.org/2000/svg" xmlns:xlink="http://www.w3.org/1999/xlink" x="0px" y="0px"
	 viewBox="0 0 198 81.2" style="enable-background:new 0 0 198 81.2;" xml:space="preserve">
<style type="text/css">
	.st0{clip-path:url(#SVGID_2_);}
	.st1{clip-path:url(#SVGID_4_);enable-background:new    ;}
	.st2{clip-path:url(#SVGID_6_);}
	.st3{clip-path:url(#SVGID_8_);}
	.st4{clip-path:url(#SVGID_10_);fill:#FFFFFF;}
</style>
<g>
	<defs>
		<rect id="SVGID_1_" x="7.9" y="26.9" width="179.4" height="27.3"/>
	</defs>
	<clipPath id="SVGID_2_">
		<use xlink:href="#SVGID_1_"  style="overflow:visible;"/>
	</clipPath>
	<g class="st0">
		<defs>
			<rect id="SVGID_3_" x="-195.6" y="-827" width="1692" height="2416.4"/>
		</defs>
		<clipPath id="SVGID_4_">
			<use xlink:href="#SVGID_3_"  style="overflow:visible;"/>
		</clipPath>
		<g class="st1">
			<g>
				<defs>
					<rect id="SVGID_5_" x="7.9" y="26.9" width="179.8" height="27.8"/>
				</defs>
				<clipPath id="SVGID_6_">
					<use xlink:href="#SVGID_5_"  style="overflow:visible;"/>
				</clipPath>
				<g class="st2">
					<defs>
						<path id="SVGID_7_" d="M155.4,46.9c0.3,2.3,1.4,3.7,5.2,3.7c3.2,0,6.6-0.5,9.1-1.4v3.3c-1.9,1-6,1.7-8.9,1.7
							c-7.9,0-10.4-2-10.4-10c0-7,2.2-9.6,10.3-9.6c6.7,0,9.7,2.3,9.7,6.2C170.3,45.6,167.1,46.7,155.4,46.9z M101.4,31.7h4.9v-4.8
							h-4.9V31.7z M41.5,50.4c3.6,0,4.6-0.5,4.6-2.4v-3l-4.4,0.2c-4.4,0.3-5.4,0.9-5.4,2.4C36.3,50,37,50.4,41.5,50.4z M101.4,53.8
							h4.9V35h-4.9V53.8z M174,41.1c0-5.1,3.6-6.6,6.9-6.6c1.5,0,5.6,0.2,6.4,0.4v3.6h-5.2c-2.7,0-3.3,0.2-3.3,2.9v12.5H174V41.1z
							 M18.3,50.4c-5,0-5.7-0.9-5.7-6.6c0-4.9,1.6-5.6,5.5-5.6c4,0,5.6,0.7,5.6,5.6C23.6,49.6,22.7,50.4,18.3,50.4z M147.4,38.8
							h-8.1v9.2c0,1.7,1.2,2.4,3.2,2.4c2.2,0,3.8-0.2,5-0.5v3.4c-1.9,0.5-3.9,0.9-5.6,0.9c-5.3,0-7.4-2.3-7.4-5.7V29.1h4.7v6.1h8.1
							V38.8z M115.5,53.8V42c0-2.9,1-3.7,5.1-3.7c4.2,0,5.1,0.8,5.1,3.7v11.9h4.9v-12c0-5.4-3.8-7.1-9.1-7.1h-1.6
							c-5.3,0-9.1,1.8-9.1,7.1v12H115.5z M59.7,53.8V42c0-2.9,1-3.7,5.1-3.7c4.2,0,5.1,0.8,5.1,3.7v11.9h4.8v-12
							c0-5.4-3.8-7.1-9.1-7.1H64c-5.3,0-9.1,1.8-9.1,7.1v12H59.7z M83.9,46.2v7.6h-4.8V26.9h4.8v15h0.9c1.4,0,1.9-0.3,2.9-1.3
							l5.7-5.7H99l-8.6,9l9.3,9.9h-6.2l-5.9-6.5c-1-1.1-1.4-1.2-2.8-1.2H83.9z M46.1,41.8v-0.9c0-2.2-1.4-2.6-5.1-2.6
							c-3.5,0-6.6,0.8-8.2,1.3v-3.5c2.8-1.1,5.9-1.5,8.3-1.5c5.3,0,9.8,0.9,9.8,7v5.7c0,6.7-5.4,6.8-9.8,6.8c-6.6,0-9.8-1.9-9.8-5.7
							C31.4,43.2,34.6,42.2,46.1,41.8z M18.3,54.1c6.9,0,10.3-2.1,10.3-9.6c0-6.8-2.5-9.9-9.3-9.9c-3,0-5,0.3-6.5,1.5v-9.2H7.9v18
							C7.9,51.8,10.9,54.1,18.3,54.1z M182.5,53.8h4.9V49h-4.9V53.8z M157.9,43.2c6.3-0.3,7.3-0.8,7.3-2.3c0-1.8-1.2-2.6-4.7-2.6
							c-4.6,0-5.2,0.9-5.2,5.1L157.9,43.2z"/>
					</defs>
					<clipPath id="SVGID_8_">
						<use xlink:href="#SVGID_7_"  style="overflow:visible;"/>
					</clipPath>
					<g class="st3">
						<defs>
							<rect id="SVGID_9_" x="7.9" y="26.9" width="179.8" height="27.8"/>
						</defs>
						<clipPath id="SVGID_10_">
							<use xlink:href="#SVGID_9_"  style="overflow:visible;"/>
						</clipPath>
						<rect x="1.3" y="20.3" class="st4" width="192.6" height="40.5"/>
					</g>
				</g>
			</g>
		</g>
	</g>
</g>
</svg>
