<?xml version="1.0" encoding="utf-8"?>
<!-- Generator: Adobe Illustrator 21.1.0, SVG Export Plug-In . SVG Version: 6.00 Build 0)  -->
<svg version="1.1" id="Capa_1" xmlns="http://www.w3.org/2000/svg" xmlns:xlink="http://www.w3.org/1999/xlink" x="0px" y="0px"
	 viewBox="0 0 198 81.2" style="enable-background:new 0 0 198 81.2;" xml:space="preserve">
<style type="text/css">
	.st0{clip-path:url(#SVGID_2_);}
	.st1{clip-path:url(#SVGID_4_);enable-background:new    ;}
	.st2{clip-path:url(#SVGID_6_);}
	.st3{clip-path:url(#SVGID_8_);}
	.st4{clip-path:url(#SVGID_10_);fill:#FFFFFF;}
	.st5{clip-path:url(#SVGID_12_);}
	.st6{clip-path:url(#SVGID_14_);fill:#FFFFFF;}
	.st7{clip-path:url(#SVGID_16_);}
	.st8{clip-path:url(#SVGID_18_);enable-background:new    ;}
	.st9{clip-path:url(#SVGID_20_);}
	.st10{clip-path:url(#SVGID_22_);}
	.st11{clip-path:url(#SVGID_24_);fill:#FFFFFF;}
	.st12{clip-path:url(#SVGID_26_);}
	.st13{clip-path:url(#SVGID_28_);fill:#FFFFFF;}
	.st14{clip-path:url(#SVGID_30_);}
	.st15{clip-path:url(#SVGID_32_);fill:#FFFFFF;}
	.st16{clip-path:url(#SVGID_34_);}
	.st17{clip-path:url(#SVGID_36_);enable-background:new    ;}
	.st18{clip-path:url(#SVGID_38_);}
	.st19{clip-path:url(#SVGID_40_);}
	.st20{clip-path:url(#SVGID_42_);fill:#FFFFFF;}
	.st21{clip-path:url(#SVGID_44_);}
	.st22{clip-path:url(#SVGID_46_);fill:#FFFFFF;}
	.st23{clip-path:url(#SVGID_48_);}
	.st24{clip-path:url(#SVGID_50_);enable-background:new    ;}
	.st25{clip-path:url(#SVGID_52_);}
	.st26{clip-path:url(#SVGID_54_);}
	.st27{clip-path:url(#SVGID_56_);fill:#FFFFFF;}
</style>
<g>
	<defs>
		<rect id="SVGID_1_" x="73.7" y="7.4" width="50.6" height="49.7"/>
	</defs>
	<clipPath id="SVGID_2_">
		<use xlink:href="#SVGID_1_"  style="overflow:visible;"/>
	</clipPath>
	<g class="st0">
		<defs>
			<rect id="SVGID_3_" x="-256.7" y="-671.2" width="911.4" height="1301.5"/>
		</defs>
		<clipPath id="SVGID_4_">
			<use xlink:href="#SVGID_3_"  style="overflow:visible;"/>
		</clipPath>
		<g class="st1">
			<g>
				<defs>
					<rect id="SVGID_5_" x="73.7" y="7.4" width="51.3" height="49.8"/>
				</defs>
				<clipPath id="SVGID_6_">
					<use xlink:href="#SVGID_5_"  style="overflow:visible;"/>
				</clipPath>
				<g class="st2">
					<defs>
						<path id="SVGID_7_" d="M83.8,20.9l-2.2-1l1.4,3l-1.7,3.7l2.4-1.3l2.9,3.8l-0.5-4.7l2.8-1.4l-2.8-1.2l0.4-4.1L83.8,20.9z
							 M92.3,57c-10.8-2.9-18.6-12.7-18.6-24.4C73.7,18.7,85,7.4,99,7.4c14,0,25.3,11.3,25.3,25.3c0,6.7-2.6,12.9-6.9,17.4
							c0,0-1.8-2.3-2.3-3.1c-0.5-0.8-1.3-0.9-1.2-2c0.2-1.3,1.2-2.6,1.2-2.6l0.3,1c0,0,7.4-7.7,6.6-13c-0.5-3.4-2.6-3.8-2.6-3.8
							s0.5-3.1-4.3-5.5c-4.9-2.4-8.5-2-8.5-2l2.1,1.6c0,0-2.5-0.5-3.8-0.1l-1,0.3l1.4,0.7c0,0-2.8,0.1-4.6,1.6
							c-1.5,1.1-1.6,1.8-1.6,1.8h1c0,0-0.9,1.6-1.2,3.1c-0.3,1.6-0.1,2-0.1,2s0,0.7-1.3,1.7c-1,0.7-1.9,0.9-2.2,1.3
							c-0.4,0.6,0.9,1.6,0.9,1.6s-0.1,0.7-0.7,1.5c-0.3,0.4,0.7,1,1.1,1.1L95.4,38c0,0-0.3,0.3,0.2,0.6c0.5,0.3,0.3,1.1,0.1,1.9
							c-0.2,0.8-0.6,2,2.1,2.3c2.7,0.3,2.8,0.8,3,1.1c0.2,0.3,1.8,4.7,1,5.4c-1.1,0.9-3,0.7-6.6,3.1C92.4,54.3,92.3,57,92.3,57z"/>
					</defs>
					<clipPath id="SVGID_8_">
						<use xlink:href="#SVGID_7_"  style="overflow:visible;"/>
					</clipPath>
					<g class="st3">
						<defs>
							<rect id="SVGID_9_" x="73.7" y="7.4" width="51.3" height="49.8"/>
						</defs>
						<clipPath id="SVGID_10_">
							<use xlink:href="#SVGID_9_"  style="overflow:visible;"/>
						</clipPath>
						<rect x="70.1" y="3.8" class="st4" width="57.7" height="56.8"/>
					</g>
				</g>
			</g>
		</g>
	</g>
</g>
<g>
	<defs>
		<path id="SVGID_11_" d="M100.7,29.1c0,0,0.9,1.3,1.2,1.6c0.3,0.2,0.4,0.6,0.2,0.6c-0.2,0-2,0-2,0l0.1-0.3c0,0-0.1-0.4,0-0.8
			c0.1-0.4,0.5-0.5,0.5-0.5L100.7,29.1z"/>
	</defs>
	<clipPath id="SVGID_12_">
		<use xlink:href="#SVGID_11_"  style="overflow:visible;"/>
	</clipPath>
	<g class="st5">
		<defs>
			<rect id="SVGID_13_" x="-256.7" y="-671.2" width="911.4" height="1301.5"/>
		</defs>
		<clipPath id="SVGID_14_">
			<use xlink:href="#SVGID_13_"  style="overflow:visible;"/>
		</clipPath>
		<rect x="96.6" y="25.5" class="st6" width="9.2" height="9.4"/>
	</g>
</g>
<g>
	<defs>
		<rect id="SVGID_15_" x="70.8" y="66.7" width="7.3" height="9.6"/>
	</defs>
	<clipPath id="SVGID_16_">
		<use xlink:href="#SVGID_15_"  style="overflow:visible;"/>
	</clipPath>
	<g class="st7">
		<defs>
			<rect id="SVGID_17_" x="-256.7" y="-671.2" width="911.4" height="1301.5"/>
		</defs>
		<clipPath id="SVGID_18_">
			<use xlink:href="#SVGID_17_"  style="overflow:visible;"/>
		</clipPath>
		<g class="st8">
			<g>
				<defs>
					<rect id="SVGID_19_" x="70.8" y="66.5" width="7.8" height="10"/>
				</defs>
				<clipPath id="SVGID_20_">
					<use xlink:href="#SVGID_19_"  style="overflow:visible;"/>
				</clipPath>
				<g class="st9">
					<defs>
						<path id="SVGID_21_" d="M70.8,66.7h3.8c2.9,0,3.5,2.8,3.5,4.6c0,2.1-0.7,5-3.6,5h-3.7V66.7z M72.6,74.7h1.8c1.5,0,2-1.6,2-3.2
							c0-2.8-1.2-3.1-2-3.1h-1.7V74.7z"/>
					</defs>
					<clipPath id="SVGID_22_">
						<use xlink:href="#SVGID_21_"  style="overflow:visible;"/>
					</clipPath>
					<g class="st10">
						<defs>
							<rect id="SVGID_23_" x="70.8" y="66.5" width="7.8" height="10"/>
						</defs>
						<clipPath id="SVGID_24_">
							<use xlink:href="#SVGID_23_"  style="overflow:visible;"/>
						</clipPath>
						<rect x="67.3" y="63.2" class="st11" width="14.5" height="16.7"/>
					</g>
				</g>
			</g>
		</g>
	</g>
</g>
<g>
	<defs>
		<path id="SVGID_25_" d="M81.4,76.3h-1.9l3.1-9.6h2.1l3,9.6h-2l-0.6-2H82L81.4,76.3z M82.5,72.7h2.2l-1.1-3.8h0L82.5,72.7z"/>
	</defs>
	<clipPath id="SVGID_26_">
		<use xlink:href="#SVGID_25_"  style="overflow:visible;"/>
	</clipPath>
	<g class="st12">
		<defs>
			<rect id="SVGID_27_" x="-256.7" y="-671.2" width="911.4" height="1301.5"/>
		</defs>
		<clipPath id="SVGID_28_">
			<use xlink:href="#SVGID_27_"  style="overflow:visible;"/>
		</clipPath>
		<rect x="76" y="63.2" class="st13" width="15.3" height="16.7"/>
	</g>
</g>
<g>
	<defs>
		<polygon id="SVGID_29_" points="95.4,66.7 97.1,66.7 97.1,76.3 95.3,76.3 91.8,69.5 91.7,69.5 91.7,76.3 90,76.3 90,66.7 
			91.9,66.7 95.4,73.4 95.4,73.4 		"/>
	</defs>
	<clipPath id="SVGID_30_">
		<use xlink:href="#SVGID_29_"  style="overflow:visible;"/>
	</clipPath>
	<g class="st14">
		<defs>
			<rect id="SVGID_31_" x="-256.7" y="-671.2" width="911.4" height="1301.5"/>
		</defs>
		<clipPath id="SVGID_32_">
			<use xlink:href="#SVGID_31_"  style="overflow:visible;"/>
		</clipPath>
		<rect x="86.5" y="63.2" class="st15" width="14.2" height="16.7"/>
	</g>
</g>
<g>
	<defs>
		<rect id="SVGID_33_" x="99.7" y="66.4" width="9.2" height="10.3"/>
	</defs>
	<clipPath id="SVGID_34_">
		<use xlink:href="#SVGID_33_"  style="overflow:visible;"/>
	</clipPath>
	<g class="st16">
		<defs>
			<rect id="SVGID_35_" x="-256.7" y="-671.2" width="911.4" height="1301.5"/>
		</defs>
		<clipPath id="SVGID_36_">
			<use xlink:href="#SVGID_35_"  style="overflow:visible;"/>
		</clipPath>
		<g class="st17">
			<g>
				<defs>
					<rect id="SVGID_37_" x="99.3" y="65.7" width="10" height="11.4"/>
				</defs>
				<clipPath id="SVGID_38_">
					<use xlink:href="#SVGID_37_"  style="overflow:visible;"/>
				</clipPath>
				<g class="st18">
					<defs>
						<path id="SVGID_39_" d="M104.3,66.4c1.3,0,4.6,0.6,4.6,5.2c0,4.6-3.3,5.2-4.6,5.2c-1.3,0-4.6-0.6-4.6-5.2
							C99.7,67,103,66.4,104.3,66.4 M104.3,75c1.1,0,2.6-0.7,2.6-3.4c0-2.7-1.5-3.4-2.6-3.4c-1.1,0-2.6,0.7-2.6,3.4
							C101.7,74.3,103.2,75,104.3,75"/>
					</defs>
					<clipPath id="SVGID_40_">
						<use xlink:href="#SVGID_39_"  style="overflow:visible;"/>
					</clipPath>
					<g class="st19">
						<defs>
							<rect id="SVGID_41_" x="99.3" y="65.7" width="10" height="11.4"/>
						</defs>
						<clipPath id="SVGID_42_">
							<use xlink:href="#SVGID_41_"  style="overflow:visible;"/>
						</clipPath>
						<rect x="96.1" y="62.8" class="st20" width="16.3" height="17.4"/>
					</g>
				</g>
			</g>
		</g>
	</g>
</g>
<g>
	<defs>
		<polygon id="SVGID_43_" points="116.9,66.7 118.6,66.7 118.6,76.3 116.8,76.3 113.3,69.5 113.2,69.5 113.2,76.3 111.5,76.3 
			111.5,66.7 113.5,66.7 116.9,73.4 116.9,73.4 		"/>
	</defs>
	<clipPath id="SVGID_44_">
		<use xlink:href="#SVGID_43_"  style="overflow:visible;"/>
	</clipPath>
	<g class="st21">
		<defs>
			<rect id="SVGID_45_" x="-256.7" y="-671.2" width="911.4" height="1301.5"/>
		</defs>
		<clipPath id="SVGID_46_">
			<use xlink:href="#SVGID_45_"  style="overflow:visible;"/>
		</clipPath>
		<rect x="108" y="63.2" class="st22" width="14.2" height="16.7"/>
	</g>
</g>
<g>
	<defs>
		<rect id="SVGID_47_" x="121.7" y="66.7" width="5.4" height="9.6"/>
	</defs>
	<clipPath id="SVGID_48_">
		<use xlink:href="#SVGID_47_"  style="overflow:visible;"/>
	</clipPath>
	<g class="st23">
		<defs>
			<rect id="SVGID_49_" x="-256.7" y="-671.2" width="911.4" height="1301.5"/>
		</defs>
		<clipPath id="SVGID_50_">
			<use xlink:href="#SVGID_49_"  style="overflow:visible;"/>
		</clipPath>
		<g class="st24">
			<g>
				<defs>
					<rect id="SVGID_51_" x="121.4" y="66.5" width="6.4" height="10"/>
				</defs>
				<clipPath id="SVGID_52_">
					<use xlink:href="#SVGID_51_"  style="overflow:visible;"/>
				</clipPath>
				<g class="st25">
					<defs>
						<polygon id="SVGID_53_" points="126.9,68.4 123.5,68.4 123.5,70.5 126.5,70.5 126.5,72.2 123.5,72.2 123.5,74.6 127.1,74.6 
							127.1,76.3 121.7,76.3 121.7,66.7 126.9,66.7 						"/>
					</defs>
					<clipPath id="SVGID_54_">
						<use xlink:href="#SVGID_53_"  style="overflow:visible;"/>
					</clipPath>
					<g class="st26">
						<defs>
							<rect id="SVGID_55_" x="121.4" y="66.5" width="6.4" height="10"/>
						</defs>
						<clipPath id="SVGID_56_">
							<use xlink:href="#SVGID_55_"  style="overflow:visible;"/>
						</clipPath>
						<rect x="118.2" y="63.2" class="st27" width="12.5" height="16.7"/>
					</g>
				</g>
			</g>
		</g>
	</g>
</g>
</svg>
