<?xml version="1.0" encoding="utf-8"?>
<!-- Generator: Adobe Illustrator 21.1.0, SVG Export Plug-In . SVG Version: 6.00 Build 0)  -->
<svg version="1.1" id="Capa_1" xmlns="http://www.w3.org/2000/svg" xmlns:xlink="http://www.w3.org/1999/xlink" x="0px" y="0px"
	 viewBox="0 0 198 81.2" style="enable-background:new 0 0 198 81.2;" xml:space="preserve">
<style type="text/css">
	.st0{clip-path:url(#SVGID_2_);}
	.st1{clip-path:url(#SVGID_4_);fill:#FFFFFF;}
	.st2{clip-path:url(#SVGID_6_);}
	.st3{clip-path:url(#SVGID_8_);fill:#FFFFFF;}
	.st4{clip-path:url(#SVGID_10_);}
	.st5{clip-path:url(#SVGID_12_);fill:#FFFFFF;}
	.st6{clip-path:url(#SVGID_14_);}
	.st7{clip-path:url(#SVGID_16_);fill:#FFFFFF;}
	.st8{clip-path:url(#SVGID_18_);}
	.st9{clip-path:url(#SVGID_20_);fill:#FFFFFF;}
	.st10{clip-path:url(#SVGID_22_);}
	.st11{clip-path:url(#SVGID_24_);fill:#FFFFFF;}
	.st12{clip-path:url(#SVGID_26_);}
	.st13{clip-path:url(#SVGID_28_);fill:#FFFFFF;}
	.st14{clip-path:url(#SVGID_30_);}
	.st15{clip-path:url(#SVGID_32_);fill:#FFFFFF;}
	.st16{clip-path:url(#SVGID_34_);}
	.st17{clip-path:url(#SVGID_36_);fill:#FFFFFF;}
</style>
<g>
	<defs>
		<path id="SVGID_1_" d="M131.8,28.7c0-2.6,2.1-4.6,4.6-4.6c2.5,0,4.6,2.1,4.6,4.6s-2.1,4.6-4.6,4.6
			C133.9,33.3,131.8,31.2,131.8,28.7"/>
	</defs>
	<clipPath id="SVGID_2_">
		<use xlink:href="#SVGID_1_"  style="overflow:visible;"/>
	</clipPath>
	<g class="st0">
		<defs>
			<rect id="SVGID_3_" x="-404" y="-1175.5" width="1280" height="1828"/>
		</defs>
		<clipPath id="SVGID_4_">
			<use xlink:href="#SVGID_3_"  style="overflow:visible;"/>
		</clipPath>
		<rect x="126.8" y="19" class="st1" width="19.2" height="19.3"/>
	</g>
</g>
<g>
	<defs>
		<path id="SVGID_5_" d="M147,44.5c0-2.6,2.1-4.6,4.6-4.6c2.5,0,4.6,2.1,4.6,4.6c0,2.6-2.1,4.6-4.6,4.6C149,49.2,147,47.1,147,44.5"
			/>
	</defs>
	<clipPath id="SVGID_6_">
		<use xlink:href="#SVGID_5_"  style="overflow:visible;"/>
	</clipPath>
	<g class="st2">
		<defs>
			<rect id="SVGID_7_" x="-404" y="-1175.5" width="1280" height="1828"/>
		</defs>
		<clipPath id="SVGID_8_">
			<use xlink:href="#SVGID_7_"  style="overflow:visible;"/>
		</clipPath>
		<rect x="142" y="34.9" class="st3" width="19.2" height="19.3"/>
	</g>
</g>
<g>
	<defs>
		<path id="SVGID_9_" d="M128.6,57.5c-2.5,0-3.7-1.2-4.1-1.6c-0.3-0.4-1.4-1.9-1.4-3.5v-23c0-9.5,7.6-13.8,13.2-13.8
			c5.6,0,23.2,0.1,23.2,0.1c3.1,0,5.5,1.8,5.5,5.3v23.3c0,10.3-7.8,13.3-11.9,13.3h-24H128.6z M127.1,29.6c0-3.9,2.8-9.8,9.7-9.8h24
			v24.9c0,4.6-3.2,8.8-9.3,8.8h-24.4C127.2,53.4,127.1,31.7,127.1,29.6z"/>
	</defs>
	<clipPath id="SVGID_10_">
		<use xlink:href="#SVGID_9_"  style="overflow:visible;"/>
	</clipPath>
	<g class="st4">
		<defs>
			<rect id="SVGID_11_" x="-404" y="-1175.5" width="1280" height="1828"/>
		</defs>
		<clipPath id="SVGID_12_">
			<use xlink:href="#SVGID_11_"  style="overflow:visible;"/>
		</clipPath>
		<rect x="118.1" y="10.5" class="st5" width="51.9" height="52"/>
	</g>
</g>
<g>
	<defs>
		<path id="SVGID_13_" d="M128.6,57.5c-2.5,0-3.7-1.2-4.1-1.6c-0.3-0.4-1.4-1.9-1.4-3.5v-23c0-9.5,7.6-13.8,13.2-13.8
			c5.6,0,23.2,0.1,23.2,0.1c3.1,0,5.5,1.8,5.5,5.3v23.3c0,10.3-7.8,13.3-11.9,13.3h-24H128.6z M127.1,29.6c0-3.9,2.8-9.8,9.7-9.8h24
			v24.9c0,4.6-3.2,8.8-9.3,8.8h-24.4C127.2,53.4,127.1,31.7,127.1,29.6z"/>
	</defs>
	<clipPath id="SVGID_14_">
		<use xlink:href="#SVGID_13_"  style="overflow:visible;"/>
	</clipPath>
	<g class="st6">
		<defs>
			<rect id="SVGID_15_" x="-404" y="-1175.5" width="1280" height="1828"/>
		</defs>
		<clipPath id="SVGID_16_">
			<use xlink:href="#SVGID_15_"  style="overflow:visible;"/>
		</clipPath>
		<rect x="118.1" y="10.5" class="st7" width="51.9" height="52"/>
	</g>
</g>
<g>
	<defs>
		<polygon id="SVGID_17_" points="131.7,48.6 139.8,48.6 156.1,24.4 148,24.4 		"/>
	</defs>
	<clipPath id="SVGID_18_">
		<use xlink:href="#SVGID_17_"  style="overflow:visible;"/>
	</clipPath>
	<g class="st8">
		<defs>
			<rect id="SVGID_19_" x="-404" y="-1175.5" width="1280" height="1828"/>
		</defs>
		<clipPath id="SVGID_20_">
			<use xlink:href="#SVGID_19_"  style="overflow:visible;"/>
		</clipPath>
		<rect x="126.7" y="19.4" class="st9" width="34.4" height="34.2"/>
	</g>
</g>
<g>
	<defs>
		<path id="SVGID_21_" d="M41.1,28.3h5c2.3,0,7.9,2.4,7.9,8.2c0,6.3-5.6,8.9-7.9,8.9h-5L41,36.5L41.1,28.3z M33,20v33.5h12.3
			c3.1,0,8.2-0.6,12.4-5.2c4.2-4.6,4.6-9.3,4.6-12s-0.4-7-5.3-11.8c-5-5-11.1-4.5-12-4.5C44.1,20,33,20,33,20z"/>
	</defs>
	<clipPath id="SVGID_22_">
		<use xlink:href="#SVGID_21_"  style="overflow:visible;"/>
	</clipPath>
	<g class="st10">
		<defs>
			<rect id="SVGID_23_" x="-404" y="-1175.5" width="1280" height="1828"/>
		</defs>
		<clipPath id="SVGID_24_">
			<use xlink:href="#SVGID_23_"  style="overflow:visible;"/>
		</clipPath>
		<rect x="28" y="15" class="st11" width="39.3" height="43.5"/>
	</g>
</g>
<g>
	<defs>
		<polygon id="SVGID_25_" points="66.5,29 66.5,53.5 75,53.5 75,25.1 		"/>
	</defs>
	<clipPath id="SVGID_26_">
		<use xlink:href="#SVGID_25_"  style="overflow:visible;"/>
	</clipPath>
	<g class="st12">
		<defs>
			<rect id="SVGID_27_" x="-404" y="-1175.5" width="1280" height="1828"/>
		</defs>
		<clipPath id="SVGID_28_">
			<use xlink:href="#SVGID_27_"  style="overflow:visible;"/>
		</clipPath>
		<rect x="61.5" y="20.1" class="st13" width="18.4" height="38.4"/>
	</g>
</g>
<g>
	<defs>
		<path id="SVGID_29_" d="M93.1,54.1c-8,0-14-6.2-14-14s6.2-14.4,14-14.4c7.8,0,14.2,6.4,14.2,14.2v13.8l-6.3-3
			C101,50.6,97.6,54.1,93.1,54.1 M87,40c0-3.4,2.7-6.1,6.1-6.1c3.4,0,6.1,2.7,6.1,6.1c0,3.4-2.7,6.1-6.1,6.1
			C89.7,46.1,87,43.3,87,40"/>
	</defs>
	<clipPath id="SVGID_30_">
		<use xlink:href="#SVGID_29_"  style="overflow:visible;"/>
	</clipPath>
	<g class="st14">
		<defs>
			<rect id="SVGID_31_" x="-404" y="-1175.5" width="1280" height="1828"/>
		</defs>
		<clipPath id="SVGID_32_">
			<use xlink:href="#SVGID_31_"  style="overflow:visible;"/>
		</clipPath>
		<rect x="74.1" y="20.7" class="st15" width="38.2" height="38.4"/>
	</g>
</g>
<g>
	<defs>
		<path id="SVGID_33_" d="M93.1,54.1c-8,0-14-6.2-14-14s6.2-14.4,14-14.4c7.8,0,14.2,6.4,14.2,14.2v13.8l-6.3-3
			C101,50.6,97.6,54.1,93.1,54.1 M87,40c0-3.4,2.7-6.1,6.1-6.1c3.4,0,6.1,2.7,6.1,6.1c0,3.4-2.7,6.1-6.1,6.1
			C89.7,46.1,87,43.3,87,40"/>
	</defs>
	<clipPath id="SVGID_34_">
		<use xlink:href="#SVGID_33_"  style="overflow:visible;"/>
	</clipPath>
	<g class="st16">
		<defs>
			<rect id="SVGID_35_" x="-404" y="-1175.5" width="1280" height="1828"/>
		</defs>
		<clipPath id="SVGID_36_">
			<use xlink:href="#SVGID_35_"  style="overflow:visible;"/>
		</clipPath>
		<rect x="74.1" y="20.7" class="st17" width="38.2" height="38.4"/>
	</g>
</g>
</svg>
