<?xml version="1.0" encoding="utf-8"?>
<!-- Generator: Adobe Illustrator 21.1.0, SVG Export Plug-In . SVG Version: 6.00 Build 0)  -->
<svg version="1.1" id="Capa_1" xmlns="http://www.w3.org/2000/svg" xmlns:xlink="http://www.w3.org/1999/xlink" x="0px" y="0px"
	 viewBox="0 0 198 81.2" style="enable-background:new 0 0 198 81.2;" xml:space="preserve">
<style type="text/css">
	.st0{clip-path:url(#SVGID_2_);}
	.st1{clip-path:url(#SVGID_4_);fill:#FFFFFF;}
	.st2{clip-path:url(#SVGID_6_);}
	.st3{clip-path:url(#SVGID_8_);fill:#FFFFFF;}
</style>
<g>
	<defs>
		<polygon id="SVGID_1_" points="146.4,25.1 131.9,28.1 146.4,28.1 		"/>
	</defs>
	<clipPath id="SVGID_2_">
		<use xlink:href="#SVGID_1_"  style="overflow:visible;"/>
	</clipPath>
	<g class="st0">
		<defs>
			<rect id="SVGID_3_" x="-971.2" y="-1068.9" width="1734.9" height="2477.6"/>
		</defs>
		<clipPath id="SVGID_4_">
			<use xlink:href="#SVGID_3_"  style="overflow:visible;"/>
		</clipPath>
		<rect x="125.1" y="18.3" class="st1" width="28" height="16.6"/>
	</g>
</g>
<g>
	<defs>
		<path id="SVGID_5_" d="M24.5,55.3h26.7V43.8h-3c-0.4,6.1-1.8,8.5-5.5,8.5h-8.1v-9.6h2.1c2.4,0,3.5,1.3,3.5,4.6v1h3V34.5h-3V35
			c0,3.3-1.1,4.6-3.5,4.6h-2.1V31h7.1c5.4,0,5.9,2.2,6.5,7.8h3V28H24.5V31h1.8c2.1,0,2.6,0.5,2.6,2.3v16.1c0,2.5-0.8,2.9-2.1,2.9
			h-2.3V55.3z M52.5,55.3h25.3V43.5h-3c-0.4,6.4-1.4,8.7-5.5,8.7h-6.6V32.9c0-1.4,0.6-1.9,2.4-1.9h2.3V28H52.5V31h2.3
			c1.6,0,2.1,0.5,2.1,1.8v17.7c0,1.4-0.8,1.8-1.9,1.8h-2.6V55.3z M105.3,35.5c0,3.2-2,4.4-5.8,4.4h-3.7V31h3.7
			C103.6,31,105.3,32.3,105.3,35.5z M111.2,35.5c0-4.7-3.5-7.5-9.5-7.5H85.8V31h2.6c0.9,0,1.7,0.3,1.7,1.4v18.4
			c0,1.1-0.8,1.4-1.7,1.4h-2.6v3.1h14.5v-3.1h-2.6c-0.9,0-1.9-0.3-1.9-1.4v-7.9h6.3C107.5,42.9,111.2,40.5,111.2,35.5z M123.7,43.5
			h-6.8l3.2-9.9h0.1L123.7,43.5z M136,55.3h12v-3.1h-2.3c-1.4,0-2-0.7-2-2V33c0-1.6,1.3-2,2.5-2h1.8V28h-14.3V31h2.3
			c1.6,0,2.1,0.8,2.1,1.9v17.9c0,1-0.6,1.5-2.2,1.5c-2.1,0-3.4-0.3-4.1-2.2L123.7,28H118L110.3,50c-0.7,1.9-2.1,2.2-4.2,2.2v3.1
			h12.6v-3.1h-3.2c-0.8,0-1.3-0.2-1.3-0.7c0-0.4,0.1-0.6,0.2-0.9l1.3-4.1h9.2l1.3,4.1c0.1,0.2,0.2,0.6,0.2,1c0,0.4-0.3,0.6-1.3,0.6
			H122v3.1h11.8H136z M169.1,38.4h2.9V28h-2.3l-1.3,2.1c-2-1.4-4.6-2.9-7.7-2.9c-4.9,0-10,2.5-10,8.3c0,11.8,18,6.5,18,13.5
			c0,2-1.7,3.7-5.3,3.7c-5.7,0-9.1-3-9.6-8.5h-3v11.2h2.7l0.9-2.4c2.3,1.9,5.4,3.3,8.4,3.3c5.7,0,10.7-2.1,10.7-8.7
			c0-11.5-18-6.9-18-13.1c0-2.7,1.5-3.7,5.3-3.7C165.6,30.6,168.1,33.9,169.1,38.4z"/>
	</defs>
	<clipPath id="SVGID_6_">
		<use xlink:href="#SVGID_5_"  style="overflow:visible;"/>
	</clipPath>
	<g class="st2">
		<defs>
			<rect id="SVGID_7_" x="-971.2" y="-1068.9" width="1734.9" height="2477.6"/>
		</defs>
		<clipPath id="SVGID_8_">
			<use xlink:href="#SVGID_7_"  style="overflow:visible;"/>
		</clipPath>
		<rect x="17.7" y="20.4" class="st3" width="162.6" height="42.6"/>
	</g>
</g>
</svg>
