<?xml version="1.0" encoding="utf-8"?>
<!-- Generator: Adobe Illustrator 21.1.0, SVG Export Plug-In . SVG Version: 6.00 Build 0)  -->
<svg version="1.1" id="Capa_1" xmlns="http://www.w3.org/2000/svg" xmlns:xlink="http://www.w3.org/1999/xlink" x="0px" y="0px"
	 viewBox="0 0 198 81.2" style="enable-background:new 0 0 198 81.2;" xml:space="preserve">
<style type="text/css">
	.st0{clip-path:url(#SVGID_2_);}
	.st1{clip-path:url(#SVGID_4_);fill:#FFFFFF;}
	.st2{clip-path:url(#SVGID_6_);}
	.st3{clip-path:url(#SVGID_8_);fill:#FFFFFF;}
	.st4{clip-path:url(#SVGID_10_);}
	.st5{clip-path:url(#SVGID_12_);fill:#FFFFFF;}
	.st6{clip-path:url(#SVGID_14_);}
	.st7{clip-path:url(#SVGID_16_);fill:#FFFFFF;}
	.st8{clip-path:url(#SVGID_18_);}
	.st9{clip-path:url(#SVGID_20_);fill:#FFFFFF;}
	.st10{clip-path:url(#SVGID_22_);}
	.st11{clip-path:url(#SVGID_24_);enable-background:new    ;}
	.st12{clip-path:url(#SVGID_26_);}
	.st13{clip-path:url(#SVGID_28_);}
	.st14{clip-path:url(#SVGID_30_);fill:#FFFFFF;}
	.st15{clip-path:url(#SVGID_32_);}
	.st16{clip-path:url(#SVGID_34_);fill:#FFFFFF;}
	.st17{clip-path:url(#SVGID_36_);}
	.st18{clip-path:url(#SVGID_38_);fill:#FFFFFF;}
	.st19{clip-path:url(#SVGID_40_);}
	.st20{clip-path:url(#SVGID_42_);fill:#FFFFFF;}
	.st21{clip-path:url(#SVGID_44_);}
	.st22{clip-path:url(#SVGID_46_);fill:#FFFFFF;}
	.st23{clip-path:url(#SVGID_48_);}
	.st24{clip-path:url(#SVGID_50_);fill:#FFFFFF;}
	.st25{clip-path:url(#SVGID_52_);}
	.st26{clip-path:url(#SVGID_54_);fill:#FFFFFF;}
	.st27{clip-path:url(#SVGID_56_);}
	.st28{clip-path:url(#SVGID_58_);fill:#FFFFFF;}
	.st29{clip-path:url(#SVGID_60_);}
	.st30{clip-path:url(#SVGID_62_);fill:#FFFFFF;}
	.st31{clip-path:url(#SVGID_64_);}
	.st32{clip-path:url(#SVGID_66_);fill:#FFFFFF;}
	.st33{clip-path:url(#SVGID_68_);}
	.st34{clip-path:url(#SVGID_70_);fill:#FFFFFF;}
	.st35{clip-path:url(#SVGID_72_);}
	.st36{clip-path:url(#SVGID_74_);fill:#FFFFFF;}
	.st37{clip-path:url(#SVGID_76_);}
	.st38{clip-path:url(#SVGID_78_);fill:#FFFFFF;}
	.st39{clip-path:url(#SVGID_80_);}
	.st40{clip-path:url(#SVGID_82_);fill:#FFFFFF;}
	.st41{clip-path:url(#SVGID_84_);}
	.st42{clip-path:url(#SVGID_86_);fill:#FFFFFF;}
	.st43{clip-path:url(#SVGID_88_);}
	.st44{clip-path:url(#SVGID_90_);fill:#FFFFFF;}
	.st45{clip-path:url(#SVGID_92_);}
	.st46{clip-path:url(#SVGID_94_);fill:#FFFFFF;}
	.st47{clip-path:url(#SVGID_96_);}
	.st48{clip-path:url(#SVGID_98_);fill:#FFFFFF;}
	.st49{clip-path:url(#SVGID_100_);}
	.st50{clip-path:url(#SVGID_102_);fill:#FFFFFF;}
	.st51{clip-path:url(#SVGID_104_);}
	.st52{clip-path:url(#SVGID_106_);fill:#FFFFFF;}
	.st53{clip-path:url(#SVGID_108_);}
	.st54{clip-path:url(#SVGID_110_);fill:#FFFFFF;}
	.st55{clip-path:url(#SVGID_112_);}
	.st56{clip-path:url(#SVGID_114_);fill:#FFFFFF;}
	.st57{clip-path:url(#SVGID_116_);}
	.st58{clip-path:url(#SVGID_118_);fill:#FFFFFF;}
	.st59{clip-path:url(#SVGID_120_);}
	.st60{clip-path:url(#SVGID_122_);fill:#FFFFFF;}
	.st61{clip-path:url(#SVGID_124_);}
	.st62{clip-path:url(#SVGID_126_);fill:#FFFFFF;}
	.st63{clip-path:url(#SVGID_128_);}
	.st64{clip-path:url(#SVGID_130_);fill:#FFFFFF;}
	.st65{clip-path:url(#SVGID_132_);}
	.st66{clip-path:url(#SVGID_134_);fill:#FFFFFF;}
	.st67{clip-path:url(#SVGID_136_);}
	.st68{clip-path:url(#SVGID_138_);fill:#FFFFFF;}
	.st69{clip-path:url(#SVGID_140_);}
	.st70{clip-path:url(#SVGID_142_);fill:#FFFFFF;}
	.st71{clip-path:url(#SVGID_144_);}
	.st72{clip-path:url(#SVGID_146_);fill:#FFFFFF;}
	.st73{clip-path:url(#SVGID_148_);}
	.st74{clip-path:url(#SVGID_150_);fill:#FFFFFF;}
	.st75{clip-path:url(#SVGID_152_);}
	.st76{clip-path:url(#SVGID_154_);fill:#FFFFFF;}
</style>
<g>
	<defs>
		<path id="SVGID_1_" d="M109.4,25.4h-5c0.1-1,1.3-3,4-3h0.9v-1.3h-1.1c-3.1,0-5.3,2.2-5.3,5.1c0,2.9,2.2,5.1,5.3,5.1h1.1V30h-1.3
			c-1.8,0-3.5-1.4-3.6-3.3h5V25.4z"/>
	</defs>
	<clipPath id="SVGID_2_">
		<use xlink:href="#SVGID_1_"  style="overflow:visible;"/>
	</clipPath>
	<g class="st0">
		<defs>
			<rect id="SVGID_3_" x="-700.1" y="-1172.3" width="1280" height="1828"/>
		</defs>
		<clipPath id="SVGID_4_">
			<use xlink:href="#SVGID_3_"  style="overflow:visible;"/>
		</clipPath>
		<rect x="98.1" y="16.1" class="st1" width="16.4" height="20.1"/>
	</g>
</g>
<g>
	<defs>
		<path id="SVGID_5_" d="M110.5,31.3h3.6c1.2,0,2.2-0.6,2.2-1.9c0-2.5-4.4-2-4.4-3.2c0-0.4,0.2-0.6,0.8-0.6h3.3v-1.2h-3
			c-1.5,0-2.4,0.7-2.4,1.9c0,2.4,4.4,1.9,4.4,3.2c0,0.4-0.2,0.7-0.8,0.7h-3.6V31.3z"/>
	</defs>
	<clipPath id="SVGID_6_">
		<use xlink:href="#SVGID_5_"  style="overflow:visible;"/>
	</clipPath>
	<g class="st2">
		<defs>
			<rect id="SVGID_7_" x="-700.1" y="-1172.3" width="1280" height="1828"/>
		</defs>
		<clipPath id="SVGID_8_">
			<use xlink:href="#SVGID_7_"  style="overflow:visible;"/>
		</clipPath>
		<rect x="105.5" y="19.3" class="st3" width="15.8" height="17"/>
	</g>
</g>
<g>
	<defs>
		<path id="SVGID_9_" d="M121.9,24.3h-1.2c-1.6,0-3.5,1.2-3.5,3.5c0,2.2,1.9,3.5,3.5,3.5h1.2v-1.2h-1c-1.2,0-2.4-0.8-2.4-2.3
			c0-1.5,1.2-2.3,2.4-2.3h1V24.3z"/>
	</defs>
	<clipPath id="SVGID_10_">
		<use xlink:href="#SVGID_9_"  style="overflow:visible;"/>
	</clipPath>
	<g class="st4">
		<defs>
			<rect id="SVGID_11_" x="-700.1" y="-1172.3" width="1280" height="1828"/>
		</defs>
		<clipPath id="SVGID_12_">
			<use xlink:href="#SVGID_11_"  style="overflow:visible;"/>
		</clipPath>
		<rect x="112.2" y="19.3" class="st5" width="14.8" height="17"/>
	</g>
</g>
<g>
	<defs>
		<path id="SVGID_13_" d="M127.6,24.3v4.1c0,1.1-0.8,1.8-1.7,1.8c-0.9,0-1.7-0.8-1.7-1.8v-4.1h-1.3v4.1c0,1.8,1.3,3,3,3
			c1.7,0,3-1.2,3-3v-4.1H127.6z"/>
	</defs>
	<clipPath id="SVGID_14_">
		<use xlink:href="#SVGID_13_"  style="overflow:visible;"/>
	</clipPath>
	<g class="st6">
		<defs>
			<rect id="SVGID_15_" x="-700.1" y="-1172.3" width="1280" height="1828"/>
		</defs>
		<clipPath id="SVGID_16_">
			<use xlink:href="#SVGID_15_"  style="overflow:visible;"/>
		</clipPath>
		<rect x="117.9" y="19.3" class="st7" width="16" height="17.1"/>
	</g>
</g>
<g>
	<defs>
		<path id="SVGID_17_" d="M137.1,26.4c-0.7-1.3-1.8-2.2-3.4-2.2c-1.9,0-3.6,1.5-3.6,3.6c0,2.1,1.7,3.6,3.6,3.6c2,0,3.5-1.4,3.7-3.2
			L136,28c-0.3,1.3-0.8,2.2-2.4,2.2c-1.3,0-2.3-1-2.3-2.4c0-1.4,1-2.4,2.3-2.4c0.8,0,1.2,0.2,1.6,0.7l-3.5,1.9l0.5,1L137.1,26.4z"/>
	</defs>
	<clipPath id="SVGID_18_">
		<use xlink:href="#SVGID_17_"  style="overflow:visible;"/>
	</clipPath>
	<g class="st8">
		<defs>
			<rect id="SVGID_19_" x="-700.1" y="-1172.3" width="1280" height="1828"/>
		</defs>
		<clipPath id="SVGID_20_">
			<use xlink:href="#SVGID_19_"  style="overflow:visible;"/>
		</clipPath>
		<rect x="125" y="19.2" class="st9" width="17.3" height="17.2"/>
	</g>
</g>
<g>
	<defs>
		<rect id="SVGID_21_" x="16.9" y="19.7" width="164.1" height="41.8"/>
	</defs>
	<clipPath id="SVGID_22_">
		<use xlink:href="#SVGID_21_"  style="overflow:visible;"/>
	</clipPath>
	<g class="st10">
		<defs>
			<rect id="SVGID_23_" x="-700.1" y="-1172.3" width="1280" height="1828"/>
		</defs>
		<clipPath id="SVGID_24_">
			<use xlink:href="#SVGID_23_"  style="overflow:visible;"/>
		</clipPath>
		<g class="st11">
			<g>
				<defs>
					<rect id="SVGID_25_" x="16.9" y="19.7" width="165" height="42"/>
				</defs>
				<clipPath id="SVGID_26_">
					<use xlink:href="#SVGID_25_"  style="overflow:visible;"/>
				</clipPath>
				<g class="st12">
					<defs>
						<rect id="SVGID_27_" x="138.7" y="21.1" width="1.3" height="10.1"/>
					</defs>
					<clipPath id="SVGID_28_">
						<use xlink:href="#SVGID_27_"  style="overflow:visible;"/>
					</clipPath>
					<g class="st13">
						<defs>
							<rect id="SVGID_29_" x="16.9" y="19.7" width="165" height="42"/>
						</defs>
						<clipPath id="SVGID_30_">
							<use xlink:href="#SVGID_29_"  style="overflow:visible;"/>
						</clipPath>
						<rect x="133.7" y="16.1" class="st14" width="11.3" height="20.1"/>
					</g>
				</g>
				<g class="st12">
					<defs>
						<path id="SVGID_31_" d="M148.5,31.3v-3.8c0-2-1.4-3.3-3.5-3.3c-2.3,0-3.6,1.6-3.6,3.6c0,2,1.4,3.7,3.5,3.7
							c0.9,0,1.4-0.3,1.9-0.7v-1.5c-0.4,0.5-1,1-1.8,1c-1.4,0-2.3-1.1-2.3-2.4c0-1.3,0.9-2.4,2.3-2.4c1.2,0,2.3,0.7,2.3,2v3.9H148.5
							z"/>
					</defs>
					<clipPath id="SVGID_32_">
						<use xlink:href="#SVGID_31_"  style="overflow:visible;"/>
					</clipPath>
					<g class="st15">
						<defs>
							<rect id="SVGID_33_" x="16.9" y="19.7" width="165" height="42"/>
						</defs>
						<clipPath id="SVGID_34_">
							<use xlink:href="#SVGID_33_"  style="overflow:visible;"/>
						</clipPath>
						<rect x="136.4" y="19.2" class="st16" width="17.2" height="17.2"/>
					</g>
				</g>
				<g class="st12">
					<defs>
						<path id="SVGID_35_" d="M159.5,21.1v6.2c0,1.9-1,2.8-2.3,2.8c-1.4,0-2.3-1-2.3-2.4c0-1.4,0.9-2.4,2.3-2.4
							c0.6,0,1.3,0.3,1.8,0.6v-1.3c-0.6-0.3-1.3-0.5-2-0.5c-1.8,0-3.4,1.5-3.4,3.4c0,2.1,1.3,3.8,3.6,3.8c2.1,0,3.5-1.5,3.5-3.8
							v-6.5H159.5z"/>
					</defs>
					<clipPath id="SVGID_36_">
						<use xlink:href="#SVGID_35_"  style="overflow:visible;"/>
					</clipPath>
					<g class="st17">
						<defs>
							<rect id="SVGID_37_" x="16.9" y="19.7" width="165" height="42"/>
						</defs>
						<clipPath id="SVGID_38_">
							<use xlink:href="#SVGID_37_"  style="overflow:visible;"/>
						</clipPath>
						<rect x="148.6" y="16.1" class="st18" width="17.2" height="20.3"/>
					</g>
				</g>
				<g class="st12">
					<defs>
						<path id="SVGID_39_" d="M168.8,26.4c-0.7-1.3-1.8-2.2-3.4-2.2c-1.9,0-3.6,1.5-3.6,3.6c0,2.1,1.7,3.6,3.6,3.6
							c2,0,3.5-1.4,3.7-3.2l-1.3-0.2c-0.3,1.3-0.8,2.2-2.4,2.2c-1.3,0-2.3-1-2.3-2.4c0-1.4,1-2.4,2.3-2.4c0.8,0,1.2,0.2,1.6,0.7
							l-3.5,1.9l0.5,1L168.8,26.4z"/>
					</defs>
					<clipPath id="SVGID_40_">
						<use xlink:href="#SVGID_39_"  style="overflow:visible;"/>
					</clipPath>
					<g class="st19">
						<defs>
							<rect id="SVGID_41_" x="16.9" y="19.7" width="165" height="42"/>
						</defs>
						<clipPath id="SVGID_42_">
							<use xlink:href="#SVGID_41_"  style="overflow:visible;"/>
						</clipPath>
						<rect x="156.8" y="19.2" class="st20" width="17.3" height="17.2"/>
					</g>
				</g>
				<g class="st12">
					<defs>
						<path id="SVGID_43_" d="M104.5,42.8c0-1.4,1-2.4,2.3-2.4c1.3,0,2.3,1,2.3,2.4s-1,2.4-2.3,2.4
							C105.5,45.2,104.5,44.3,104.5,42.8 M103.1,42.8c0,2.1,1.7,3.6,3.7,3.6c1.9,0,3.6-1.5,3.6-3.6s-1.7-3.6-3.6-3.6
							C104.8,39.2,103.1,40.7,103.1,42.8"/>
					</defs>
					<clipPath id="SVGID_44_">
						<use xlink:href="#SVGID_43_"  style="overflow:visible;"/>
					</clipPath>
					<g class="st21">
						<defs>
							<rect id="SVGID_45_" x="16.9" y="19.7" width="165" height="42"/>
						</defs>
						<clipPath id="SVGID_46_">
							<use xlink:href="#SVGID_45_"  style="overflow:visible;"/>
						</clipPath>
						<rect x="98.1" y="34.2" class="st22" width="17.3" height="17.2"/>
					</g>
				</g>
				<g class="st12">
					<defs>
						<path id="SVGID_47_" d="M111.5,46.3h1.3v-3.2c0-1.9,0.7-2.6,2-2.6h0.2v-1.2h-0.3c-0.9,0-1.5,0.3-1.9,0.9h0v-0.8h-1.2V46.3z"/>
					</defs>
					<clipPath id="SVGID_48_">
						<use xlink:href="#SVGID_47_"  style="overflow:visible;"/>
					</clipPath>
					<g class="st23">
						<defs>
							<rect id="SVGID_49_" x="16.9" y="19.7" width="165" height="42"/>
						</defs>
						<clipPath id="SVGID_50_">
							<use xlink:href="#SVGID_49_"  style="overflow:visible;"/>
						</clipPath>
						<rect x="106.5" y="34.2" class="st24" width="13.5" height="17.1"/>
					</g>
				</g>
				<g class="st12">
					<defs>
						<path id="SVGID_51_" d="M120.7,44.7c-0.5,0.3-1.1,0.6-1.6,0.6c-1.3,0-2.4-0.9-2.4-2.2c0-1.4,0.7-2.6,2.3-2.6
							c1.2,0,2.2,1,2.2,2.5v3.2c0,1.7-1.3,2.2-2.4,2.2c-0.7,0-1.3-0.2-1.9-0.3l-0.3,1.2c0.8,0.2,1.5,0.4,2.3,0.4
							c2.1,0,3.7-1.2,3.7-3.9v-3.1c0-1.7-1.3-3.4-3.5-3.4c-2.2,0-3.6,1.6-3.6,3.7c0,2,1.6,3.5,3.6,3.5c0.5,0,1.2-0.2,1.7-0.5V44.7z"
							/>
					</defs>
					<clipPath id="SVGID_52_">
						<use xlink:href="#SVGID_51_"  style="overflow:visible;"/>
					</clipPath>
					<g class="st25">
						<defs>
							<rect id="SVGID_53_" x="16.9" y="19.7" width="165" height="42"/>
						</defs>
						<clipPath id="SVGID_54_">
							<use xlink:href="#SVGID_53_"  style="overflow:visible;"/>
						</clipPath>
						<rect x="110.4" y="34.2" class="st26" width="17.1" height="20.4"/>
					</g>
				</g>
				<g class="st12">
					<defs>
						<path id="SVGID_55_" d="M130.6,46.3v-3.8c0-2-1.4-3.3-3.5-3.3c-2.3,0-3.6,1.6-3.6,3.6c0,2,1.4,3.7,3.5,3.7
							c0.9,0,1.4-0.3,1.9-0.7v-1.5c-0.4,0.5-1,1-1.8,1c-1.4,0-2.3-1.1-2.3-2.4c0-1.3,0.9-2.4,2.3-2.4c1.2,0,2.3,0.7,2.3,2v3.9H130.6
							z"/>
					</defs>
					<clipPath id="SVGID_56_">
						<use xlink:href="#SVGID_55_"  style="overflow:visible;"/>
					</clipPath>
					<g class="st27">
						<defs>
							<rect id="SVGID_57_" x="16.9" y="19.7" width="165" height="42"/>
						</defs>
						<clipPath id="SVGID_58_">
							<use xlink:href="#SVGID_57_"  style="overflow:visible;"/>
						</clipPath>
						<rect x="118.5" y="34.2" class="st28" width="17.2" height="17.2"/>
					</g>
				</g>
				<g class="st12">
					<defs>
						<path id="SVGID_59_" d="M133.2,46.3v-4.1c0-1.1,0.8-1.8,1.7-1.8c0.9,0,1.7,0.8,1.7,1.8v4.1h1.3v-4.1c0-1.8-1.3-3-3-3
							c-1.7,0-3,1.2-3,3v4.1H133.2z"/>
					</defs>
					<clipPath id="SVGID_60_">
						<use xlink:href="#SVGID_59_"  style="overflow:visible;"/>
					</clipPath>
					<g class="st29">
						<defs>
							<rect id="SVGID_61_" x="16.9" y="19.7" width="165" height="42"/>
						</defs>
						<clipPath id="SVGID_62_">
							<use xlink:href="#SVGID_61_"  style="overflow:visible;"/>
						</clipPath>
						<rect x="126.9" y="34.2" class="st30" width="16" height="17.1"/>
					</g>
				</g>
				<g class="st12">
					<defs>
						<path id="SVGID_63_" d="M139.8,37.8c0,0.4,0.3,0.8,0.8,0.8c0.5,0,0.8-0.4,0.8-0.8c0-0.4-0.3-0.8-0.8-0.8
							C140.1,37,139.8,37.4,139.8,37.8z M139.9,46.3h1.3v-7h-1.3V46.3z"/>
					</defs>
					<clipPath id="SVGID_64_">
						<use xlink:href="#SVGID_63_"  style="overflow:visible;"/>
					</clipPath>
					<g class="st31">
						<defs>
							<rect id="SVGID_65_" x="16.9" y="19.7" width="165" height="42"/>
						</defs>
						<clipPath id="SVGID_66_">
							<use xlink:href="#SVGID_65_"  style="overflow:visible;"/>
						</clipPath>
						<rect x="134.8" y="32" class="st32" width="11.6" height="19.3"/>
					</g>
				</g>
				<g class="st12">
					<defs>
						<path id="SVGID_67_" d="M148,45.1h-3.6l3.4-4.1c0.2-0.2,0.2-0.4,0.2-0.8c0-0.6-0.5-0.9-1.4-0.9h-3.4v1.2h3.3l-2.9,3.5
							c-0.5,0.6-0.7,0.9-0.7,1.3c0,0.6,0.4,0.9,1.1,0.9h4V45.1z"/>
					</defs>
					<clipPath id="SVGID_68_">
						<use xlink:href="#SVGID_67_"  style="overflow:visible;"/>
					</clipPath>
					<g class="st33">
						<defs>
							<rect id="SVGID_69_" x="16.9" y="19.7" width="165" height="42"/>
						</defs>
						<clipPath id="SVGID_70_">
							<use xlink:href="#SVGID_69_"  style="overflow:visible;"/>
						</clipPath>
						<rect x="137.9" y="34.4" class="st34" width="15.1" height="17"/>
					</g>
				</g>
				<g class="st12">
					<defs>
						<path id="SVGID_71_" d="M155.9,46.3v-3.8c0-2-1.4-3.3-3.5-3.3c-2.3,0-3.6,1.6-3.6,3.6c0,2,1.4,3.7,3.5,3.7
							c0.9,0,1.4-0.3,1.9-0.7v-1.5c-0.4,0.5-1,1-1.8,1c-1.4,0-2.3-1.1-2.3-2.4c0-1.3,0.9-2.4,2.3-2.4c1.2,0,2.3,0.7,2.3,2v3.9H155.9
							z"/>
					</defs>
					<clipPath id="SVGID_72_">
						<use xlink:href="#SVGID_71_"  style="overflow:visible;"/>
					</clipPath>
					<g class="st35">
						<defs>
							<rect id="SVGID_73_" x="16.9" y="19.7" width="165" height="42"/>
						</defs>
						<clipPath id="SVGID_74_">
							<use xlink:href="#SVGID_73_"  style="overflow:visible;"/>
						</clipPath>
						<rect x="143.7" y="34.2" class="st36" width="17.2" height="17.2"/>
					</g>
				</g>
				<g class="st12">
					<defs>
						<path id="SVGID_75_" d="M161.9,39.4h-1.2c-1.6,0-3.5,1.2-3.5,3.5c0,2.2,1.9,3.5,3.5,3.5h1.2v-1.2h-1c-1.2,0-2.4-0.8-2.4-2.3
							c0-1.5,1.2-2.3,2.4-2.3h1V39.4z"/>
					</defs>
					<clipPath id="SVGID_76_">
						<use xlink:href="#SVGID_75_"  style="overflow:visible;"/>
					</clipPath>
					<g class="st37">
						<defs>
							<rect id="SVGID_77_" x="16.9" y="19.7" width="165" height="42"/>
						</defs>
						<clipPath id="SVGID_78_">
							<use xlink:href="#SVGID_77_"  style="overflow:visible;"/>
						</clipPath>
						<rect x="152.1" y="34.4" class="st38" width="14.8" height="17"/>
					</g>
				</g>
				<g class="st12">
					<defs>
						<path id="SVGID_79_" d="M163.4,37.8c0,0.4,0.3,0.8,0.8,0.8s0.8-0.4,0.8-0.8c0-0.4-0.3-0.8-0.8-0.8S163.4,37.4,163.4,37.8z
							 M163.6,46.3h1.3v-7h-1.3V46.3z"/>
					</defs>
					<clipPath id="SVGID_80_">
						<use xlink:href="#SVGID_79_"  style="overflow:visible;"/>
					</clipPath>
					<g class="st39">
						<defs>
							<rect id="SVGID_81_" x="16.9" y="19.7" width="165" height="42"/>
						</defs>
						<clipPath id="SVGID_82_">
							<use xlink:href="#SVGID_81_"  style="overflow:visible;"/>
						</clipPath>
						<rect x="158.4" y="32" class="st40" width="11.6" height="19.3"/>
					</g>
				</g>
				<g class="st12">
					<defs>
						<path id="SVGID_83_" d="M168,42.8c0-1.4,1-2.4,2.3-2.4s2.3,1,2.3,2.4c0,1.4-1,2.4-2.3,2.4S168,44.3,168,42.8z M166.7,42.8
							c0,2.1,1.7,3.6,3.6,3.6c1.9,0,3.7-1.5,3.7-3.6s-1.7-3.6-3.7-3.6C168.4,39.2,166.7,40.7,166.7,42.8z M169.3,38.5h1l1.9-2.1
							h-1.6L169.3,38.5z"/>
					</defs>
					<clipPath id="SVGID_84_">
						<use xlink:href="#SVGID_83_"  style="overflow:visible;"/>
					</clipPath>
					<g class="st41">
						<defs>
							<rect id="SVGID_85_" x="16.9" y="19.7" width="165" height="42"/>
						</defs>
						<clipPath id="SVGID_86_">
							<use xlink:href="#SVGID_85_"  style="overflow:visible;"/>
						</clipPath>
						<rect x="161.7" y="31.5" class="st42" width="17.3" height="20"/>
					</g>
				</g>
				<g class="st12">
					<defs>
						<path id="SVGID_87_" d="M176.3,46.3v-4.1c0-1.1,0.8-1.8,1.7-1.8c0.9,0,1.7,0.8,1.7,1.8v4.1h1.3v-4.1c0-1.8-1.3-3-3-3
							c-1.7,0-3,1.2-3,3v4.1H176.3z"/>
					</defs>
					<clipPath id="SVGID_88_">
						<use xlink:href="#SVGID_87_"  style="overflow:visible;"/>
					</clipPath>
					<g class="st43">
						<defs>
							<rect id="SVGID_89_" x="16.9" y="19.7" width="165" height="42"/>
						</defs>
						<clipPath id="SVGID_90_">
							<use xlink:href="#SVGID_89_"  style="overflow:visible;"/>
						</clipPath>
						<rect x="170" y="34.2" class="st44" width="16" height="17.1"/>
					</g>
				</g>
				<g class="st12">
					<defs>
						<path id="SVGID_91_" d="M104,52.8c0,0.4,0.3,0.8,0.8,0.8s0.8-0.4,0.8-0.8c0-0.4-0.3-0.8-0.8-0.8S104,52.4,104,52.8z
							 M104.1,61.3h1.3v-7h-1.3V61.3z"/>
					</defs>
					<clipPath id="SVGID_92_">
						<use xlink:href="#SVGID_91_"  style="overflow:visible;"/>
					</clipPath>
					<g class="st45">
						<defs>
							<rect id="SVGID_93_" x="16.9" y="19.7" width="165" height="42"/>
						</defs>
						<clipPath id="SVGID_94_">
							<use xlink:href="#SVGID_93_"  style="overflow:visible;"/>
						</clipPath>
						<rect x="99" y="47.1" class="st46" width="11.6" height="19.3"/>
					</g>
				</g>
				<g class="st12">
					<defs>
						<path id="SVGID_95_" d="M108.7,61.3v-4.1c0-1.1,0.8-1.8,1.7-1.8c0.9,0,1.7,0.8,1.7,1.8v4.1h1.3v-4.1c0-1.8-1.3-3-3-3
							c-1.7,0-3,1.2-3,3v4.1H108.7z"/>
					</defs>
					<clipPath id="SVGID_96_">
						<use xlink:href="#SVGID_95_"  style="overflow:visible;"/>
					</clipPath>
					<g class="st47">
						<defs>
							<rect id="SVGID_97_" x="16.9" y="19.7" width="165" height="42"/>
						</defs>
						<clipPath id="SVGID_98_">
							<use xlink:href="#SVGID_97_"  style="overflow:visible;"/>
						</clipPath>
						<rect x="102.4" y="49.2" class="st48" width="16" height="17.1"/>
					</g>
				</g>
				<g class="st12">
					<defs>
						<path id="SVGID_99_" d="M120.4,51.2v6.2c0,1.9-1,2.8-2.3,2.8c-1.4,0-2.3-1-2.3-2.4c0-1.4,0.9-2.4,2.3-2.4
							c0.6,0,1.3,0.3,1.8,0.6v-1.3c-0.6-0.3-1.3-0.5-2-0.5c-1.8,0-3.4,1.5-3.4,3.4c0,2.1,1.3,3.8,3.6,3.8c2.1,0,3.5-1.5,3.5-3.8
							v-6.5H120.4z"/>
					</defs>
					<clipPath id="SVGID_100_">
						<use xlink:href="#SVGID_99_"  style="overflow:visible;"/>
					</clipPath>
					<g class="st49">
						<defs>
							<rect id="SVGID_101_" x="16.9" y="19.7" width="165" height="42"/>
						</defs>
						<clipPath id="SVGID_102_">
							<use xlink:href="#SVGID_101_"  style="overflow:visible;"/>
						</clipPath>
						<rect x="109.5" y="46.2" class="st50" width="17.2" height="20.3"/>
					</g>
				</g>
				<g class="st12">
					<defs>
						<path id="SVGID_103_" d="M127.6,54.4v4.1c0,1.1-0.8,1.8-1.7,1.8c-0.9,0-1.7-0.8-1.7-1.8v-4.1h-1.3v4.1c0,1.8,1.3,3,3,3
							c1.7,0,3-1.2,3-3v-4.1H127.6z"/>
					</defs>
					<clipPath id="SVGID_104_">
						<use xlink:href="#SVGID_103_"  style="overflow:visible;"/>
					</clipPath>
					<g class="st51">
						<defs>
							<rect id="SVGID_105_" x="16.9" y="19.7" width="165" height="42"/>
						</defs>
						<clipPath id="SVGID_106_">
							<use xlink:href="#SVGID_105_"  style="overflow:visible;"/>
						</clipPath>
						<rect x="117.9" y="49.4" class="st52" width="16" height="17.1"/>
					</g>
				</g>
				<g class="st12">
					<defs>
						<path id="SVGID_107_" d="M130,61.3h3.6c1.2,0,2.2-0.6,2.2-1.9c0-2.5-4.4-2-4.4-3.2c0-0.4,0.2-0.6,0.8-0.6h3.2v-1.2h-3
							c-1.5,0-2.4,0.7-2.4,1.9c0,2.4,4.4,1.9,4.4,3.2c0,0.4-0.2,0.7-0.8,0.7H130V61.3z"/>
					</defs>
					<clipPath id="SVGID_108_">
						<use xlink:href="#SVGID_107_"  style="overflow:visible;"/>
					</clipPath>
					<g class="st53">
						<defs>
							<rect id="SVGID_109_" x="16.9" y="19.7" width="165" height="42"/>
						</defs>
						<clipPath id="SVGID_110_">
							<use xlink:href="#SVGID_109_"  style="overflow:visible;"/>
						</clipPath>
						<rect x="125" y="49.4" class="st54" width="15.8" height="17"/>
					</g>
				</g>
				<g class="st12">
					<defs>
						<path id="SVGID_111_" d="M140.8,54.4h-2.5v-1.7H137v6.5c0,1.4,0.8,2.2,2.1,2.2h1.7v-1.2h-1.6c-0.7,0-1-0.2-1-0.9v-3.7h2.5
							V54.4z"/>
					</defs>
					<clipPath id="SVGID_112_">
						<use xlink:href="#SVGID_111_"  style="overflow:visible;"/>
					</clipPath>
					<g class="st55">
						<defs>
							<rect id="SVGID_113_" x="16.9" y="19.7" width="165" height="42"/>
						</defs>
						<clipPath id="SVGID_114_">
							<use xlink:href="#SVGID_113_"  style="overflow:visible;"/>
						</clipPath>
						<rect x="132" y="47.6" class="st56" width="13.8" height="18.7"/>
					</g>
				</g>
				<g class="st12">
					<defs>
						<path id="SVGID_115_" d="M141.6,61.3h1.3v-3.2c0-1.9,0.7-2.6,2-2.6h0.2v-1.2h-0.3c-0.9,0-1.5,0.3-1.9,0.9h0v-0.8h-1.2V61.3z"
							/>
					</defs>
					<clipPath id="SVGID_116_">
						<use xlink:href="#SVGID_115_"  style="overflow:visible;"/>
					</clipPath>
					<g class="st57">
						<defs>
							<rect id="SVGID_117_" x="16.9" y="19.7" width="165" height="42"/>
						</defs>
						<clipPath id="SVGID_118_">
							<use xlink:href="#SVGID_117_"  style="overflow:visible;"/>
						</clipPath>
						<rect x="136.6" y="49.2" class="st58" width="13.5" height="17.1"/>
					</g>
				</g>
				<g class="st12">
					<defs>
						<path id="SVGID_119_" d="M146.3,52.8c0,0.4,0.3,0.8,0.8,0.8c0.5,0,0.8-0.4,0.8-0.8c0-0.4-0.3-0.8-0.8-0.8
							C146.6,52.1,146.3,52.4,146.3,52.8z M146.4,61.3h1.3v-7h-1.3V61.3z"/>
					</defs>
					<clipPath id="SVGID_120_">
						<use xlink:href="#SVGID_119_"  style="overflow:visible;"/>
					</clipPath>
					<g class="st59">
						<defs>
							<rect id="SVGID_121_" x="16.9" y="19.7" width="165" height="42"/>
						</defs>
						<clipPath id="SVGID_122_">
							<use xlink:href="#SVGID_121_"  style="overflow:visible;"/>
						</clipPath>
						<rect x="141.3" y="47.1" class="st60" width="11.5" height="19.3"/>
					</g>
				</g>
				<g class="st12">
					<defs>
						<path id="SVGID_123_" d="M156.7,61.3v-3.8c0-2-1.4-3.3-3.5-3.3c-2.3,0-3.6,1.6-3.6,3.6c0,2,1.4,3.7,3.5,3.7
							c0.9,0,1.4-0.3,1.9-0.7v-1.5c-0.4,0.6-1,1-1.8,1c-1.3,0-2.3-1.1-2.3-2.4c0-1.3,0.9-2.4,2.3-2.4c1.2,0,2.3,0.7,2.3,2v3.9H156.7
							z"/>
					</defs>
					<clipPath id="SVGID_124_">
						<use xlink:href="#SVGID_123_"  style="overflow:visible;"/>
					</clipPath>
					<g class="st61">
						<defs>
							<rect id="SVGID_125_" x="16.9" y="19.7" width="165" height="42"/>
						</defs>
						<clipPath id="SVGID_126_">
							<use xlink:href="#SVGID_125_"  style="overflow:visible;"/>
						</clipPath>
						<rect x="144.5" y="49.2" class="st62" width="17.2" height="17.2"/>
					</g>
				</g>
				<g class="st12">
					<defs>
						<rect id="SVGID_127_" x="158.2" y="51.2" width="1.3" height="10.1"/>
					</defs>
					<clipPath id="SVGID_128_">
						<use xlink:href="#SVGID_127_"  style="overflow:visible;"/>
					</clipPath>
					<g class="st63">
						<defs>
							<rect id="SVGID_129_" x="16.9" y="19.7" width="165" height="42"/>
						</defs>
						<clipPath id="SVGID_130_">
							<use xlink:href="#SVGID_129_"  style="overflow:visible;"/>
						</clipPath>
						<rect x="153.2" y="46.2" class="st64" width="11.3" height="20.1"/>
					</g>
				</g>
				<g class="st12">
					<defs>
						<path id="SVGID_131_" d="M41.3,27.7h-5.2c-6.5,0-9.7,4.5-10.4,8.3h15.6v7.4H25.7c0.7,3.8,3.8,8.3,10.4,8.3h6.3v8h-5.6
							c-13.9,0-19.9-10.2-19.9-20c0-9.8,6-20,19.9-20h4.5V27.7z"/>
					</defs>
					<clipPath id="SVGID_132_">
						<use xlink:href="#SVGID_131_"  style="overflow:visible;"/>
					</clipPath>
					<g class="st65">
						<defs>
							<rect id="SVGID_133_" x="16.9" y="19.7" width="165" height="42"/>
						</defs>
						<clipPath id="SVGID_134_">
							<use xlink:href="#SVGID_133_"  style="overflow:visible;"/>
						</clipPath>
						<rect x="11.9" y="14.7" class="st66" width="35.5" height="50.1"/>
					</g>
				</g>
				<g class="st12">
					<defs>
						<path id="SVGID_135_" d="M52,39.7c0,6.7,4.5,12.5,12.1,12.5c7.6,0,12.1-5.8,12.1-12.5c0-6.7-4.5-12.5-12.1-12.5
							C56.5,27.3,52,33,52,39.7 M84,39.7c0,10.9-8.3,20-19.9,20c-11.7,0-19.9-9.1-19.9-20c0-10.9,8.3-20,19.9-20
							C75.8,19.8,84,28.9,84,39.7"/>
					</defs>
					<clipPath id="SVGID_136_">
						<use xlink:href="#SVGID_135_"  style="overflow:visible;"/>
					</clipPath>
					<g class="st67">
						<defs>
							<rect id="SVGID_137_" x="16.9" y="19.7" width="165" height="42"/>
						</defs>
						<clipPath id="SVGID_138_">
							<use xlink:href="#SVGID_137_"  style="overflow:visible;"/>
						</clipPath>
						<rect x="39.2" y="14.8" class="st68" width="49.8" height="50"/>
					</g>
				</g>
				<g class="st12">
					<defs>
						<rect id="SVGID_139_" x="86.9" y="27.8" width="8.6" height="32"/>
					</defs>
					<clipPath id="SVGID_140_">
						<use xlink:href="#SVGID_139_"  style="overflow:visible;"/>
					</clipPath>
					<g class="st69">
						<defs>
							<rect id="SVGID_141_" x="16.9" y="19.7" width="165" height="42"/>
						</defs>
						<clipPath id="SVGID_142_">
							<use xlink:href="#SVGID_141_"  style="overflow:visible;"/>
						</clipPath>
						<rect x="81.9" y="22.8" class="st70" width="18.6" height="42"/>
					</g>
				</g>
				<g class="st12">
					<defs>
						<rect id="SVGID_143_" x="86.9" y="19.7" width="8.6" height="6.7"/>
					</defs>
					<clipPath id="SVGID_144_">
						<use xlink:href="#SVGID_143_"  style="overflow:visible;"/>
					</clipPath>
					<g class="st71">
						<defs>
							<rect id="SVGID_145_" x="16.9" y="19.7" width="165" height="42"/>
						</defs>
						<clipPath id="SVGID_146_">
							<use xlink:href="#SVGID_145_"  style="overflow:visible;"/>
						</clipPath>
						<rect x="81.9" y="14.7" class="st72" width="18.6" height="16.7"/>
					</g>
				</g>
				<g class="st12">
					<defs>
						<path id="SVGID_147_" d="M71.4,59.7c0,0,6.1-1.7,10.3-8h3.9v8H71.4z"/>
					</defs>
					<clipPath id="SVGID_148_">
						<use xlink:href="#SVGID_147_"  style="overflow:visible;"/>
					</clipPath>
					<g class="st73">
						<defs>
							<rect id="SVGID_149_" x="16.9" y="19.7" width="165" height="42"/>
						</defs>
						<clipPath id="SVGID_150_">
							<use xlink:href="#SVGID_149_"  style="overflow:visible;"/>
						</clipPath>
						<rect x="66.4" y="46.7" class="st74" width="24.2" height="18"/>
					</g>
				</g>
				<g class="st12">
					<defs>
						<path id="SVGID_151_" d="M56.6,59.7c0,0-6.1-1.7-10.3-8h-4.1v8H56.6z"/>
					</defs>
					<clipPath id="SVGID_152_">
						<use xlink:href="#SVGID_151_"  style="overflow:visible;"/>
					</clipPath>
					<g class="st75">
						<defs>
							<rect id="SVGID_153_" x="16.9" y="19.7" width="165" height="42"/>
						</defs>
						<clipPath id="SVGID_154_">
							<use xlink:href="#SVGID_153_"  style="overflow:visible;"/>
						</clipPath>
						<rect x="37.2" y="46.7" class="st76" width="24.4" height="18"/>
					</g>
				</g>
			</g>
		</g>
	</g>
</g>
</svg>
