<?xml version="1.0" encoding="utf-8"?>
<!-- Generator: Adobe Illustrator 21.1.0, SVG Export Plug-In . SVG Version: 6.00 Build 0)  -->
<svg version="1.1" id="Capa_1" xmlns="http://www.w3.org/2000/svg" xmlns:xlink="http://www.w3.org/1999/xlink" x="0px" y="0px"
	 viewBox="0 0 198 81.2" style="enable-background:new 0 0 198 81.2;" xml:space="preserve">
<style type="text/css">
	.st0{clip-path:url(#SVGID_2_);}
	.st1{clip-path:url(#SVGID_4_);fill:#FFFFFF;}
	.st2{clip-path:url(#SVGID_6_);}
	.st3{clip-path:url(#SVGID_8_);enable-background:new    ;}
	.st4{clip-path:url(#SVGID_10_);}
	.st5{clip-path:url(#SVGID_12_);}
	.st6{clip-path:url(#SVGID_14_);fill:#FFFFFF;}
	.st7{clip-path:url(#SVGID_16_);}
	.st8{clip-path:url(#SVGID_18_);fill:#FFFFFF;}
	.st9{clip-path:url(#SVGID_20_);}
	.st10{clip-path:url(#SVGID_22_);enable-background:new    ;}
	.st11{clip-path:url(#SVGID_24_);}
	.st12{clip-path:url(#SVGID_26_);}
	.st13{clip-path:url(#SVGID_28_);fill:#FFFFFF;}
	.st14{clip-path:url(#SVGID_30_);}
	.st15{clip-path:url(#SVGID_32_);fill:#FFFFFF;}
	.st16{clip-path:url(#SVGID_34_);}
	.st17{clip-path:url(#SVGID_36_);fill:#FFFFFF;}
	.st18{clip-path:url(#SVGID_38_);}
	.st19{clip-path:url(#SVGID_40_);fill:#FFFFFF;}
	.st20{clip-path:url(#SVGID_42_);}
	.st21{clip-path:url(#SVGID_44_);fill:#FFFFFF;}
	.st22{clip-path:url(#SVGID_46_);}
	.st23{clip-path:url(#SVGID_48_);fill:#FFFFFF;}
	.st24{clip-path:url(#SVGID_50_);}
	.st25{clip-path:url(#SVGID_52_);fill:#FFFFFF;}
	.st26{clip-path:url(#SVGID_54_);}
	.st27{clip-path:url(#SVGID_56_);fill:#FFFFFF;}
	.st28{clip-path:url(#SVGID_58_);}
	.st29{clip-path:url(#SVGID_60_);fill:#FFFFFF;}
	.st30{clip-path:url(#SVGID_62_);}
	.st31{clip-path:url(#SVGID_64_);fill:#FFFFFF;}
	.st32{clip-path:url(#SVGID_66_);}
	.st33{clip-path:url(#SVGID_68_);fill:#FFFFFF;}
	.st34{clip-path:url(#SVGID_70_);}
	.st35{clip-path:url(#SVGID_72_);fill:#FFFFFF;}
	.st36{clip-path:url(#SVGID_74_);}
	.st37{clip-path:url(#SVGID_76_);fill:#FFFFFF;}
	.st38{clip-path:url(#SVGID_78_);}
	.st39{clip-path:url(#SVGID_80_);fill:#FFFFFF;}
	.st40{clip-path:url(#SVGID_82_);}
	.st41{clip-path:url(#SVGID_84_);fill:#FFFFFF;}
	.st42{clip-path:url(#SVGID_86_);}
	.st43{clip-path:url(#SVGID_88_);fill:#FFFFFF;}
	.st44{clip-path:url(#SVGID_90_);}
	.st45{clip-path:url(#SVGID_92_);fill:#FFFFFF;}
	.st46{clip-path:url(#SVGID_94_);}
	.st47{clip-path:url(#SVGID_96_);fill:#FFFFFF;}
	.st48{clip-path:url(#SVGID_98_);}
	.st49{clip-path:url(#SVGID_100_);fill:#FFFFFF;}
	.st50{clip-path:url(#SVGID_102_);}
	.st51{clip-path:url(#SVGID_104_);fill:#FFFFFF;}
	.st52{clip-path:url(#SVGID_106_);}
	.st53{clip-path:url(#SVGID_108_);fill:#FFFFFF;}
	.st54{clip-path:url(#SVGID_110_);}
	.st55{clip-path:url(#SVGID_112_);fill:#FFFFFF;}
	.st56{clip-path:url(#SVGID_114_);}
	.st57{clip-path:url(#SVGID_116_);fill:#FFFFFF;}
	.st58{clip-path:url(#SVGID_118_);}
	.st59{clip-path:url(#SVGID_120_);fill:#FFFFFF;}
	.st60{clip-path:url(#SVGID_122_);}
	.st61{clip-path:url(#SVGID_124_);fill:#FFFFFF;}
	.st62{clip-path:url(#SVGID_126_);}
	.st63{clip-path:url(#SVGID_128_);fill:#FFFFFF;}
	.st64{clip-path:url(#SVGID_130_);}
	.st65{clip-path:url(#SVGID_132_);fill:#FFFFFF;}
	.st66{clip-path:url(#SVGID_134_);}
	.st67{clip-path:url(#SVGID_136_);fill:#FFFFFF;}
	.st68{clip-path:url(#SVGID_138_);}
	.st69{clip-path:url(#SVGID_140_);fill:#FFFFFF;}
	.st70{clip-path:url(#SVGID_142_);}
	.st71{clip-path:url(#SVGID_144_);fill:#FFFFFF;}
	.st72{clip-path:url(#SVGID_146_);}
	.st73{clip-path:url(#SVGID_148_);fill:#FFFFFF;}
	.st74{clip-path:url(#SVGID_150_);}
	.st75{clip-path:url(#SVGID_152_);fill:#FFFFFF;}
	.st76{clip-path:url(#SVGID_154_);}
	.st77{clip-path:url(#SVGID_156_);fill:#FFFFFF;}
	.st78{clip-path:url(#SVGID_158_);}
	.st79{clip-path:url(#SVGID_160_);fill:#FFFFFF;}
	.st80{clip-path:url(#SVGID_162_);}
	.st81{clip-path:url(#SVGID_164_);fill:#FFFFFF;}
	.st82{clip-path:url(#SVGID_166_);}
	.st83{clip-path:url(#SVGID_168_);fill:#FFFFFF;}
	.st84{clip-path:url(#SVGID_170_);}
	.st85{clip-path:url(#SVGID_172_);fill:#FFFFFF;}
	.st86{clip-path:url(#SVGID_174_);}
	.st87{clip-path:url(#SVGID_176_);fill:#FFFFFF;}
	.st88{clip-path:url(#SVGID_178_);}
	.st89{clip-path:url(#SVGID_180_);fill:#FFFFFF;}
	.st90{clip-path:url(#SVGID_182_);}
	.st91{clip-path:url(#SVGID_184_);fill:#FFFFFF;}
	.st92{clip-path:url(#SVGID_186_);}
	.st93{clip-path:url(#SVGID_188_);fill:#FFFFFF;}
	.st94{clip-path:url(#SVGID_190_);}
	.st95{clip-path:url(#SVGID_192_);fill:#FFFFFF;}
	.st96{clip-path:url(#SVGID_194_);}
	.st97{clip-path:url(#SVGID_196_);fill:#FFFFFF;}
	.st98{clip-path:url(#SVGID_198_);}
	.st99{clip-path:url(#SVGID_200_);fill:#FFFFFF;}
	.st100{clip-path:url(#SVGID_202_);}
	.st101{clip-path:url(#SVGID_204_);fill:#FFFFFF;}
	.st102{clip-path:url(#SVGID_206_);}
	.st103{clip-path:url(#SVGID_208_);fill:#FFFFFF;}
</style>
<g>
	<defs>
		<rect id="SVGID_1_" x="61.7" y="11.4" width="8.8" height="29.6"/>
	</defs>
	<clipPath id="SVGID_2_">
		<use xlink:href="#SVGID_1_"  style="overflow:visible;"/>
	</clipPath>
	<g class="st0">
		<defs>
			<rect id="SVGID_3_" x="-120.4" y="-786.6" width="1280" height="1828"/>
		</defs>
		<clipPath id="SVGID_4_">
			<use xlink:href="#SVGID_3_"  style="overflow:visible;"/>
		</clipPath>
		<rect x="56.7" y="6.4" class="st1" width="18.8" height="39.6"/>
	</g>
</g>
<g>
	<defs>
		<rect id="SVGID_5_" x="73.1" y="10.9" width="20.7" height="30.7"/>
	</defs>
	<clipPath id="SVGID_6_">
		<use xlink:href="#SVGID_5_"  style="overflow:visible;"/>
	</clipPath>
	<g class="st2">
		<defs>
			<rect id="SVGID_7_" x="-120.4" y="-786.6" width="1280" height="1828"/>
		</defs>
		<clipPath id="SVGID_8_">
			<use xlink:href="#SVGID_7_"  style="overflow:visible;"/>
		</clipPath>
		<g class="st3">
			<g>
				<defs>
					<rect id="SVGID_9_" x="72.6" y="10.4" width="22" height="32"/>
				</defs>
				<clipPath id="SVGID_10_">
					<use xlink:href="#SVGID_9_"  style="overflow:visible;"/>
				</clipPath>
				<g class="st4">
					<defs>
						<path id="SVGID_11_" d="M83.8,35.2c-0.7,0.5-1.6,0.8-2.7,0.8c-1.9,0-3.7-0.7-5.3-2.1l-2.7,4.9c2.7,1.8,5.8,2.8,9.3,2.8
							c3.4,0,6.1-0.8,8.2-2.4c2.1-1.6,3.1-3.7,3.1-6.4c0-2.3-0.9-4.4-2.8-6.4c-1.4-1.5-2.9-2.9-4.4-4.2c-1.3-1.1-2.1-1.9-2.5-2.4
							c-0.4-0.5-0.6-1-0.6-1.4c0-1.2,0.9-1.9,2.8-1.9c1.1,0,2.5,0.4,4,1.1l2.4-4.7c-2.5-1.3-5.1-2-7.8-2c-3.1,0-5.6,0.7-7.5,2.1
							c-1.9,1.4-2.9,3.3-2.9,5.6c0,1.9,0.7,3.6,2.2,5.3c1.6,1.5,3,2.7,4,3.6c1.7,1.5,2.8,2.6,3.2,3.1c0.7,0.9,1.1,1.7,1.1,2.5
							C84.9,34,84.5,34.6,83.8,35.2"/>
					</defs>
					<clipPath id="SVGID_12_">
						<use xlink:href="#SVGID_11_"  style="overflow:visible;"/>
					</clipPath>
					<g class="st5">
						<defs>
							<rect id="SVGID_13_" x="72.6" y="10.4" width="22" height="32"/>
						</defs>
						<clipPath id="SVGID_14_">
							<use xlink:href="#SVGID_13_"  style="overflow:visible;"/>
						</clipPath>
						<rect x="68.1" y="5.9" class="st6" width="30.7" height="40.7"/>
					</g>
				</g>
			</g>
		</g>
	</g>
</g>
<g>
	<defs>
		<path id="SVGID_15_" d="M118.6,38.2c4.3-2.9,6.4-7.1,6.4-12.8c0-3.6-1-6.6-3.1-9c-2-2.4-4.9-4-8.6-4.6c-1.4-0.3-3.6-0.4-6.8-0.4
			h-9.3V41h9.8C112,41,115.8,40.1,118.6,38.2z M106,17h1.5c2.1,0,3.8,0.4,5,1.2c2.1,1.4,3.2,3.9,3.2,7.4c0,3.5-0.8,6.1-2.5,7.8
			c-1.3,1.3-3.2,1.9-5.9,1.9H106V17z"/>
	</defs>
	<clipPath id="SVGID_16_">
		<use xlink:href="#SVGID_15_"  style="overflow:visible;"/>
	</clipPath>
	<g class="st7">
		<defs>
			<rect id="SVGID_17_" x="-120.4" y="-786.6" width="1280" height="1828"/>
		</defs>
		<clipPath id="SVGID_18_">
			<use xlink:href="#SVGID_17_"  style="overflow:visible;"/>
		</clipPath>
		<rect x="92.2" y="6.4" class="st8" width="37.8" height="39.6"/>
	</g>
</g>
<g>
	<defs>
		<rect id="SVGID_19_" x="37.6" y="10.9" width="122.7" height="51.2"/>
	</defs>
	<clipPath id="SVGID_20_">
		<use xlink:href="#SVGID_19_"  style="overflow:visible;"/>
	</clipPath>
	<g class="st9">
		<defs>
			<rect id="SVGID_21_" x="-120.4" y="-786.6" width="1280" height="1828"/>
		</defs>
		<clipPath id="SVGID_22_">
			<use xlink:href="#SVGID_21_"  style="overflow:visible;"/>
		</clipPath>
		<g class="st10">
			<g>
				<defs>
					<rect id="SVGID_23_" x="37.6" y="10.4" width="123" height="52"/>
				</defs>
				<clipPath id="SVGID_24_">
					<use xlink:href="#SVGID_23_"  style="overflow:visible;"/>
				</clipPath>
				<g class="st11">
					<defs>
						<rect id="SVGID_25_" x="128.4" y="11.4" width="8.8" height="29.6"/>
					</defs>
					<clipPath id="SVGID_26_">
						<use xlink:href="#SVGID_25_"  style="overflow:visible;"/>
					</clipPath>
					<g class="st12">
						<defs>
							<rect id="SVGID_27_" x="37.6" y="10.4" width="123" height="52"/>
						</defs>
						<clipPath id="SVGID_28_">
							<use xlink:href="#SVGID_27_"  style="overflow:visible;"/>
						</clipPath>
						<rect x="123.4" y="6.4" class="st13" width="18.8" height="39.6"/>
					</g>
				</g>
				<g class="st11">
					<defs>
						<rect id="SVGID_29_" x="62.1" y="47.9" width="1.1" height="5.5"/>
					</defs>
					<clipPath id="SVGID_30_">
						<use xlink:href="#SVGID_29_"  style="overflow:visible;"/>
					</clipPath>
					<g class="st14">
						<defs>
							<rect id="SVGID_31_" x="37.6" y="10.4" width="123" height="52"/>
						</defs>
						<clipPath id="SVGID_32_">
							<use xlink:href="#SVGID_31_"  style="overflow:visible;"/>
						</clipPath>
						<rect x="57.1" y="42.9" class="st15" width="11.1" height="15.5"/>
					</g>
				</g>
				<g class="st11">
					<defs>
						<path id="SVGID_33_" d="M66.5,49.4c-0.5,0-1,0.2-1.3,0.6v-0.5h-1v4h1v-2.1c0-0.3,0-0.5,0.1-0.7c0.1-0.4,0.4-0.5,0.8-0.5
							c0.3,0,0.5,0.1,0.6,0.3c0.1,0.2,0.1,0.4,0.1,0.7v2.3h1v-2.2c0-0.5,0-0.9-0.1-1.1C67.5,49.6,67.1,49.4,66.5,49.4"/>
					</defs>
					<clipPath id="SVGID_34_">
						<use xlink:href="#SVGID_33_"  style="overflow:visible;"/>
					</clipPath>
					<g class="st16">
						<defs>
							<rect id="SVGID_35_" x="37.6" y="10.4" width="123" height="52"/>
						</defs>
						<clipPath id="SVGID_36_">
							<use xlink:href="#SVGID_35_"  style="overflow:visible;"/>
						</clipPath>
						<rect x="59.1" y="44.4" class="st17" width="13.8" height="14"/>
					</g>
				</g>
				<g class="st11">
					<defs>
						<path id="SVGID_37_" d="M69.5,52.9c-0.3,0-0.5-0.1-0.8-0.4l-0.3,0.6c0.4,0.3,0.8,0.5,1.3,0.5c0.4,0,0.8-0.1,1.1-0.3
							c0.3-0.2,0.4-0.5,0.4-0.9c0-0.2-0.1-0.4-0.2-0.6c-0.1-0.2-0.4-0.4-0.8-0.7c-0.4-0.3-0.5-0.5-0.5-0.6c0-0.1,0-0.2,0.1-0.3
							C69.8,50,69.9,50,70,50c0.2,0,0.4,0.1,0.7,0.2l0.3-0.5c-0.3-0.2-0.7-0.3-1.1-0.3c-0.4,0-0.7,0.1-1,0.3
							c-0.3,0.2-0.4,0.5-0.4,0.8c0,0.2,0.1,0.5,0.3,0.7c0.1,0.1,0.3,0.3,0.6,0.5c0.3,0.2,0.5,0.4,0.6,0.5c0.1,0.1,0.1,0.2,0.1,0.3
							c0,0.1-0.1,0.3-0.2,0.4C69.8,52.9,69.6,52.9,69.5,52.9"/>
					</defs>
					<clipPath id="SVGID_38_">
						<use xlink:href="#SVGID_37_"  style="overflow:visible;"/>
					</clipPath>
					<g class="st18">
						<defs>
							<rect id="SVGID_39_" x="37.6" y="10.4" width="123" height="52"/>
						</defs>
						<clipPath id="SVGID_40_">
							<use xlink:href="#SVGID_39_"  style="overflow:visible;"/>
						</clipPath>
						<rect x="63.3" y="44.4" class="st19" width="12.8" height="14.1"/>
					</g>
				</g>
				<g class="st11">
					<defs>
						<path id="SVGID_41_" d="M71.7,52c0,0.5,0.1,0.8,0.2,1c0.2,0.3,0.5,0.5,1,0.5c0.3,0,0.7-0.1,1.1-0.3l-0.2-0.5
							c-0.2,0.1-0.3,0.1-0.5,0.1c-0.2,0-0.3-0.1-0.4-0.2c-0.1-0.2-0.1-0.4-0.1-0.8V50h1v-0.5h-1v-1.2l-1,0.2v1h-0.6V50h0.6V52z"/>
					</defs>
					<clipPath id="SVGID_42_">
						<use xlink:href="#SVGID_41_"  style="overflow:visible;"/>
					</clipPath>
					<g class="st20">
						<defs>
							<rect id="SVGID_43_" x="37.6" y="10.4" width="123" height="52"/>
						</defs>
						<clipPath id="SVGID_44_">
							<use xlink:href="#SVGID_43_"  style="overflow:visible;"/>
						</clipPath>
						<rect x="66.2" y="43.3" class="st21" width="12.8" height="15.2"/>
					</g>
				</g>
				<g class="st11">
					<defs>
						<rect id="SVGID_45_" x="74.3" y="49.5" width="1" height="4"/>
					</defs>
					<clipPath id="SVGID_46_">
						<use xlink:href="#SVGID_45_"  style="overflow:visible;"/>
					</clipPath>
					<g class="st22">
						<defs>
							<rect id="SVGID_47_" x="37.6" y="10.4" width="123" height="52"/>
						</defs>
						<clipPath id="SVGID_48_">
							<use xlink:href="#SVGID_47_"  style="overflow:visible;"/>
						</clipPath>
						<rect x="69.3" y="44.5" class="st23" width="11" height="14"/>
					</g>
				</g>
				<g class="st11">
					<defs>
						<path id="SVGID_49_" d="M75.3,47.8c-0.1-0.1-0.2-0.2-0.4-0.2c-0.2,0-0.3,0.1-0.4,0.2c-0.1,0.1-0.2,0.3-0.2,0.4
							c0,0.2,0.1,0.3,0.2,0.4c0.1,0.1,0.3,0.2,0.4,0.2c0.2,0,0.3-0.1,0.4-0.2c0.1-0.1,0.2-0.3,0.2-0.4
							C75.4,48.1,75.4,47.9,75.3,47.8"/>
					</defs>
					<clipPath id="SVGID_50_">
						<use xlink:href="#SVGID_49_"  style="overflow:visible;"/>
					</clipPath>
					<g class="st24">
						<defs>
							<rect id="SVGID_51_" x="37.6" y="10.4" width="123" height="52"/>
						</defs>
						<clipPath id="SVGID_52_">
							<use xlink:href="#SVGID_51_"  style="overflow:visible;"/>
						</clipPath>
						<rect x="69.2" y="42.7" class="st25" width="11.2" height="11.2"/>
					</g>
				</g>
				<g class="st11">
					<defs>
						<path id="SVGID_53_" d="M76.5,53.1c0.2,0.3,0.5,0.5,1,0.5c0.3,0,0.7-0.1,1.1-0.3l-0.2-0.5c-0.2,0.1-0.3,0.1-0.5,0.1
							c-0.2,0-0.3-0.1-0.4-0.2c-0.1-0.2-0.1-0.4-0.1-0.8V50h1v-0.5h-1v-1.2l-1,0.2v1h-0.6V50h0.6v2C76.3,52.5,76.4,52.9,76.5,53.1"
							/>
					</defs>
					<clipPath id="SVGID_54_">
						<use xlink:href="#SVGID_53_"  style="overflow:visible;"/>
					</clipPath>
					<g class="st26">
						<defs>
							<rect id="SVGID_55_" x="37.6" y="10.4" width="123" height="52"/>
						</defs>
						<clipPath id="SVGID_56_">
							<use xlink:href="#SVGID_55_"  style="overflow:visible;"/>
						</clipPath>
						<rect x="70.8" y="43.3" class="st27" width="12.8" height="15.2"/>
					</g>
				</g>
				<g class="st11">
					<defs>
						<path id="SVGID_57_" d="M82.5,53.4v-4h-1v2.1c0,0.3,0,0.6-0.1,0.7c-0.1,0.3-0.4,0.5-0.8,0.5c-0.3,0-0.5-0.1-0.6-0.3
							c-0.1-0.2-0.1-0.4-0.1-0.7v-2.3h-1v2.2c0,0.5,0,0.9,0.1,1.1c0.2,0.5,0.6,0.7,1.2,0.7c0.5,0,1-0.2,1.3-0.6v0.5H82.5z"/>
					</defs>
					<clipPath id="SVGID_58_">
						<use xlink:href="#SVGID_57_"  style="overflow:visible;"/>
					</clipPath>
					<g class="st28">
						<defs>
							<rect id="SVGID_59_" x="37.6" y="10.4" width="123" height="52"/>
						</defs>
						<clipPath id="SVGID_60_">
							<use xlink:href="#SVGID_59_"  style="overflow:visible;"/>
						</clipPath>
						<rect x="73.8" y="44.5" class="st29" width="13.7" height="14"/>
					</g>
				</g>
				<g class="st11">
					<defs>
						<path id="SVGID_61_" d="M83.7,53.1c0.2,0.3,0.5,0.5,1,0.5c0.3,0,0.7-0.1,1.1-0.3l-0.2-0.5c-0.2,0.1-0.3,0.1-0.5,0.1
							c-0.2,0-0.3-0.1-0.4-0.2c-0.1-0.2-0.1-0.4-0.1-0.8V50h1v-0.5h-1v-1.2l-1,0.2v1h-0.6V50h0.6v2C83.5,52.5,83.5,52.9,83.7,53.1"
							/>
					</defs>
					<clipPath id="SVGID_62_">
						<use xlink:href="#SVGID_61_"  style="overflow:visible;"/>
					</clipPath>
					<g class="st30">
						<defs>
							<rect id="SVGID_63_" x="37.6" y="10.4" width="123" height="52"/>
						</defs>
						<clipPath id="SVGID_64_">
							<use xlink:href="#SVGID_63_"  style="overflow:visible;"/>
						</clipPath>
						<rect x="77.9" y="43.3" class="st31" width="12.8" height="15.2"/>
					</g>
				</g>
				<g class="st11">
					<defs>
						<path id="SVGID_65_" d="M87.7,53.5c0.6,0,1.1-0.2,1.5-0.6c0.4-0.4,0.6-0.9,0.6-1.5c0-0.6-0.2-1.1-0.6-1.5
							c-0.4-0.4-0.9-0.6-1.5-0.6c-0.6,0-1.1,0.2-1.5,0.6c-0.4,0.4-0.6,0.9-0.6,1.5c0,0.6,0.2,1.1,0.6,1.5
							C86.6,53.3,87.1,53.5,87.7,53.5 M87,50.3c0.2-0.3,0.4-0.4,0.7-0.4c0.3,0,0.6,0.1,0.7,0.4c0.2,0.3,0.3,0.6,0.3,1.1
							c0,0.5-0.1,0.8-0.3,1.1c-0.2,0.3-0.4,0.4-0.7,0.4c-0.3,0-0.6-0.1-0.7-0.4c-0.2-0.3-0.3-0.6-0.3-1.1C86.8,51,86.9,50.6,87,50.3
							"/>
					</defs>
					<clipPath id="SVGID_66_">
						<use xlink:href="#SVGID_65_"  style="overflow:visible;"/>
					</clipPath>
					<g class="st32">
						<defs>
							<rect id="SVGID_67_" x="37.6" y="10.4" width="123" height="52"/>
						</defs>
						<clipPath id="SVGID_68_">
							<use xlink:href="#SVGID_67_"  style="overflow:visible;"/>
						</clipPath>
						<rect x="80.7" y="44.4" class="st33" width="14.1" height="14.1"/>
					</g>
				</g>
				<g class="st11">
					<defs>
						<path id="SVGID_69_" d="M93.8,48.5c0.3,0,0.6,0.1,0.9,0.3l0.4-0.6c-0.4-0.3-0.9-0.5-1.4-0.5c-0.5,0-0.9,0.1-1.3,0.4
							c-0.3,0.3-0.5,0.6-0.5,1c0,0.4,0.2,0.8,0.7,1.2c0.4,0.3,0.7,0.6,0.9,0.7c0.4,0.4,0.6,0.7,0.6,0.9c0,0.2-0.1,0.4-0.2,0.5
							c-0.2,0.1-0.4,0.2-0.6,0.2c-0.4,0-0.7-0.1-1.1-0.4L91.7,53c0.5,0.3,1,0.5,1.6,0.5c0.6,0,1-0.1,1.4-0.4
							c0.4-0.3,0.5-0.7,0.5-1.1c0-0.5-0.3-1-0.8-1.4c-0.4-0.4-0.7-0.6-0.8-0.7c-0.3-0.3-0.5-0.5-0.5-0.7c0-0.2,0.1-0.3,0.2-0.4
							C93.4,48.6,93.6,48.5,93.8,48.5"/>
					</defs>
					<clipPath id="SVGID_70_">
						<use xlink:href="#SVGID_69_"  style="overflow:visible;"/>
					</clipPath>
					<g class="st34">
						<defs>
							<rect id="SVGID_71_" x="37.6" y="10.4" width="123" height="52"/>
						</defs>
						<clipPath id="SVGID_72_">
							<use xlink:href="#SVGID_71_"  style="overflow:visible;"/>
						</clipPath>
						<rect x="86.7" y="42.8" class="st35" width="13.6" height="15.7"/>
					</g>
				</g>
				<g class="st11">
					<defs>
						<path id="SVGID_73_" d="M98.5,53.4h1v-4h-1v2.1c0,0.3,0,0.6-0.1,0.7c-0.1,0.3-0.4,0.5-0.8,0.5c-0.3,0-0.5-0.1-0.6-0.3
							c-0.1-0.2-0.1-0.4-0.1-0.7v-2.3h-1v2.2c0,0.5,0,0.9,0.1,1.1c0.2,0.5,0.6,0.7,1.2,0.7c0.5,0,1-0.2,1.3-0.6V53.4z"/>
					</defs>
					<clipPath id="SVGID_74_">
						<use xlink:href="#SVGID_73_"  style="overflow:visible;"/>
					</clipPath>
					<g class="st36">
						<defs>
							<rect id="SVGID_75_" x="37.6" y="10.4" width="123" height="52"/>
						</defs>
						<clipPath id="SVGID_76_">
							<use xlink:href="#SVGID_75_"  style="overflow:visible;"/>
						</clipPath>
						<rect x="90.8" y="44.5" class="st37" width="13.7" height="14"/>
					</g>
				</g>
				<g class="st11">
					<defs>
						<path id="SVGID_77_" d="M104.5,51.4c0-0.6-0.2-1.1-0.5-1.4c-0.3-0.4-0.7-0.5-1.3-0.5c-0.5,0-1,0.2-1.3,0.7v-0.6h-1v5.9h1v-2.5
							c0.4,0.4,0.8,0.6,1.2,0.6c0.5,0,1-0.2,1.3-0.6C104.3,52.5,104.5,52,104.5,51.4 M103.1,52.4c-0.2,0.3-0.4,0.5-0.8,0.5
							c-0.3,0-0.6-0.1-0.7-0.4c-0.2-0.3-0.3-0.6-0.3-1c0-0.4,0.1-0.8,0.3-1.1c0.2-0.3,0.4-0.4,0.7-0.4c0.3,0,0.5,0.1,0.7,0.4
							c0.2,0.3,0.3,0.6,0.3,1C103.3,51.8,103.3,52.1,103.1,52.4"/>
					</defs>
					<clipPath id="SVGID_78_">
						<use xlink:href="#SVGID_77_"  style="overflow:visible;"/>
					</clipPath>
					<g class="st38">
						<defs>
							<rect id="SVGID_79_" x="37.6" y="10.4" width="123" height="52"/>
						</defs>
						<clipPath id="SVGID_80_">
							<use xlink:href="#SVGID_79_"  style="overflow:visible;"/>
						</clipPath>
						<rect x="95.4" y="44.4" class="st39" width="14.1" height="16"/>
					</g>
				</g>
				<g class="st11">
					<defs>
						<path id="SVGID_81_" d="M108.3,51.5c0.1,0,0.1-0.1,0.1-0.1c0-0.5-0.1-0.9-0.2-1.2c-0.3-0.6-0.7-0.9-1.5-0.9
							c-0.6,0-1,0.2-1.4,0.5c-0.4,0.4-0.6,0.9-0.6,1.5c0,0.7,0.2,1.2,0.7,1.6c0.4,0.4,0.9,0.5,1.4,0.5c0.5,0,1-0.1,1.5-0.4l-0.3-0.5
							c-0.3,0.2-0.7,0.3-1,0.3c-0.4,0-0.6-0.1-0.9-0.3c-0.2-0.2-0.3-0.5-0.3-0.9h2.4C108.2,51.5,108.2,51.5,108.3,51.5z M105.8,51
							c0-0.7,0.3-1.1,0.9-1.1c0.5,0,0.7,0.3,0.8,0.9c0,0.1,0,0.1,0,0.2H105.8z"/>
					</defs>
					<clipPath id="SVGID_82_">
						<use xlink:href="#SVGID_81_"  style="overflow:visible;"/>
					</clipPath>
					<g class="st40">
						<defs>
							<rect id="SVGID_83_" x="37.6" y="10.4" width="123" height="52"/>
						</defs>
						<clipPath id="SVGID_84_">
							<use xlink:href="#SVGID_83_"  style="overflow:visible;"/>
						</clipPath>
						<rect x="99.7" y="44.4" class="st41" width="13.7" height="14.1"/>
					</g>
				</g>
				<g class="st11">
					<defs>
						<path id="SVGID_85_" d="M110.1,49.9l-0.1,0.3v-0.7h-1v4h1v-1.7c0-0.4,0-0.8,0.1-0.9c0.1-0.3,0.3-0.5,0.6-0.5
							c0.1,0,0.3,0.1,0.5,0.2l0.4-0.8c-0.3-0.2-0.5-0.4-0.7-0.4C110.6,49.4,110.3,49.5,110.1,49.9"/>
					</defs>
					<clipPath id="SVGID_86_">
						<use xlink:href="#SVGID_85_"  style="overflow:visible;"/>
					</clipPath>
					<g class="st42">
						<defs>
							<rect id="SVGID_87_" x="37.6" y="10.4" width="123" height="52"/>
						</defs>
						<clipPath id="SVGID_88_">
							<use xlink:href="#SVGID_87_"  style="overflow:visible;"/>
						</clipPath>
						<rect x="103.9" y="44.4" class="st43" width="12.6" height="14"/>
					</g>
				</g>
				<g class="st11">
					<defs>
						<rect id="SVGID_89_" x="111.8" y="49.5" width="1" height="4"/>
					</defs>
					<clipPath id="SVGID_90_">
						<use xlink:href="#SVGID_89_"  style="overflow:visible;"/>
					</clipPath>
					<g class="st44">
						<defs>
							<rect id="SVGID_91_" x="37.6" y="10.4" width="123" height="52"/>
						</defs>
						<clipPath id="SVGID_92_">
							<use xlink:href="#SVGID_91_"  style="overflow:visible;"/>
						</clipPath>
						<rect x="106.8" y="44.5" class="st45" width="11" height="14"/>
					</g>
				</g>
				<g class="st11">
					<defs>
						<path id="SVGID_93_" d="M112.3,47.7c-0.2,0-0.3,0.1-0.4,0.2c-0.1,0.1-0.2,0.3-0.2,0.4c0,0.2,0.1,0.3,0.2,0.4
							c0.1,0.1,0.3,0.2,0.4,0.2c0.2,0,0.3-0.1,0.4-0.2c0.1-0.1,0.2-0.3,0.2-0.4c0-0.2-0.1-0.3-0.2-0.4S112.5,47.7,112.3,47.7"/>
					</defs>
					<clipPath id="SVGID_94_">
						<use xlink:href="#SVGID_93_"  style="overflow:visible;"/>
					</clipPath>
					<g class="st46">
						<defs>
							<rect id="SVGID_95_" x="37.6" y="10.4" width="123" height="52"/>
						</defs>
						<clipPath id="SVGID_96_">
							<use xlink:href="#SVGID_95_"  style="overflow:visible;"/>
						</clipPath>
						<rect x="106.7" y="42.7" class="st47" width="11.2" height="11.2"/>
					</g>
				</g>
				<g class="st11">
					<defs>
						<path id="SVGID_97_" d="M114,49.9c-0.4,0.4-0.6,0.9-0.6,1.5c0,0.6,0.2,1.1,0.6,1.5c0.4,0.4,0.9,0.6,1.5,0.6
							c0.6,0,1.1-0.2,1.5-0.6c0.4-0.4,0.6-0.9,0.6-1.5c0-0.6-0.2-1.1-0.6-1.5c-0.4-0.4-0.9-0.6-1.5-0.6
							C114.9,49.4,114.4,49.6,114,49.9 M116.2,50.3c0.2,0.3,0.3,0.6,0.3,1.1c0,0.5-0.1,0.8-0.3,1.1c-0.2,0.3-0.4,0.4-0.7,0.4
							c-0.3,0-0.6-0.1-0.7-0.4c-0.2-0.3-0.3-0.6-0.3-1.1c0-0.4,0.1-0.8,0.3-1.1c0.2-0.3,0.4-0.4,0.7-0.4
							C115.7,49.9,116,50.1,116.2,50.3"/>
					</defs>
					<clipPath id="SVGID_98_">
						<use xlink:href="#SVGID_97_"  style="overflow:visible;"/>
					</clipPath>
					<g class="st48">
						<defs>
							<rect id="SVGID_99_" x="37.6" y="10.4" width="123" height="52"/>
						</defs>
						<clipPath id="SVGID_100_">
							<use xlink:href="#SVGID_99_"  style="overflow:visible;"/>
						</clipPath>
						<rect x="108.4" y="44.4" class="st49" width="14.1" height="14.1"/>
					</g>
				</g>
				<g class="st11">
					<defs>
						<path id="SVGID_101_" d="M118,49.5v4h1v-1.7c0-0.4,0-0.8,0.1-0.9c0.1-0.3,0.3-0.5,0.6-0.5c0.1,0,0.3,0.1,0.5,0.2l0.4-0.8
							c-0.3-0.2-0.5-0.4-0.7-0.4c-0.3,0-0.5,0.2-0.7,0.5l-0.1,0.3v-0.7H118z"/>
					</defs>
					<clipPath id="SVGID_102_">
						<use xlink:href="#SVGID_101_"  style="overflow:visible;"/>
					</clipPath>
					<g class="st50">
						<defs>
							<rect id="SVGID_103_" x="37.6" y="10.4" width="123" height="52"/>
						</defs>
						<clipPath id="SVGID_104_">
							<use xlink:href="#SVGID_103_"  style="overflow:visible;"/>
						</clipPath>
						<rect x="113" y="44.4" class="st51" width="12.6" height="14"/>
					</g>
				</g>
				<g class="st11">
					<defs>
						<path id="SVGID_105_" d="M123.5,50v-0.6h-1v5.9h1v-2.5c0.4,0.4,0.8,0.6,1.2,0.6c0.5,0,1-0.2,1.3-0.6c0.4-0.4,0.5-0.9,0.5-1.5
							c0-0.6-0.2-1.1-0.5-1.4c-0.3-0.4-0.7-0.5-1.3-0.5C124.3,49.4,123.8,49.6,123.5,50 M125.2,50.4c0.2,0.3,0.3,0.6,0.3,1
							c0,0.4-0.1,0.7-0.2,1c-0.2,0.3-0.4,0.5-0.8,0.5c-0.3,0-0.6-0.1-0.7-0.4c-0.2-0.3-0.3-0.6-0.3-1c0-0.4,0.1-0.8,0.3-1.1
							c0.2-0.3,0.4-0.4,0.7-0.4C124.8,50,125,50.1,125.2,50.4"/>
					</defs>
					<clipPath id="SVGID_106_">
						<use xlink:href="#SVGID_105_"  style="overflow:visible;"/>
					</clipPath>
					<g class="st52">
						<defs>
							<rect id="SVGID_107_" x="37.6" y="10.4" width="123" height="52"/>
						</defs>
						<clipPath id="SVGID_108_">
							<use xlink:href="#SVGID_107_"  style="overflow:visible;"/>
						</clipPath>
						<rect x="117.5" y="44.4" class="st53" width="14.1" height="16"/>
					</g>
				</g>
				<g class="st11">
					<defs>
						<path id="SVGID_109_" d="M127.5,51.2c-0.5,0.3-0.7,0.7-0.7,1.1c0,0.3,0.1,0.6,0.3,0.8c0.2,0.2,0.5,0.3,0.8,0.3
							c0.5,0,0.9-0.2,1.3-0.6c0,0.2,0,0.4,0.1,0.5h1.1c-0.1-0.3-0.2-0.7-0.2-1.3v-1.1c0-0.3,0-0.6-0.1-0.8c0-0.1-0.1-0.3-0.2-0.4
							c-0.3-0.4-0.7-0.5-1.3-0.5c-0.6,0-1.1,0.2-1.6,0.5l0.3,0.5c0.3-0.3,0.7-0.4,1-0.4c0.4,0,0.7,0.2,0.8,0.7
							c-0.3,0.1-0.5,0.1-0.7,0.2C128.1,50.9,127.8,51.1,127.5,51.2 M129.2,51.3v0.4c0,0.2,0,0.4-0.1,0.6c0,0.2-0.1,0.3-0.3,0.4
							c-0.2,0.1-0.3,0.2-0.5,0.2c-0.2,0-0.3-0.1-0.4-0.2c-0.1-0.1-0.2-0.3-0.2-0.4c0-0.4,0.3-0.7,1-0.8
							C129,51.3,129.1,51.3,129.2,51.3"/>
					</defs>
					<clipPath id="SVGID_110_">
						<use xlink:href="#SVGID_109_"  style="overflow:visible;"/>
					</clipPath>
					<g class="st54">
						<defs>
							<rect id="SVGID_111_" x="37.6" y="10.4" width="123" height="52"/>
						</defs>
						<clipPath id="SVGID_112_">
							<use xlink:href="#SVGID_111_"  style="overflow:visible;"/>
						</clipPath>
						<rect x="121.8" y="44.4" class="st55" width="13.6" height="14.1"/>
					</g>
				</g>
				<g class="st11">
					<defs>
						<path id="SVGID_113_" d="M132.7,50.3c0.1,0,0.3,0.1,0.5,0.2l0.4-0.8c-0.3-0.2-0.5-0.4-0.7-0.4c-0.3,0-0.5,0.2-0.7,0.5
							l-0.1,0.3v-0.7h-1v4h1v-1.7c0-0.4,0-0.8,0.1-0.9C132.3,50.5,132.5,50.3,132.7,50.3"/>
					</defs>
					<clipPath id="SVGID_114_">
						<use xlink:href="#SVGID_113_"  style="overflow:visible;"/>
					</clipPath>
					<g class="st56">
						<defs>
							<rect id="SVGID_115_" x="37.6" y="10.4" width="123" height="52"/>
						</defs>
						<clipPath id="SVGID_116_">
							<use xlink:href="#SVGID_115_"  style="overflow:visible;"/>
						</clipPath>
						<rect x="126" y="44.4" class="st57" width="12.6" height="14"/>
					</g>
				</g>
				<g class="st11">
					<defs>
						<path id="SVGID_117_" d="M134.2,51.2c-0.5,0.3-0.7,0.7-0.7,1.1c0,0.3,0.1,0.6,0.3,0.8c0.2,0.2,0.5,0.3,0.8,0.3
							c0.5,0,0.9-0.2,1.3-0.6c0,0.2,0,0.4,0.1,0.5h1.1c-0.1-0.3-0.2-0.7-0.2-1.3v-1.1c0-0.3,0-0.6-0.1-0.8c0-0.1-0.1-0.3-0.2-0.4
							c-0.3-0.4-0.7-0.5-1.3-0.5c-0.6,0-1.1,0.2-1.6,0.5l0.3,0.5c0.3-0.3,0.7-0.4,1-0.4c0.4,0,0.7,0.2,0.8,0.7
							c-0.3,0.1-0.5,0.1-0.7,0.2C134.8,50.9,134.4,51.1,134.2,51.2 M135.9,51.3v0.4c0,0.2,0,0.4-0.1,0.6c0,0.2-0.1,0.3-0.3,0.4
							c-0.2,0.1-0.3,0.2-0.5,0.2c-0.2,0-0.3-0.1-0.4-0.2c-0.1-0.1-0.2-0.3-0.2-0.4c0-0.4,0.3-0.7,1-0.8
							C135.6,51.3,135.8,51.3,135.9,51.3"/>
					</defs>
					<clipPath id="SVGID_118_">
						<use xlink:href="#SVGID_117_"  style="overflow:visible;"/>
					</clipPath>
					<g class="st58">
						<defs>
							<rect id="SVGID_119_" x="37.6" y="10.4" width="123" height="52"/>
						</defs>
						<clipPath id="SVGID_120_">
							<use xlink:href="#SVGID_119_"  style="overflow:visible;"/>
						</clipPath>
						<rect x="128.4" y="44.4" class="st59" width="13.6" height="14.1"/>
					</g>
				</g>
				<g class="st11">
					<defs>
						<path id="SVGID_121_" d="M65.3,60.1c0.1,0,0.1-0.1,0.1-0.1c0-0.5-0.1-0.9-0.2-1.2C65,58.3,64.5,58,63.8,58
							c-0.6,0-1,0.2-1.4,0.5c-0.4,0.4-0.6,0.9-0.6,1.5c0,0.7,0.2,1.2,0.7,1.6c0.4,0.4,0.9,0.5,1.4,0.5c0.5,0,1-0.1,1.5-0.4l-0.3-0.5
							c-0.3,0.2-0.7,0.3-1,0.3c-0.4,0-0.6-0.1-0.9-0.3c-0.2-0.2-0.3-0.5-0.3-0.9h2.4C65.2,60.1,65.3,60.1,65.3,60.1z M62.9,59.6
							c0-0.7,0.3-1.1,0.9-1.1c0.5,0,0.7,0.3,0.8,0.9c0,0.1,0,0.1,0,0.2H62.9z"/>
					</defs>
					<clipPath id="SVGID_122_">
						<use xlink:href="#SVGID_121_"  style="overflow:visible;"/>
					</clipPath>
					<g class="st60">
						<defs>
							<rect id="SVGID_123_" x="37.6" y="10.4" width="123" height="52"/>
						</defs>
						<clipPath id="SVGID_124_">
							<use xlink:href="#SVGID_123_"  style="overflow:visible;"/>
						</clipPath>
						<rect x="56.8" y="53" class="st61" width="13.7" height="14.1"/>
					</g>
				</g>
				<g class="st11">
					<defs>
						<rect id="SVGID_125_" x="66" y="56.2" width="1" height="5.8"/>
					</defs>
					<clipPath id="SVGID_126_">
						<use xlink:href="#SVGID_125_"  style="overflow:visible;"/>
					</clipPath>
					<g class="st62">
						<defs>
							<rect id="SVGID_127_" x="37.6" y="10.4" width="123" height="52"/>
						</defs>
						<clipPath id="SVGID_128_">
							<use xlink:href="#SVGID_127_"  style="overflow:visible;"/>
						</clipPath>
						<rect x="61" y="51.2" class="st63" width="11" height="15.8"/>
					</g>
				</g>
				<g class="st11">
					<defs>
						<path id="SVGID_129_" d="M73.1,56.8c-0.3-0.1-0.5-0.2-0.8-0.3c-0.3-0.1-0.7-0.1-1.2-0.1h-1.5V62h1.5c0.9,0,1.6-0.1,2.1-0.4
							c0.9-0.5,1.3-1.3,1.3-2.5C74.5,58.1,74,57.3,73.1,56.8 M72.7,60.9c-0.2,0.2-0.4,0.3-0.6,0.3c-0.2,0.1-0.5,0.1-0.9,0.1h-0.4v-4
							h0.5c0.6,0,1,0.1,1.3,0.2c0.6,0.3,0.8,0.9,0.8,1.7C73.3,59.9,73.1,60.5,72.7,60.9"/>
					</defs>
					<clipPath id="SVGID_130_">
						<use xlink:href="#SVGID_129_"  style="overflow:visible;"/>
					</clipPath>
					<g class="st64">
						<defs>
							<rect id="SVGID_131_" x="37.6" y="10.4" width="123" height="52"/>
						</defs>
						<clipPath id="SVGID_132_">
							<use xlink:href="#SVGID_131_"  style="overflow:visible;"/>
						</clipPath>
						<rect x="64.6" y="51.5" class="st65" width="14.9" height="15.5"/>
					</g>
				</g>
				<g class="st11">
					<defs>
						<path id="SVGID_133_" d="M76.9,61.4c-0.4,0-0.6-0.1-0.9-0.3c-0.2-0.2-0.3-0.5-0.3-0.9h2.4c0,0,0,0,0.1-0.1
							c0.1,0,0.1-0.1,0.1-0.1c0-0.5-0.1-0.9-0.2-1.2c-0.3-0.6-0.7-0.9-1.5-0.9c-0.6,0-1,0.2-1.4,0.5c-0.4,0.4-0.6,0.9-0.6,1.5
							c0,0.7,0.2,1.2,0.7,1.6c0.4,0.4,0.9,0.5,1.4,0.5c0.5,0,1-0.1,1.5-0.4l-0.3-0.5C77.6,61.3,77.2,61.4,76.9,61.4 M76.6,58.5
							c0.5,0,0.7,0.3,0.8,0.9c0,0.1,0,0.1,0,0.2h-1.6C75.7,58.9,76,58.5,76.6,58.5"/>
					</defs>
					<clipPath id="SVGID_134_">
						<use xlink:href="#SVGID_133_"  style="overflow:visible;"/>
					</clipPath>
					<g class="st66">
						<defs>
							<rect id="SVGID_135_" x="37.6" y="10.4" width="123" height="52"/>
						</defs>
						<clipPath id="SVGID_136_">
							<use xlink:href="#SVGID_135_"  style="overflow:visible;"/>
						</clipPath>
						<rect x="69.6" y="53" class="st67" width="13.7" height="14.1"/>
					</g>
				</g>
				<g class="st11">
					<defs>
						<path id="SVGID_137_" d="M80.1,59.6c-0.4-0.3-0.5-0.5-0.5-0.6c0-0.1,0-0.2,0.1-0.3c0.1-0.1,0.2-0.1,0.3-0.1
							c0.2,0,0.4,0.1,0.7,0.2l0.3-0.5c-0.3-0.2-0.7-0.3-1.1-0.3c-0.4,0-0.7,0.1-1,0.3c-0.3,0.2-0.4,0.5-0.4,0.8
							c0,0.2,0.1,0.5,0.3,0.7c0.1,0.1,0.3,0.3,0.6,0.5c0.3,0.2,0.5,0.4,0.6,0.5C80,60.8,80,60.9,80,61c0,0.1-0.1,0.3-0.2,0.4
							c-0.1,0.1-0.2,0.1-0.4,0.1c-0.3,0-0.5-0.1-0.8-0.4l-0.3,0.6c0.4,0.3,0.8,0.5,1.3,0.5c0.4,0,0.8-0.1,1.1-0.3
							c0.3-0.2,0.4-0.5,0.4-0.9c0-0.2-0.1-0.4-0.2-0.6C80.7,60.1,80.5,59.9,80.1,59.6"/>
					</defs>
					<clipPath id="SVGID_138_">
						<use xlink:href="#SVGID_137_"  style="overflow:visible;"/>
					</clipPath>
					<g class="st68">
						<defs>
							<rect id="SVGID_139_" x="37.6" y="10.4" width="123" height="52"/>
						</defs>
						<clipPath id="SVGID_140_">
							<use xlink:href="#SVGID_139_"  style="overflow:visible;"/>
						</clipPath>
						<rect x="73.3" y="53" class="st69" width="12.8" height="14.1"/>
					</g>
				</g>
				<g class="st11">
					<defs>
						<path id="SVGID_141_" d="M84.5,59.7c0-0.3,0-0.6-0.1-0.8c0-0.1-0.1-0.3-0.2-0.4C84,58.1,83.6,58,82.9,58
							c-0.6,0-1.1,0.2-1.6,0.5l0.3,0.5c0.3-0.3,0.7-0.4,1-0.4c0.4,0,0.7,0.2,0.8,0.7c-0.3,0.1-0.5,0.1-0.7,0.2
							c-0.4,0.1-0.8,0.2-1,0.4c-0.5,0.3-0.7,0.7-0.7,1.1c0,0.3,0.1,0.6,0.3,0.8c0.2,0.2,0.5,0.3,0.8,0.3c0.5,0,0.9-0.2,1.3-0.6
							c0,0.2,0,0.4,0.1,0.5h1.1c-0.1-0.3-0.2-0.7-0.2-1.3V59.7z M83.5,60.2c0,0.2,0,0.4-0.1,0.6c0,0.2-0.1,0.3-0.3,0.4
							c-0.2,0.1-0.3,0.2-0.5,0.2c-0.2,0-0.3-0.1-0.4-0.2c-0.1-0.1-0.2-0.3-0.2-0.4c0-0.4,0.3-0.7,1-0.8c0.2,0,0.3-0.1,0.4-0.1V60.2z
							"/>
					</defs>
					<clipPath id="SVGID_142_">
						<use xlink:href="#SVGID_141_"  style="overflow:visible;"/>
					</clipPath>
					<g class="st70">
						<defs>
							<rect id="SVGID_143_" x="37.6" y="10.4" width="123" height="52"/>
						</defs>
						<clipPath id="SVGID_144_">
							<use xlink:href="#SVGID_143_"  style="overflow:visible;"/>
						</clipPath>
						<rect x="76.1" y="53" class="st71" width="13.6" height="14.1"/>
					</g>
				</g>
				<g class="st11">
					<defs>
						<path id="SVGID_145_" d="M89.6,58c-0.3,0-0.5,0.2-0.7,0.5l-0.1,0.3v-0.7h-1v0.2C87.4,58.1,87.2,58,87,58
							c-0.3,0-0.5,0.2-0.7,0.5l-0.1,0.3v-0.7h-1v4h1v-1.7c0-0.4,0-0.8,0.1-0.9c0.1-0.3,0.3-0.5,0.6-0.5c0.1,0,0.3,0.1,0.5,0.2
							l0.3-0.6V62h1v-1.7c0-0.4,0-0.8,0.1-0.9c0.1-0.3,0.3-0.5,0.6-0.5c0.1,0,0.3,0.1,0.5,0.2l0.4-0.8C90,58.1,89.8,58,89.6,58"/>
					</defs>
					<clipPath id="SVGID_146_">
						<use xlink:href="#SVGID_145_"  style="overflow:visible;"/>
					</clipPath>
					<g class="st72">
						<defs>
							<rect id="SVGID_147_" x="37.6" y="10.4" width="123" height="52"/>
						</defs>
						<clipPath id="SVGID_148_">
							<use xlink:href="#SVGID_147_"  style="overflow:visible;"/>
						</clipPath>
						<rect x="80.1" y="53" class="st73" width="15.2" height="14"/>
					</g>
				</g>
				<g class="st11">
					<defs>
						<path id="SVGID_149_" d="M92,58c-0.6,0-1.1,0.2-1.5,0.6C90.1,58.9,90,59.4,90,60c0,0.6,0.2,1.1,0.6,1.5
							c0.4,0.4,0.9,0.6,1.5,0.6c0.6,0,1.1-0.2,1.5-0.6c0.4-0.4,0.6-0.9,0.6-1.5c0-0.6-0.2-1.1-0.6-1.5C93.1,58.2,92.6,58,92,58
							 M92.7,61.1c-0.2,0.3-0.4,0.4-0.7,0.4c-0.3,0-0.6-0.1-0.7-0.4C91.1,60.9,91,60.5,91,60c0-0.4,0.1-0.8,0.3-1.1
							c0.2-0.3,0.4-0.4,0.7-0.4c0.3,0,0.6,0.1,0.7,0.4c0.2,0.3,0.3,0.6,0.3,1.1C93,60.5,92.9,60.9,92.7,61.1"/>
					</defs>
					<clipPath id="SVGID_150_">
						<use xlink:href="#SVGID_149_"  style="overflow:visible;"/>
					</clipPath>
					<g class="st74">
						<defs>
							<rect id="SVGID_151_" x="37.6" y="10.4" width="123" height="52"/>
						</defs>
						<clipPath id="SVGID_152_">
							<use xlink:href="#SVGID_151_"  style="overflow:visible;"/>
						</clipPath>
						<rect x="85" y="53" class="st75" width="14.1" height="14.1"/>
					</g>
				</g>
				<g class="st11">
					<defs>
						<rect id="SVGID_153_" x="94.4" y="56.2" width="1" height="5.8"/>
					</defs>
					<clipPath id="SVGID_154_">
						<use xlink:href="#SVGID_153_"  style="overflow:visible;"/>
					</clipPath>
					<g class="st76">
						<defs>
							<rect id="SVGID_155_" x="37.6" y="10.4" width="123" height="52"/>
						</defs>
						<clipPath id="SVGID_156_">
							<use xlink:href="#SVGID_155_"  style="overflow:visible;"/>
						</clipPath>
						<rect x="89.4" y="51.2" class="st77" width="11" height="15.8"/>
					</g>
				</g>
				<g class="st11">
					<defs>
						<rect id="SVGID_157_" x="96" y="56.2" width="1" height="5.8"/>
					</defs>
					<clipPath id="SVGID_158_">
						<use xlink:href="#SVGID_157_"  style="overflow:visible;"/>
					</clipPath>
					<g class="st78">
						<defs>
							<rect id="SVGID_159_" x="37.6" y="10.4" width="123" height="52"/>
						</defs>
						<clipPath id="SVGID_160_">
							<use xlink:href="#SVGID_159_"  style="overflow:visible;"/>
						</clipPath>
						<rect x="91" y="51.2" class="st79" width="11" height="15.8"/>
					</g>
				</g>
				<g class="st11">
					<defs>
						<path id="SVGID_161_" d="M99.5,58c-0.6,0-1.1,0.2-1.5,0.6c-0.4,0.4-0.6,0.9-0.6,1.5c0,0.6,0.2,1.1,0.6,1.5
							c0.4,0.4,0.9,0.6,1.5,0.6c0.6,0,1.1-0.2,1.5-0.6c0.4-0.4,0.6-0.9,0.6-1.5c0-0.6-0.2-1.1-0.6-1.5C100.6,58.2,100.1,58,99.5,58
							 M100.2,61.1c-0.2,0.3-0.4,0.4-0.7,0.4c-0.3,0-0.6-0.1-0.7-0.4c-0.2-0.3-0.3-0.6-0.3-1.1c0-0.4,0.1-0.8,0.3-1.1
							c0.2-0.3,0.4-0.4,0.7-0.4c0.3,0,0.6,0.1,0.7,0.4c0.2,0.3,0.3,0.6,0.3,1.1C100.4,60.5,100.4,60.9,100.2,61.1"/>
					</defs>
					<clipPath id="SVGID_162_">
						<use xlink:href="#SVGID_161_"  style="overflow:visible;"/>
					</clipPath>
					<g class="st80">
						<defs>
							<rect id="SVGID_163_" x="37.6" y="10.4" width="123" height="52"/>
						</defs>
						<clipPath id="SVGID_164_">
							<use xlink:href="#SVGID_163_"  style="overflow:visible;"/>
						</clipPath>
						<rect x="92.4" y="53" class="st81" width="14.1" height="14.1"/>
					</g>
				</g>
				<g class="st11">
					<defs>
						<path id="SVGID_165_" d="M106.4,58.6c-0.3-0.4-0.7-0.6-1.2-0.6c-0.5,0-1,0.2-1.3,0.6c-0.4,0.4-0.5,0.9-0.5,1.5
							c0,0.6,0.1,1.1,0.4,1.4c0.3,0.4,0.8,0.6,1.3,0.6c0.5,0,0.9-0.2,1.3-0.7V62h1v-5.8h-1V58.6z M106.1,61.1
							c-0.2,0.3-0.4,0.4-0.7,0.4c-0.3,0-0.5-0.1-0.7-0.4c-0.2-0.3-0.3-0.6-0.3-1.1c0-0.4,0.1-0.8,0.3-1c0.2-0.2,0.4-0.4,0.7-0.4
							c0.3,0,0.6,0.1,0.7,0.4c0.2,0.3,0.3,0.6,0.3,1C106.4,60.4,106.3,60.8,106.1,61.1z"/>
					</defs>
					<clipPath id="SVGID_166_">
						<use xlink:href="#SVGID_165_"  style="overflow:visible;"/>
					</clipPath>
					<g class="st82">
						<defs>
							<rect id="SVGID_167_" x="37.6" y="10.4" width="123" height="52"/>
						</defs>
						<clipPath id="SVGID_168_">
							<use xlink:href="#SVGID_167_"  style="overflow:visible;"/>
						</clipPath>
						<rect x="98.3" y="51.2" class="st83" width="14.1" height="15.9"/>
					</g>
				</g>
				<g class="st11">
					<defs>
						<path id="SVGID_169_" d="M111.3,60.1c0.1,0,0.1-0.1,0.1-0.1c0-0.5-0.1-0.9-0.2-1.2c-0.3-0.6-0.7-0.9-1.5-0.9
							c-0.6,0-1,0.2-1.4,0.5c-0.4,0.4-0.6,0.9-0.6,1.5c0,0.7,0.2,1.2,0.7,1.6c0.4,0.4,0.9,0.5,1.4,0.5c0.5,0,1-0.1,1.5-0.4l-0.3-0.5
							c-0.3,0.2-0.7,0.3-1,0.3c-0.4,0-0.6-0.1-0.9-0.3c-0.2-0.2-0.3-0.5-0.3-0.9h2.4C111.2,60.1,111.2,60.1,111.3,60.1z M108.8,59.6
							c0-0.7,0.3-1.1,0.9-1.1c0.5,0,0.7,0.3,0.8,0.9c0,0.1,0,0.1,0,0.2H108.8z"/>
					</defs>
					<clipPath id="SVGID_170_">
						<use xlink:href="#SVGID_169_"  style="overflow:visible;"/>
					</clipPath>
					<g class="st84">
						<defs>
							<rect id="SVGID_171_" x="37.6" y="10.4" width="123" height="52"/>
						</defs>
						<clipPath id="SVGID_172_">
							<use xlink:href="#SVGID_171_"  style="overflow:visible;"/>
						</clipPath>
						<rect x="102.7" y="53" class="st85" width="13.7" height="14.1"/>
					</g>
				</g>
				<g class="st11">
					<defs>
						<rect id="SVGID_173_" x="113.3" y="56.5" width="1.1" height="5.5"/>
					</defs>
					<clipPath id="SVGID_174_">
						<use xlink:href="#SVGID_173_"  style="overflow:visible;"/>
					</clipPath>
					<g class="st86">
						<defs>
							<rect id="SVGID_175_" x="37.6" y="10.4" width="123" height="52"/>
						</defs>
						<clipPath id="SVGID_176_">
							<use xlink:href="#SVGID_175_"  style="overflow:visible;"/>
						</clipPath>
						<rect x="108.3" y="51.5" class="st87" width="11.1" height="15.5"/>
					</g>
				</g>
				<g class="st11">
					<defs>
						<path id="SVGID_177_" d="M117.4,58c-0.5,0-1,0.2-1.3,0.6v-0.5h-1v4h1v-2.1c0-0.3,0-0.5,0.1-0.7c0.1-0.4,0.4-0.5,0.8-0.5
							c0.3,0,0.5,0.1,0.6,0.3c0.1,0.2,0.1,0.4,0.1,0.7V62h1v-2.2c0-0.5,0-0.9-0.1-1.1C118.5,58.2,118,58,117.4,58"/>
					</defs>
					<clipPath id="SVGID_178_">
						<use xlink:href="#SVGID_177_"  style="overflow:visible;"/>
					</clipPath>
					<g class="st88">
						<defs>
							<rect id="SVGID_179_" x="37.6" y="10.4" width="123" height="52"/>
						</defs>
						<clipPath id="SVGID_180_">
							<use xlink:href="#SVGID_179_"  style="overflow:visible;"/>
						</clipPath>
						<rect x="110" y="53" class="st89" width="13.8" height="14"/>
					</g>
				</g>
				<g class="st11">
					<defs>
						<path id="SVGID_181_" d="M121.1,61.5c-0.2,0-0.3-0.1-0.4-0.2c-0.1-0.2-0.1-0.4-0.1-0.8v-1.8h1v-0.5h-1v-1.2l-1,0.2v1H119v0.5
							h0.6v2c0,0.5,0.1,0.8,0.2,1c0.2,0.3,0.5,0.5,1,0.5c0.3,0,0.7-0.1,1.1-0.3l-0.2-0.5C121.4,61.4,121.3,61.5,121.1,61.5"/>
					</defs>
					<clipPath id="SVGID_182_">
						<use xlink:href="#SVGID_181_"  style="overflow:visible;"/>
					</clipPath>
					<g class="st90">
						<defs>
							<rect id="SVGID_183_" x="37.6" y="10.4" width="123" height="52"/>
						</defs>
						<clipPath id="SVGID_184_">
							<use xlink:href="#SVGID_183_"  style="overflow:visible;"/>
						</clipPath>
						<rect x="114" y="51.9" class="st91" width="12.8" height="15.2"/>
					</g>
				</g>
				<g class="st11">
					<defs>
						<path id="SVGID_185_" d="M125.1,60.1c0.1,0,0.1-0.1,0.1-0.1c0-0.5-0.1-0.9-0.2-1.2c-0.3-0.6-0.7-0.9-1.5-0.9
							c-0.6,0-1,0.2-1.4,0.5c-0.4,0.4-0.6,0.9-0.6,1.5c0,0.7,0.2,1.2,0.7,1.6c0.4,0.4,0.9,0.5,1.4,0.5c0.5,0,1-0.1,1.5-0.4l-0.3-0.5
							c-0.3,0.2-0.7,0.3-1,0.3c-0.4,0-0.6-0.1-0.9-0.3c-0.2-0.2-0.3-0.5-0.3-0.9h2.4C125,60.1,125,60.1,125.1,60.1z M122.6,59.6
							c0-0.7,0.3-1.1,0.9-1.1c0.5,0,0.7,0.3,0.8,0.9c0,0.1,0,0.1,0,0.2H122.6z"/>
					</defs>
					<clipPath id="SVGID_186_">
						<use xlink:href="#SVGID_185_"  style="overflow:visible;"/>
					</clipPath>
					<g class="st92">
						<defs>
							<rect id="SVGID_187_" x="37.6" y="10.4" width="123" height="52"/>
						</defs>
						<clipPath id="SVGID_188_">
							<use xlink:href="#SVGID_187_"  style="overflow:visible;"/>
						</clipPath>
						<rect x="116.5" y="53" class="st93" width="13.7" height="14.1"/>
					</g>
				</g>
				<g class="st11">
					<defs>
						<path id="SVGID_189_" d="M130.5,58c-0.5,0-1,0.2-1.3,0.6v-0.5h-1v0.2c-0.2-0.2-0.5-0.3-0.7-0.3c-0.3,0-0.5,0.2-0.7,0.5
							l-0.1,0.3v-0.7h-1v4h1v-1.7c0-0.4,0-0.8,0.1-0.9c0.1-0.3,0.3-0.5,0.6-0.5c0.1,0,0.3,0.1,0.5,0.2l0.3-0.6V62h1v-2.1
							c0-0.3,0-0.5,0.1-0.7c0.1-0.4,0.4-0.5,0.8-0.5c0.3,0,0.5,0.1,0.6,0.3c0.1,0.2,0.1,0.4,0.1,0.7V62h1v-2.2c0-0.5,0-0.9-0.1-1.1
							C131.5,58.2,131.1,58,130.5,58"/>
					</defs>
					<clipPath id="SVGID_190_">
						<use xlink:href="#SVGID_189_"  style="overflow:visible;"/>
					</clipPath>
					<g class="st94">
						<defs>
							<rect id="SVGID_191_" x="37.6" y="10.4" width="123" height="52"/>
						</defs>
						<clipPath id="SVGID_192_">
							<use xlink:href="#SVGID_191_"  style="overflow:visible;"/>
						</clipPath>
						<rect x="120.5" y="53" class="st95" width="16.3" height="14"/>
					</g>
				</g>
				<g class="st11">
					<defs>
						<path id="SVGID_193_" d="M135.8,60.1c0.1,0,0.1-0.1,0.1-0.1c0-0.5-0.1-0.9-0.2-1.2c-0.3-0.6-0.7-0.9-1.5-0.9
							c-0.6,0-1,0.2-1.4,0.5c-0.4,0.4-0.6,0.9-0.6,1.5c0,0.7,0.2,1.2,0.7,1.6c0.4,0.4,0.9,0.5,1.4,0.5c0.5,0,1-0.1,1.5-0.4l-0.3-0.5
							c-0.3,0.2-0.7,0.3-1,0.3c-0.4,0-0.6-0.1-0.9-0.3c-0.2-0.2-0.3-0.5-0.3-0.9h2.4C135.6,60.1,135.7,60.1,135.8,60.1z M133.3,59.6
							c0-0.7,0.3-1.1,0.9-1.1c0.5,0,0.7,0.3,0.8,0.9c0,0.1,0,0.1,0,0.2H133.3z"/>
					</defs>
					<clipPath id="SVGID_194_">
						<use xlink:href="#SVGID_193_"  style="overflow:visible;"/>
					</clipPath>
					<g class="st96">
						<defs>
							<rect id="SVGID_195_" x="37.6" y="10.4" width="123" height="52"/>
						</defs>
						<clipPath id="SVGID_196_">
							<use xlink:href="#SVGID_195_"  style="overflow:visible;"/>
						</clipPath>
						<rect x="127.2" y="53" class="st97" width="13.7" height="14.1"/>
					</g>
				</g>
				<g class="st11">
					<defs>
						<path id="SVGID_197_" d="M137.9,61.5c-0.2,0-0.3-0.1-0.4-0.2c-0.1-0.2-0.1-0.4-0.1-0.8v-1.8h1v-0.5h-1v-1.2l-1,0.2v1h-0.6v0.5
							h0.6v2c0,0.5,0.1,0.8,0.2,1c0.2,0.3,0.5,0.5,1,0.5c0.3,0,0.7-0.1,1.1-0.3l-0.2-0.5C138.2,61.4,138.1,61.5,137.9,61.5"/>
					</defs>
					<clipPath id="SVGID_198_">
						<use xlink:href="#SVGID_197_"  style="overflow:visible;"/>
					</clipPath>
					<g class="st98">
						<defs>
							<rect id="SVGID_199_" x="37.6" y="10.4" width="123" height="52"/>
						</defs>
						<clipPath id="SVGID_200_">
							<use xlink:href="#SVGID_199_"  style="overflow:visible;"/>
						</clipPath>
						<rect x="130.8" y="51.9" class="st99" width="12.8" height="15.2"/>
					</g>
				</g>
				<g class="st11">
					<defs>
						<polygon id="SVGID_201_" points="37.6,33.4 52.5,40.6 52.5,37.6 41.2,32.1 52.5,26.3 52.5,23.2 37.6,31 						"/>
					</defs>
					<clipPath id="SVGID_202_">
						<use xlink:href="#SVGID_201_"  style="overflow:visible;"/>
					</clipPath>
					<g class="st100">
						<defs>
							<rect id="SVGID_203_" x="37.6" y="10.4" width="123" height="52"/>
						</defs>
						<clipPath id="SVGID_204_">
							<use xlink:href="#SVGID_203_"  style="overflow:visible;"/>
						</clipPath>
						<rect x="32.6" y="18.2" class="st101" width="24.9" height="27.4"/>
					</g>
				</g>
				<g class="st11">
					<defs>
						<polygon id="SVGID_205_" points="145.5,23.2 145.5,26.3 156.7,32.1 145.5,37.6 145.5,40.6 160.3,33.4 160.3,31 						"/>
					</defs>
					<clipPath id="SVGID_206_">
						<use xlink:href="#SVGID_205_"  style="overflow:visible;"/>
					</clipPath>
					<g class="st102">
						<defs>
							<rect id="SVGID_207_" x="37.6" y="10.4" width="123" height="52"/>
						</defs>
						<clipPath id="SVGID_208_">
							<use xlink:href="#SVGID_207_"  style="overflow:visible;"/>
						</clipPath>
						<rect x="140.5" y="18.2" class="st103" width="24.9" height="27.4"/>
					</g>
				</g>
			</g>
		</g>
	</g>
</g>
</svg>
