<?xml version="1.0" encoding="utf-8"?>
<!-- Generator: Adobe Illustrator 21.1.0, SVG Export Plug-In . SVG Version: 6.00 Build 0)  -->
<svg version="1.1" id="Capa_1" xmlns="http://www.w3.org/2000/svg" xmlns:xlink="http://www.w3.org/1999/xlink" x="0px" y="0px"
	 viewBox="0 0 198 81.2" style="enable-background:new 0 0 198 81.2;" xml:space="preserve">
<style type="text/css">
	.st0{clip-path:url(#SVGID_2_);}
	.st1{clip-path:url(#SVGID_4_);fill:#FFFFFF;}
</style>
<g>
	<defs>
		<path id="SVGID_1_" d="M161.3,51.1h-6.7l1.1-4.4h-13.4l-1.1,4.4h-6.5v-0.9c0.1-0.5,0.2-1,0.3-1.6c1.2-4.8,4.3-9.5,9.7-9.5
			c2.1,0,4.3,0.8,4,3.8h8c0.3-1.4,0.8-3.7-0.7-5.9c-1.7-2.4-5.1-3.3-9.6-3.3c-3.2,0-7.8,0.5-11.8,3.1v-24h26.5V51.1z M145.6,57.6
			c-1.5,0.3-3,0.5-4.5,0.5c-3.8,0-6.5-1.8-6.5-5.9H147L145.6,57.6z M130.3,35.7l0,5.5c-1.8,2.6-3,5.3-3.5,7.6
			c-0.2,0.8-0.3,1.6-0.4,2.3h-3.9l3.3-15.8l-11.2,0l-10,15.8h-0.7V12.8h26.5V35.7z M115.5,51.1h-4l6-9.5L115.5,51.1z M99.4,35.3
			h-6.6l-4.6,15.8h-7c3.6-1.3,5.8-3.9,6.4-7.6c0.6-2.9,0.3-4.8-0.9-6.3c-1.8-2.1-5.4-2-8.6-2c-0.6,0-5.3,0-5.3,0V12.8h26.5V35.3z
			 M95.2,51.1l2.8-9.9l0.1,9.9H95.2z M75.9,47.3L75.9,47.3c-0.3,0-0.5,0-0.8,0c-0.4,0-0.7,0-1,0l-1.7,0l0.8-2.9l0.4-1.4l0.9-3.4
			c0.4,0,0.8,0,1.2,0h1.3c2.2,0,3.7,0.1,4.2,0.8c0.4,0.5,0.3,1.5-0.1,2.9C80.1,45.8,79.1,47.1,75.9,47.3z M68.5,36.7L68.1,38
			l-3.8,12.6l-0.1,0.4H51.6l-1-2.1l13.5-13.8h-8.7L44.9,46.6l3.4-11.3H42V12.8h26.5V36.7z M133.7,11.8v25.8
			c-0.9,0.7-1.7,1.5-2.4,2.3V11.8h-28.6v23.5h-2.4V11.8H71.9v23.5h-2.4V11.8H40.9v26.8l-7.3,24.3h6.4l3.2-10.8h0.9l5.3,10.8h7.7
			l-5.2-10.8h11.7l-3.2,10.8h7l3.2-10.7h1.5v0h2.2h0.2h13.2l-3.1,10.7h7.1l3-10.7h3.2l0.1,10.7h5.9l6.8-10.7h4.5L113,62.8h7
			l2.3-10.7h4c-0.2,3.3,0.7,6.3,2.9,8.4c2.7,2.5,6.8,2.9,9.9,2.9c4.2,0,8.5-0.6,12.9-1.6l2.4-9.7h7.9V11.8H133.7z"/>
	</defs>
	<clipPath id="SVGID_2_">
		<use xlink:href="#SVGID_1_"  style="overflow:visible;"/>
	</clipPath>
	<g class="st0">
		<defs>
			<rect id="SVGID_3_" x="-529.2" y="-769.2" width="1593.7" height="2276"/>
		</defs>
		<clipPath id="SVGID_4_">
			<use xlink:href="#SVGID_3_"  style="overflow:visible;"/>
		</clipPath>
		<rect x="27.4" y="5.6" class="st1" width="141.1" height="64.1"/>
	</g>
</g>
</svg>
