<?xml version="1.0" encoding="utf-8"?>
<!-- Generator: Adobe Illustrator 21.1.0, SVG Export Plug-In . SVG Version: 6.00 Build 0)  -->
<svg version="1.1" id="Capa_1" xmlns="http://www.w3.org/2000/svg" xmlns:xlink="http://www.w3.org/1999/xlink" x="0px" y="0px"
	 viewBox="0 0 198 81.2" style="enable-background:new 0 0 198 81.2;" xml:space="preserve">
<style type="text/css">
	.st0{clip-path:url(#SVGID_2_);}
	.st1{clip-path:url(#SVGID_4_);fill:#FFFFFF;}
	.st2{clip-path:url(#SVGID_6_);}
	.st3{clip-path:url(#SVGID_8_);fill:#FFFFFF;}
	.st4{clip-path:url(#SVGID_10_);}
	.st5{clip-path:url(#SVGID_12_);fill:#FFFFFF;}
	.st6{clip-path:url(#SVGID_14_);}
	.st7{clip-path:url(#SVGID_16_);fill:#FFFFFF;}
	.st8{clip-path:url(#SVGID_18_);}
	.st9{clip-path:url(#SVGID_20_);fill:#FFFFFF;}
	.st10{clip-path:url(#SVGID_22_);}
	.st11{clip-path:url(#SVGID_24_);fill:#FFFFFF;}
	.st12{clip-path:url(#SVGID_26_);}
	.st13{clip-path:url(#SVGID_28_);fill:#FFFFFF;}
	.st14{clip-path:url(#SVGID_30_);}
	.st15{clip-path:url(#SVGID_32_);fill:#FFFFFF;}
	.st16{clip-path:url(#SVGID_34_);}
	.st17{clip-path:url(#SVGID_36_);fill:#FFFFFF;}
	.st18{clip-path:url(#SVGID_38_);}
	.st19{clip-path:url(#SVGID_40_);fill:#FFFFFF;}
	.st20{clip-path:url(#SVGID_42_);}
	.st21{clip-path:url(#SVGID_44_);fill:#FFFFFF;}
	.st22{clip-path:url(#SVGID_46_);}
	.st23{clip-path:url(#SVGID_48_);fill:#FFFFFF;}
	.st24{clip-path:url(#SVGID_50_);}
	.st25{clip-path:url(#SVGID_52_);fill:#FFFFFF;}
</style>
<g>
	<defs>
		<path id="SVGID_1_" d="M23.9,24.5h15.3c0,5.1,0,10.2,0,15.3H23.9V24.5z"/>
	</defs>
	<clipPath id="SVGID_2_">
		<use xlink:href="#SVGID_1_"  style="overflow:visible;"/>
	</clipPath>
	<g class="st0">
		<defs>
			<rect id="SVGID_3_" x="-683" y="-612.1" width="1280" height="1828"/>
		</defs>
		<clipPath id="SVGID_4_">
			<use xlink:href="#SVGID_3_"  style="overflow:visible;"/>
		</clipPath>
		<rect x="18.9" y="19.5" class="st1" width="25.3" height="25.3"/>
	</g>
</g>
<g>
	<defs>
		<path id="SVGID_5_" d="M40.7,24.5h15.3c0,5.1,0,10.2,0,15.3c-5.1,0-10.2,0-15.3,0C40.7,34.7,40.7,29.6,40.7,24.5"/>
	</defs>
	<clipPath id="SVGID_6_">
		<use xlink:href="#SVGID_5_"  style="overflow:visible;"/>
	</clipPath>
	<g class="st2">
		<defs>
			<rect id="SVGID_7_" x="-683" y="-612.1" width="1280" height="1828"/>
		</defs>
		<clipPath id="SVGID_8_">
			<use xlink:href="#SVGID_7_"  style="overflow:visible;"/>
		</clipPath>
		<rect x="35.7" y="19.5" class="st3" width="25.3" height="25.3"/>
	</g>
</g>
<g>
	<defs>
		<path id="SVGID_9_" d="M170.8,36.4c0-1.4,0-2.8,0-4.1c-1.1,0.3-2.2,0.7-3.3,1c0,1,0,2.1,0,3.1c-1.6,0-3.2,0-4.8,0
			c0-0.8-0.1-1.7,0.1-2.5c0.1-0.6,0.5-1.3,1.1-1.5c0.8-0.3,1.7-0.1,2.4,0.2c0-0.9,0-1.9,0-2.8c-1.6-0.4-3.4-0.4-4.8,0.6
			c-0.9,0.6-1.6,1.5-1.9,2.5c-0.4,1.1-0.2,2.3-0.2,3.5c-0.8,0-1.5,0-2.3,0c0,0.9,0,1.8,0,2.6c0.8,0,1.5,0,2.3,0c0,3.7,0,7.4,0,11.1
			h3.3c0-3.7,0-7.4,0-11.1c1.6,0,3.2,0,4.8,0c0,2.4,0,4.7,0,7.1c0,1.1,0.2,2.3,0.9,3.2c0.6,0.8,1.6,1.1,2.6,1.2c1,0.1,2.1-0.1,3-0.5
			v-2.7c-0.7,0.5-1.7,0.7-2.5,0.2c-0.5-0.3-0.7-0.8-0.7-1.3c-0.1-0.9,0-1.7-0.1-2.6c0-1.5,0-3.1,0-4.6c1.1,0,2.2,0,3.3,0v-2.7
			C173,36.4,171.9,36.4,170.8,36.4"/>
	</defs>
	<clipPath id="SVGID_10_">
		<use xlink:href="#SVGID_9_"  style="overflow:visible;"/>
	</clipPath>
	<g class="st4">
		<defs>
			<rect id="SVGID_11_" x="-683" y="-612.1" width="1280" height="1828"/>
		</defs>
		<clipPath id="SVGID_12_">
			<use xlink:href="#SVGID_11_"  style="overflow:visible;"/>
		</clipPath>
		<rect x="152.1" y="24.5" class="st5" width="27" height="31"/>
	</g>
</g>
<g>
	<defs>
		<path id="SVGID_13_" d="M90.8,30.6c-0.9,0.1-1.7,0.9-1.7,1.9c0,0.9,0.7,1.7,1.5,1.8c0.8,0.2,1.8-0.2,2.2-0.9
			c0.4-0.7,0.3-1.6-0.2-2.1C92.2,30.7,91.5,30.5,90.8,30.6"/>
	</defs>
	<clipPath id="SVGID_14_">
		<use xlink:href="#SVGID_13_"  style="overflow:visible;"/>
	</clipPath>
	<g class="st6">
		<defs>
			<rect id="SVGID_15_" x="-683" y="-612.1" width="1280" height="1828"/>
		</defs>
		<clipPath id="SVGID_16_">
			<use xlink:href="#SVGID_15_"  style="overflow:visible;"/>
		</clipPath>
		<rect x="84.1" y="25.5" class="st7" width="14" height="13.8"/>
	</g>
</g>
<g>
	<defs>
		<path id="SVGID_17_" d="M81.7,31c-1.9,4.7-3.9,9.5-5.8,14.2c-0.4-0.9-0.8-1.9-1.1-2.9c-1.5-3.8-3-7.6-4.5-11.4h-4.8
			c0,6.4,0,12.8,0,19.3c1,0,2.1,0,3.1,0c0-2.9,0-5.7,0-8.6c0-2.1,0-4.2,0-6.2c0.1,0.1,0.1,0.2,0.2,0.3c2,4.9,3.9,9.7,5.9,14.6
			c0.8,0,1.6,0,2.4,0c1.9-4.9,3.8-9.7,5.7-14.5c0.1-0.1,0.1-0.2,0.2-0.3c0,0.2,0,0.4,0,0.6c0,4.7,0,9.5,0,14.2c1.1,0,2.2,0,3.3,0
			c0-6.4,0-12.8,0-19.3C84.8,31,83.3,31,81.7,31"/>
	</defs>
	<clipPath id="SVGID_18_">
		<use xlink:href="#SVGID_17_"  style="overflow:visible;"/>
	</clipPath>
	<g class="st8">
		<defs>
			<rect id="SVGID_19_" x="-683" y="-612.1" width="1280" height="1828"/>
		</defs>
		<clipPath id="SVGID_20_">
			<use xlink:href="#SVGID_19_"  style="overflow:visible;"/>
		</clipPath>
		<rect x="60.5" y="26" class="st9" width="30.8" height="29.3"/>
	</g>
</g>
<g>
	<defs>
		<path id="SVGID_21_" d="M104.8,36.4c-1.6-0.5-3.3-0.5-4.9,0c-1.5,0.4-2.8,1.3-3.7,2.6c-1,1.5-1.4,3.3-1.3,5.1
			c0.1,1.7,0.8,3.4,2,4.6c1.1,1.1,2.7,1.7,4.3,1.8c1.5,0.1,3.2-0.1,4.5-0.9c0-1,0-2,0-3c-0.9,0.6-1.9,1.1-3,1.2
			c-1.1,0.1-2.3-0.2-3.1-0.9c-0.8-0.7-1.2-1.7-1.3-2.7c-0.1-1.3,0-2.7,0.9-3.8c0.6-0.9,1.7-1.4,2.7-1.5c1.4-0.2,2.7,0.3,3.8,1.2
			c0-1.1,0-2.1,0-3.2C105.5,36.6,105.1,36.5,104.8,36.4"/>
	</defs>
	<clipPath id="SVGID_22_">
		<use xlink:href="#SVGID_21_"  style="overflow:visible;"/>
	</clipPath>
	<g class="st10">
		<defs>
			<rect id="SVGID_23_" x="-683" y="-612.1" width="1280" height="1828"/>
		</defs>
		<clipPath id="SVGID_24_">
			<use xlink:href="#SVGID_23_"  style="overflow:visible;"/>
		</clipPath>
		<rect x="89.9" y="31.1" class="st11" width="20.8" height="24.5"/>
	</g>
</g>
<g>
	<defs>
		<path id="SVGID_25_" d="M127,36.7c-1.5-0.7-3.1-0.8-4.7-0.6c-1.7,0.2-3.3,1-4.3,2.3c-1,1.2-1.4,2.7-1.5,4.2
			c-0.1,1.8,0.2,3.7,1.2,5.2c0.9,1.3,2.3,2.2,3.8,2.5c1.3,0.3,2.6,0.3,3.9,0c1.5-0.3,2.9-1.1,3.8-2.3c0.9-1.1,1.3-2.6,1.5-4
			c0.1-1.5,0-3-0.7-4.4C129.3,38.4,128.3,37.3,127,36.7 M126.7,46c-0.3,0.7-0.9,1.3-1.6,1.6c-0.9,0.3-1.8,0.3-2.7,0.1
			c-0.9-0.2-1.7-0.9-2.1-1.7c-0.5-1.1-0.6-2.3-0.5-3.5c0.1-1.1,0.5-2.1,1.3-2.9c0.6-0.5,1.4-0.8,2.2-0.9c1-0.1,2,0.2,2.8,0.9
			c0.8,0.8,1.1,1.8,1.1,2.9C127.2,43.7,127.2,44.9,126.7,46"/>
	</defs>
	<clipPath id="SVGID_26_">
		<use xlink:href="#SVGID_25_"  style="overflow:visible;"/>
	</clipPath>
	<g class="st12">
		<defs>
			<rect id="SVGID_27_" x="-683" y="-612.1" width="1280" height="1828"/>
		</defs>
		<clipPath id="SVGID_28_">
			<use xlink:href="#SVGID_27_"  style="overflow:visible;"/>
		</clipPath>
		<rect x="111.4" y="31.1" class="st13" width="24.2" height="24.5"/>
	</g>
</g>
<g>
	<defs>
		<path id="SVGID_29_" d="M139,42.7c-1-0.6-2.1-0.8-3-1.5c-0.5-0.3-0.7-1.1-0.5-1.7c0.3-0.6,1-0.8,1.6-0.9c1.2,0,2.5,0.3,3.5,1
			c0-1,0-2,0-3c-1.4-0.5-3-0.7-4.6-0.5c-1.3,0.2-2.6,0.9-3.3,2c-0.6,1-0.7,2.2-0.5,3.3c0.2,0.7,0.6,1.4,1.2,1.9
			c0.9,0.7,1.9,1,2.8,1.5c0.5,0.2,1.1,0.5,1.4,0.9c0.4,0.6,0.3,1.5-0.4,1.9c-0.7,0.3-1.5,0.3-2.3,0.2c-1.1-0.2-2.1-0.6-3-1.3
			c0,1.1,0,2.1,0,3.2c1.1,0.5,2.2,0.7,3.4,0.8c1.6,0.1,3.4-0.3,4.6-1.4c1.3-1.1,1.6-3.1,0.9-4.6C140.5,43.7,139.8,43.1,139,42.7"/>
	</defs>
	<clipPath id="SVGID_30_">
		<use xlink:href="#SVGID_29_"  style="overflow:visible;"/>
	</clipPath>
	<g class="st14">
		<defs>
			<rect id="SVGID_31_" x="-683" y="-612.1" width="1280" height="1828"/>
		</defs>
		<clipPath id="SVGID_32_">
			<use xlink:href="#SVGID_31_"  style="overflow:visible;"/>
		</clipPath>
		<rect x="127.1" y="31.1" class="st15" width="19.2" height="24.5"/>
	</g>
</g>
<g>
	<defs>
		<path id="SVGID_33_" d="M153.5,36.8c-1.5-0.8-3.3-0.9-4.9-0.7c-1.3,0.2-2.6,0.7-3.6,1.6c-1.2,1.1-2,2.6-2.2,4.2
			c-0.2,1.6-0.1,3.3,0.5,4.8c0.6,1.5,1.9,2.7,3.4,3.3c1.5,0.6,3.1,0.6,4.6,0.4c1.6-0.3,3.1-1.1,4.1-2.4c1-1.3,1.5-3,1.5-4.7
			c0-1.1-0.1-2.2-0.5-3.3C155.8,38.7,154.8,37.5,153.5,36.8 M153.3,44.7c-0.1,0.7-0.4,1.5-0.9,2c-0.5,0.6-1.2,0.9-1.9,1
			c-0.8,0.1-1.6,0.1-2.4-0.3c-0.8-0.3-1.4-1-1.7-1.8c-0.4-0.9-0.5-2-0.4-3c0.1-1,0.4-2,1-2.7c0.6-0.7,1.5-1.1,2.4-1.2
			c0.9-0.1,1.9,0.2,2.6,0.8c0.7,0.5,1,1.4,1.2,2.2C153.5,42.7,153.5,43.7,153.3,44.7"/>
	</defs>
	<clipPath id="SVGID_34_">
		<use xlink:href="#SVGID_33_"  style="overflow:visible;"/>
	</clipPath>
	<g class="st16">
		<defs>
			<rect id="SVGID_35_" x="-683" y="-612.1" width="1280" height="1828"/>
		</defs>
		<clipPath id="SVGID_36_">
			<use xlink:href="#SVGID_35_"  style="overflow:visible;"/>
		</clipPath>
		<rect x="137.7" y="31.1" class="st17" width="24.2" height="24.5"/>
	</g>
</g>
<g>
	<defs>
		<path id="SVGID_37_" d="M113.1,36.6c-0.8,0.5-1.4,1.3-1.7,2.2c0-0.8,0-1.6,0-2.4c-1.1,0-2.2,0-3.3,0c0,4.6,0,9.2,0,13.8h3.3
			c0-2.2,0-4.4,0-6.6c0-1,0.1-1.9,0.5-2.8c0.4-0.8,1.1-1.5,2.1-1.7c0.8-0.1,1.6,0.1,2.2,0.5c0-1.1,0-2.2,0-3.3
			C115.2,36,114,36.1,113.1,36.6"/>
	</defs>
	<clipPath id="SVGID_38_">
		<use xlink:href="#SVGID_37_"  style="overflow:visible;"/>
	</clipPath>
	<g class="st18">
		<defs>
			<rect id="SVGID_39_" x="-683" y="-612.1" width="1280" height="1828"/>
		</defs>
		<clipPath id="SVGID_40_">
			<use xlink:href="#SVGID_39_"  style="overflow:visible;"/>
		</clipPath>
		<rect x="103.2" y="31.2" class="st19" width="18" height="24.1"/>
	</g>
</g>
<g>
	<defs>
		<path id="SVGID_41_" d="M89.4,36.4c0,4.6,0,9.2,0,13.8h3.3c0-4.6,0-9.2,0-13.8C91.6,36.4,90.5,36.4,89.4,36.4"/>
	</defs>
	<clipPath id="SVGID_42_">
		<use xlink:href="#SVGID_41_"  style="overflow:visible;"/>
	</clipPath>
	<g class="st20">
		<defs>
			<rect id="SVGID_43_" x="-683" y="-612.1" width="1280" height="1828"/>
		</defs>
		<clipPath id="SVGID_44_">
			<use xlink:href="#SVGID_43_"  style="overflow:visible;"/>
		</clipPath>
		<rect x="84.4" y="31.4" class="st21" width="13.3" height="23.8"/>
	</g>
</g>
<g>
	<defs>
		<path id="SVGID_45_" d="M23.9,41.4c5.1,0,10.2,0,15.3,0c0,5.1,0,10.2,0,15.3H23.9V41.4z"/>
	</defs>
	<clipPath id="SVGID_46_">
		<use xlink:href="#SVGID_45_"  style="overflow:visible;"/>
	</clipPath>
	<g class="st22">
		<defs>
			<rect id="SVGID_47_" x="-683" y="-612.1" width="1280" height="1828"/>
		</defs>
		<clipPath id="SVGID_48_">
			<use xlink:href="#SVGID_47_"  style="overflow:visible;"/>
		</clipPath>
		<rect x="18.9" y="36.4" class="st23" width="25.3" height="25.3"/>
	</g>
</g>
<g>
	<defs>
		<path id="SVGID_49_" d="M40.7,41.4c5.1,0,10.2,0,15.3,0v15.3H40.7C40.7,51.6,40.7,46.5,40.7,41.4"/>
	</defs>
	<clipPath id="SVGID_50_">
		<use xlink:href="#SVGID_49_"  style="overflow:visible;"/>
	</clipPath>
	<g class="st24">
		<defs>
			<rect id="SVGID_51_" x="-683" y="-612.1" width="1280" height="1828"/>
		</defs>
		<clipPath id="SVGID_52_">
			<use xlink:href="#SVGID_51_"  style="overflow:visible;"/>
		</clipPath>
		<rect x="35.7" y="36.4" class="st25" width="25.3" height="25.3"/>
	</g>
</g>
</svg>
