<?xml version="1.0" encoding="utf-8"?>
<!-- Generator: Adobe Illustrator 21.1.0, SVG Export Plug-In . SVG Version: 6.00 Build 0)  -->
<svg version="1.1" id="Capa_1" xmlns="http://www.w3.org/2000/svg" xmlns:xlink="http://www.w3.org/1999/xlink" x="0px" y="0px"
	 viewBox="0 0 198 81.2" style="enable-background:new 0 0 198 81.2;" xml:space="preserve">
<style type="text/css">
	.st0{clip-path:url(#SVGID_2_);}
	.st1{clip-path:url(#SVGID_4_);enable-background:new    ;}
	.st2{clip-path:url(#SVGID_6_);}
	.st3{clip-path:url(#SVGID_8_);}
	.st4{clip-path:url(#SVGID_10_);fill:#FFFFFF;}
	.st5{clip-path:url(#SVGID_12_);}
	.st6{clip-path:url(#SVGID_14_);fill:#FFFFFF;}
	.st7{clip-path:url(#SVGID_16_);}
	.st8{clip-path:url(#SVGID_18_);enable-background:new    ;}
	.st9{clip-path:url(#SVGID_20_);}
	.st10{clip-path:url(#SVGID_22_);}
	.st11{clip-path:url(#SVGID_24_);fill:#FFFFFF;}
	.st12{clip-path:url(#SVGID_26_);}
	.st13{clip-path:url(#SVGID_28_);fill:#FFFFFF;}
	.st14{clip-path:url(#SVGID_30_);}
	.st15{clip-path:url(#SVGID_32_);enable-background:new    ;}
	.st16{clip-path:url(#SVGID_34_);}
	.st17{clip-path:url(#SVGID_36_);}
	.st18{clip-path:url(#SVGID_38_);fill:#FFFFFF;}
	.st19{clip-path:url(#SVGID_40_);}
	.st20{clip-path:url(#SVGID_42_);fill:#FFFFFF;}
</style>
<g>
	<defs>
		<rect id="SVGID_1_" x="34.5" y="30.5" width="17.2" height="29.4"/>
	</defs>
	<clipPath id="SVGID_2_">
		<use xlink:href="#SVGID_1_"  style="overflow:visible;"/>
	</clipPath>
	<g class="st0">
		<defs>
			<rect id="SVGID_3_" x="-1528.6" y="-1794.8" width="1940.6" height="2771.5"/>
		</defs>
		<clipPath id="SVGID_4_">
			<use xlink:href="#SVGID_3_"  style="overflow:visible;"/>
		</clipPath>
		<g class="st1">
			<g>
				<defs>
					<rect id="SVGID_5_" x="34.5" y="29.1" width="18.2" height="31.8"/>
				</defs>
				<clipPath id="SVGID_6_">
					<use xlink:href="#SVGID_5_"  style="overflow:visible;"/>
				</clipPath>
				<g class="st2">
					<defs>
						<path id="SVGID_7_" d="M51.7,31.8c-1.2-0.8-2.6-1.2-4.9-1.2c-2.9,0-5.3,1.4-6.6,3.3v-2.7h-5.7v28.8h5.7V43.5
							c0-4.9,2.1-7.4,5.7-7.4c1.1,0,2,0.1,2.8,0.4C49.4,34.9,50.2,33.7,51.7,31.8"/>
					</defs>
					<clipPath id="SVGID_8_">
						<use xlink:href="#SVGID_7_"  style="overflow:visible;"/>
					</clipPath>
					<g class="st3">
						<defs>
							<rect id="SVGID_9_" x="34.5" y="29.1" width="18.2" height="31.8"/>
						</defs>
						<clipPath id="SVGID_10_">
							<use xlink:href="#SVGID_9_"  style="overflow:visible;"/>
						</clipPath>
						<rect x="26.9" y="23" class="st4" width="32.4" height="44.5"/>
					</g>
				</g>
			</g>
		</g>
	</g>
</g>
<g>
	<defs>
		<path id="SVGID_11_" d="M74.8,45c0-7.8-4-14.4-12.2-14.4c-7.5,0-12.7,5.3-12.7,15c0,9.5,5.7,15,12.5,15c4.4,0,7.4-1.4,10-3.8
			L69,53.1c-1.9,1.4-3.9,2.3-6.3,2.3c-3.5,0-6.7-2.4-7.3-7.9h19.1C74.7,46.9,74.8,46,74.8,45 M69,42.9H55.6c0.5-4.6,2.8-7.2,6.6-7.2
			C66.9,35.6,68.8,38.9,69,42.9"/>
	</defs>
	<clipPath id="SVGID_12_">
		<use xlink:href="#SVGID_11_"  style="overflow:visible;"/>
	</clipPath>
	<g class="st5">
		<defs>
			<rect id="SVGID_13_" x="-1528.6" y="-1794.8" width="1940.6" height="2771.5"/>
		</defs>
		<clipPath id="SVGID_14_">
			<use xlink:href="#SVGID_13_"  style="overflow:visible;"/>
		</clipPath>
		<rect x="42.3" y="23" class="st6" width="40" height="45.1"/>
	</g>
</g>
<g>
	<defs>
		<rect id="SVGID_15_" x="77.4" y="20" width="24.3" height="40.6"/>
	</defs>
	<clipPath id="SVGID_16_">
		<use xlink:href="#SVGID_15_"  style="overflow:visible;"/>
	</clipPath>
	<g class="st7">
		<defs>
			<rect id="SVGID_17_" x="-1528.6" y="-1794.8" width="1940.6" height="2771.5"/>
		</defs>
		<clipPath id="SVGID_18_">
			<use xlink:href="#SVGID_17_"  style="overflow:visible;"/>
		</clipPath>
		<g class="st8">
			<g>
				<defs>
					<rect id="SVGID_19_" x="77" y="20" width="25.8" height="40.9"/>
				</defs>
				<clipPath id="SVGID_20_">
					<use xlink:href="#SVGID_19_"  style="overflow:visible;"/>
				</clipPath>
				<g class="st9">
					<defs>
						<path id="SVGID_21_" d="M101.7,59.9V20l-5.6,2.9v11c-1.6-1.7-4.4-3.3-7.3-3.3c-6,0-11.4,4.7-11.4,14.5
							c0,11,4.9,15.4,11.1,15.4c3,0,5.5-1.4,7.6-3.3v2.7H101.7z M96.2,51.6c-1.5,1.9-3.9,3.7-6.6,3.7c-4.2,0-6.5-3.2-6.5-10.4
							c0-6.1,2.2-9.2,6.3-9.2c2.9,0,5.5,2.1,6.8,3.8V51.6z"/>
					</defs>
					<clipPath id="SVGID_22_">
						<use xlink:href="#SVGID_21_"  style="overflow:visible;"/>
					</clipPath>
					<g class="st10">
						<defs>
							<rect id="SVGID_23_" x="77" y="20" width="25.8" height="40.9"/>
						</defs>
						<clipPath id="SVGID_24_">
							<use xlink:href="#SVGID_23_"  style="overflow:visible;"/>
						</clipPath>
						<rect x="69.8" y="12.4" class="st11" width="39.5" height="55.7"/>
					</g>
				</g>
			</g>
		</g>
	</g>
</g>
<g>
	<defs>
		<path id="SVGID_25_" d="M140.2,45c0-7.8-4-14.4-12.2-14.4c-7.5,0-12.7,5.3-12.7,15c0,9.5,5.7,15,12.5,15c4.4,0,7.4-1.4,10-3.8
			l-3.4-3.6c-1.9,1.4-3.9,2.3-6.3,2.3c-3.5,0-6.7-2.4-7.3-7.9h19.1C140.1,46.9,140.2,46,140.2,45 M134.5,42.9h-13.5
			c0.5-4.6,2.8-7.2,6.6-7.2C132.4,35.6,134.2,38.9,134.5,42.9"/>
	</defs>
	<clipPath id="SVGID_26_">
		<use xlink:href="#SVGID_25_"  style="overflow:visible;"/>
	</clipPath>
	<g class="st12">
		<defs>
			<rect id="SVGID_27_" x="-1528.6" y="-1794.8" width="1940.6" height="2771.5"/>
		</defs>
		<clipPath id="SVGID_28_">
			<use xlink:href="#SVGID_27_"  style="overflow:visible;"/>
		</clipPath>
		<rect x="107.8" y="23" class="st13" width="40" height="45.1"/>
	</g>
</g>
<g>
	<defs>
		<rect id="SVGID_29_" x="141.5" y="30.5" width="21.9" height="30"/>
	</defs>
	<clipPath id="SVGID_30_">
		<use xlink:href="#SVGID_29_"  style="overflow:visible;"/>
	</clipPath>
	<g class="st14">
		<defs>
			<rect id="SVGID_31_" x="-1528.6" y="-1794.8" width="1940.6" height="2771.5"/>
		</defs>
		<clipPath id="SVGID_32_">
			<use xlink:href="#SVGID_31_"  style="overflow:visible;"/>
		</clipPath>
		<g class="st15">
			<g>
				<defs>
					<rect id="SVGID_33_" x="140.6" y="29.1" width="24.3" height="31.8"/>
				</defs>
				<clipPath id="SVGID_34_">
					<use xlink:href="#SVGID_33_"  style="overflow:visible;"/>
				</clipPath>
				<g class="st16">
					<defs>
						<path id="SVGID_35_" d="M163.4,52c0-5.4-3.3-7.2-9.8-9.6c-4.4-1.7-5.3-2.7-5.3-4.2c0-1.5,1.2-2.6,4-2.6c2.8,0,5.1,0.8,7.5,2.5
							l2.5-4.3c-2.6-1.9-6.2-3.2-9.8-3.2c-5.8,0-9.9,2.7-9.9,7.8c0,4.6,2.3,6.6,8.5,9c4.2,1.6,6.7,2.6,6.7,4.8c0,2-1.7,3.2-5.3,3.2
							c-2.7,0-5.7-1-8.4-2.9l-2.6,4.3c2.9,2.1,7.2,3.7,11.1,3.7C158.3,60.5,163.4,58.4,163.4,52"/>
					</defs>
					<clipPath id="SVGID_36_">
						<use xlink:href="#SVGID_35_"  style="overflow:visible;"/>
					</clipPath>
					<g class="st17">
						<defs>
							<rect id="SVGID_37_" x="140.6" y="29.1" width="24.3" height="31.8"/>
						</defs>
						<clipPath id="SVGID_38_">
							<use xlink:href="#SVGID_37_"  style="overflow:visible;"/>
						</clipPath>
						<rect x="133.9" y="23" class="st18" width="37.1" height="45.1"/>
					</g>
				</g>
			</g>
		</g>
	</g>
</g>
<g>
	<defs>
		<path id="SVGID_39_" d="M104.9,56.4c0-2.7,2.2-4.8,4.8-4.8c2.7,0,4.8,2.1,4.8,4.8s-2.2,4.8-4.8,4.8
			C107.1,61.2,104.9,59.1,104.9,56.4"/>
	</defs>
	<clipPath id="SVGID_40_">
		<use xlink:href="#SVGID_39_"  style="overflow:visible;"/>
	</clipPath>
	<g class="st19">
		<defs>
			<rect id="SVGID_41_" x="-1528.6" y="-1794.8" width="1940.6" height="2771.5"/>
		</defs>
		<clipPath id="SVGID_42_">
			<use xlink:href="#SVGID_41_"  style="overflow:visible;"/>
		</clipPath>
		<rect x="97.3" y="44" class="st20" width="24.8" height="24.8"/>
	</g>
</g>
</svg>
