<?xml version="1.0" encoding="utf-8"?>
<!-- Generator: Adobe Illustrator 21.1.0, SVG Export Plug-In . SVG Version: 6.00 Build 0)  -->
<svg version="1.1" id="Capa_1" xmlns="http://www.w3.org/2000/svg" xmlns:xlink="http://www.w3.org/1999/xlink" x="0px" y="0px"
	 viewBox="0 0 198 81.2" style="enable-background:new 0 0 198 81.2;" xml:space="preserve">
<style type="text/css">
	.st0{clip-path:url(#SVGID_2_);}
	.st1{clip-path:url(#SVGID_4_);fill:#FFFFFF;}
	.st2{clip-path:url(#SVGID_6_);}
	.st3{clip-path:url(#SVGID_8_);fill:#FFFFFF;}
	.st4{clip-path:url(#SVGID_10_);}
	.st5{clip-path:url(#SVGID_12_);enable-background:new    ;}
	.st6{clip-path:url(#SVGID_14_);}
	.st7{clip-path:url(#SVGID_16_);}
	.st8{clip-path:url(#SVGID_18_);fill:#FFFFFF;}
	.st9{clip-path:url(#SVGID_20_);}
	.st10{clip-path:url(#SVGID_22_);fill:#FFFFFF;}
	.st11{clip-path:url(#SVGID_24_);}
	.st12{clip-path:url(#SVGID_26_);fill:#FFFFFF;}
	.st13{clip-path:url(#SVGID_28_);}
	.st14{clip-path:url(#SVGID_30_);fill:#FFFFFF;}
	.st15{clip-path:url(#SVGID_32_);}
	.st16{clip-path:url(#SVGID_34_);fill:#FFFFFF;}
	.st17{clip-path:url(#SVGID_36_);}
	.st18{clip-path:url(#SVGID_38_);fill:#FFFFFF;}
	.st19{clip-path:url(#SVGID_40_);}
	.st20{clip-path:url(#SVGID_42_);fill:#FFFFFF;}
</style>
<g>
	<defs>
		<path id="SVGID_1_" d="M102.2,33.5c1.9,0,3.4-1.5,3.4-3.3c0-2.1-1.8-2.6-5.2-4c-1.9-0.7-6.2-2.2-6.2-6.8c0-4.7,4.2-7.3,8.2-7.3
			c3.3,0,7.6,1.7,7.8,7.2h-4.9c-0.2-1.1-0.6-3-3.1-3c-1.6,0-3,1.1-3,2.8c0,1.8,1.3,2.3,5.5,4c3.8,1.6,5.9,3.4,5.9,6.9
			c0,3.9-2.4,7.6-8.3,7.6c-5.6,0-8.5-3.4-8.5-8.1h4.9C98.9,32.9,101.1,33.5,102.2,33.5z"/>
	</defs>
	<clipPath id="SVGID_2_">
		<use xlink:href="#SVGID_1_"  style="overflow:visible;"/>
	</clipPath>
	<g class="st0">
		<defs>
			<rect id="SVGID_3_" x="-1189.2" y="-949.3" width="1550" height="2213.6"/>
		</defs>
		<clipPath id="SVGID_4_">
			<use xlink:href="#SVGID_3_"  style="overflow:visible;"/>
		</clipPath>
		<rect x="87.7" y="6.1" class="st1" width="28.9" height="37.6"/>
	</g>
</g>
<g>
	<defs>
		<path id="SVGID_5_" d="M122.2,37.7c1.9,0,3.7-0.5,5.2-1.6c1.5-1,2.8-2.6,3.7-4.6h-4.5c-0.8,1.5-2.3,2.5-4.4,2.5
			c-2.5,0-5.1-1.6-5.3-4.5h14.8c0.4-3.2-0.5-6-2.7-8.3c-1.7-1.8-4.1-2.8-6.9-2.8c-5.6,0-9.6,4.5-9.6,9.7
			C112.5,33.2,116.5,37.7,122.2,37.7 M122.1,22.1c3.2,0,5,2.4,5.2,4.1h-10.4C117.1,24.4,118.9,22.1,122.1,22.1"/>
	</defs>
	<clipPath id="SVGID_6_">
		<use xlink:href="#SVGID_5_"  style="overflow:visible;"/>
	</clipPath>
	<g class="st2">
		<defs>
			<rect id="SVGID_7_" x="-1189.2" y="-949.3" width="1550" height="2213.6"/>
		</defs>
		<clipPath id="SVGID_8_">
			<use xlink:href="#SVGID_7_"  style="overflow:visible;"/>
		</clipPath>
		<rect x="106.4" y="12.4" class="st3" width="31.4" height="31.5"/>
	</g>
</g>
<g>
	<defs>
		<rect id="SVGID_9_" x="21.7" y="12.2" width="154.6" height="56.9"/>
	</defs>
	<clipPath id="SVGID_10_">
		<use xlink:href="#SVGID_9_"  style="overflow:visible;"/>
	</clipPath>
	<g class="st4">
		<defs>
			<rect id="SVGID_11_" x="-1189.2" y="-949.3" width="1550" height="2213.6"/>
		</defs>
		<clipPath id="SVGID_12_">
			<use xlink:href="#SVGID_11_"  style="overflow:visible;"/>
		</clipPath>
		<g class="st5">
			<g>
				<defs>
					<rect id="SVGID_13_" x="21.7" y="12.2" width="155" height="56.9"/>
				</defs>
				<clipPath id="SVGID_14_">
					<use xlink:href="#SVGID_13_"  style="overflow:visible;"/>
				</clipPath>
				<g class="st6">
					<defs>
						<rect id="SVGID_15_" x="135" y="12.6" width="4.4" height="24.6"/>
					</defs>
					<clipPath id="SVGID_16_">
						<use xlink:href="#SVGID_15_"  style="overflow:visible;"/>
					</clipPath>
					<g class="st7">
						<defs>
							<rect id="SVGID_17_" x="21.7" y="12.2" width="155" height="56.9"/>
						</defs>
						<clipPath id="SVGID_18_">
							<use xlink:href="#SVGID_17_"  style="overflow:visible;"/>
						</clipPath>
						<rect x="128.9" y="6.6" class="st8" width="16.5" height="36.7"/>
					</g>
				</g>
				<g class="st6">
					<defs>
						<path id="SVGID_19_" d="M144,37.2h4.4V22.3h2.9V19h-2.9v-0.9c0-2.6,1.8-2.6,2.9-2.6v-3.4c-3.1,0-7.3,0.4-7.3,5.8v1h-2.3v3.4
							h2.3V37.2z"/>
					</defs>
					<clipPath id="SVGID_20_">
						<use xlink:href="#SVGID_19_"  style="overflow:visible;"/>
					</clipPath>
					<g class="st9">
						<defs>
							<rect id="SVGID_21_" x="21.7" y="12.2" width="155" height="56.9"/>
						</defs>
						<clipPath id="SVGID_22_">
							<use xlink:href="#SVGID_21_"  style="overflow:visible;"/>
						</clipPath>
						<rect x="135.6" y="6.1" class="st10" width="21.7" height="37.1"/>
					</g>
				</g>
				<g class="st6">
					<defs>
						<path id="SVGID_23_" d="M108.1,53.7c1.9-1,3-2.8,3-5c0-2-0.7-3.8-2.4-4.9c-1.3-1-3.1-1.5-5.6-1.5h-8.1v24.6h7.6
							c3.5,0,5.1-0.2,7.1-1.7c1.7-1.2,2.7-3.3,2.7-5.5C112.5,58.5,112.3,55.1,108.1,53.7z M100.1,46.6h2.7c0.9,0,1.6,0.1,2.2,0.4
							c0.7,0.3,1.4,1.1,1.4,2.3c0,1.2-0.4,2-1.4,2.5c-0.6,0.3-1.4,0.3-2.1,0.3h-2.8V46.6z M105.9,62.1c-0.8,0.3-1.7,0.4-2.3,0.4
							h-3.5v-6.2h3.3c0.9,0,1.7,0,2.5,0.3c1,0.4,1.7,1.3,1.7,2.7C107.7,60.8,106.9,61.7,105.9,62.1z"/>
					</defs>
					<clipPath id="SVGID_24_">
						<use xlink:href="#SVGID_23_"  style="overflow:visible;"/>
					</clipPath>
					<g class="st11">
						<defs>
							<rect id="SVGID_25_" x="21.7" y="12.2" width="155" height="56.9"/>
						</defs>
						<clipPath id="SVGID_26_">
							<use xlink:href="#SVGID_25_"  style="overflow:visible;"/>
						</clipPath>
						<rect x="89" y="36.2" class="st12" width="29.5" height="36.7"/>
					</g>
				</g>
				<g class="st6">
					<defs>
						<path id="SVGID_27_" d="M130.2,51.3c-0.8-1.5-2.8-3.2-6.2-3.2c-5.1,0-9.3,3.9-9.3,9.7c0,5.1,3.4,9.7,9.3,9.7
							c2.6,0,5-1.1,6.2-3.2v2.6h4.4V48.6h-4.4V51.3z M129.5,60.4c-0.8,1.7-2.4,2.9-4.9,2.9c-3.9,0-5.6-3.3-5.6-5.5v0
							c0-2.8,2-5.7,5.6-5.7c2.6,0,4.3,1.5,5.1,3.2c0.4,0.8,0.5,1.7,0.5,2.6C130.2,58.8,130,59.6,129.5,60.4z"/>
					</defs>
					<clipPath id="SVGID_28_">
						<use xlink:href="#SVGID_27_"  style="overflow:visible;"/>
					</clipPath>
					<g class="st13">
						<defs>
							<rect id="SVGID_29_" x="21.7" y="12.2" width="155" height="56.9"/>
						</defs>
						<clipPath id="SVGID_30_">
							<use xlink:href="#SVGID_29_"  style="overflow:visible;"/>
						</clipPath>
						<rect x="108.6" y="42" class="st14" width="32" height="31.5"/>
					</g>
				</g>
				<g class="st6">
					<defs>
						<path id="SVGID_31_" d="M148.7,48c-3.3,0-4.9,1.6-5.7,3c0-0.9,0-1.6,0-2.4h-4.1v18.2h4.4V56.8c0-2.6,1.1-4.6,4.2-4.6
							c3.1,0,4,2.1,4,4.8v9.9h4.4v-11C155.9,52.6,154.7,48.1,148.7,48"/>
					</defs>
					<clipPath id="SVGID_32_">
						<use xlink:href="#SVGID_31_"  style="overflow:visible;"/>
					</clipPath>
					<g class="st15">
						<defs>
							<rect id="SVGID_33_" x="21.7" y="12.2" width="155" height="56.9"/>
						</defs>
						<clipPath id="SVGID_34_">
							<use xlink:href="#SVGID_33_"  style="overflow:visible;"/>
						</clipPath>
						<rect x="132.9" y="42" class="st16" width="29" height="30.9"/>
					</g>
				</g>
				<g class="st6">
					<defs>
						<polygon id="SVGID_35_" points="168.6,56.6 176.2,48.6 171,48.6 164.7,55.5 164.7,42.3 160.3,42.3 160.3,66.8 164.7,66.8 
							164.7,57.7 171.2,66.8 176.3,66.8 						"/>
					</defs>
					<clipPath id="SVGID_36_">
						<use xlink:href="#SVGID_35_"  style="overflow:visible;"/>
					</clipPath>
					<g class="st17">
						<defs>
							<rect id="SVGID_37_" x="21.7" y="12.2" width="155" height="56.9"/>
						</defs>
						<clipPath id="SVGID_38_">
							<use xlink:href="#SVGID_37_"  style="overflow:visible;"/>
						</clipPath>
						<rect x="154.2" y="36.2" class="st18" width="28.1" height="36.7"/>
					</g>
				</g>
				<g class="st6">
					<defs>
						<path id="SVGID_39_" d="M69.1,12.6H31.2c-5.2,0-9.5,4.2-9.5,9.4c0,5.2,4.3,9.4,9.5,9.4h15L25.8,51.7c-3.7,3.7-3.7,9.6,0,13.3
							c3.7,3.7,9.7,3.7,13.4,0l20.4-20.3v14.9c0,5.2,4.3,9.4,9.5,9.4s9.5-4.2,9.5-9.4V22C78.6,16.8,74.3,12.6,69.1,12.6"/>
					</defs>
					<clipPath id="SVGID_40_">
						<use xlink:href="#SVGID_39_"  style="overflow:visible;"/>
					</clipPath>
					<g class="st19">
						<defs>
							<rect id="SVGID_41_" x="21.7" y="12.2" width="155" height="56.9"/>
						</defs>
						<clipPath id="SVGID_42_">
							<use xlink:href="#SVGID_41_"  style="overflow:visible;"/>
						</clipPath>
						<rect x="15.6" y="6.5" class="st20" width="69" height="68.6"/>
					</g>
				</g>
			</g>
		</g>
	</g>
</g>
</svg>
