<?xml version="1.0" encoding="utf-8"?>
<!-- Generator: Adobe Illustrator 21.1.0, SVG Export Plug-In . SVG Version: 6.00 Build 0)  -->
<svg version="1.1" id="Capa_1" xmlns="http://www.w3.org/2000/svg" xmlns:xlink="http://www.w3.org/1999/xlink" x="0px" y="0px"
	 viewBox="0 0 198 81.2" style="enable-background:new 0 0 198 81.2;" xml:space="preserve">
<style type="text/css">
	.st0{clip-path:url(#SVGID_2_);}
	.st1{clip-path:url(#SVGID_4_);fill:#FFFFFF;}
	.st2{clip-path:url(#SVGID_6_);}
	.st3{clip-path:url(#SVGID_8_);fill:#FFFFFF;}
	.st4{clip-path:url(#SVGID_10_);}
	.st5{clip-path:url(#SVGID_12_);fill:#FFFFFF;}
	.st6{clip-path:url(#SVGID_14_);}
	.st7{clip-path:url(#SVGID_16_);fill:#FFFFFF;}
	.st8{clip-path:url(#SVGID_18_);}
	.st9{clip-path:url(#SVGID_20_);fill:#FFFFFF;}
	.st10{clip-path:url(#SVGID_22_);}
	.st11{clip-path:url(#SVGID_24_);fill:#FFFFFF;}
	.st12{clip-path:url(#SVGID_26_);}
	.st13{clip-path:url(#SVGID_28_);fill:#FFFFFF;}
	.st14{clip-path:url(#SVGID_30_);}
	.st15{clip-path:url(#SVGID_32_);fill:#FFFFFF;}
	.st16{clip-path:url(#SVGID_34_);}
	.st17{clip-path:url(#SVGID_36_);fill:#FFFFFF;}
	.st18{clip-path:url(#SVGID_38_);}
	.st19{clip-path:url(#SVGID_40_);fill:#FFFFFF;}
</style>
<g>
	<defs>
		<path id="SVGID_1_" d="M90.6,29.2c1.3,4.7,1.5,6.1,0.8,12.9c-0.3,2.6-0.7,4.5-1.1,6c-0.6,2.5-1,4.1-0.2,6.6c1.1,4,5.2,4.4,5.5,4.3
			c0.1-0.6-0.3-1.6-0.3-4.3c-0.1-3.8,0.6-5.8,0.8-6.6c0.4,0,0.9,0,1.3,0c3.6-0.2,7.3-2.3,8.9-5c2.8-4.4,2.4-8.8,1.2-11.3
			c-0.9-1.8-2.3-2.9-3.9-2.9c-3.3-0.1-5.6,3.9-6.4,5.7C95.6,29.5,92.8,29.1,90.6,29.2 M101.7,41.1L101.7,41.1c-1.1,3-2.6,4.3-5,4.5
			l0,0c0,0-0.1,0-0.1,0c0.2-0.8,1.1-4.5,1.8-6.8c0.8-2.7,1.8-4.2,2.8-4.3c0,0,0.1,0,0.2,0c0.2,0,0.3,0.1,0.5,0.4
			C102.6,36,102.5,39.1,101.7,41.1"/>
	</defs>
	<clipPath id="SVGID_2_">
		<use xlink:href="#SVGID_1_"  style="overflow:visible;"/>
	</clipPath>
	<g class="st0">
		<defs>
			<rect id="SVGID_3_" x="-1227.9" y="-1174.4" width="1562.7" height="2231.7"/>
		</defs>
		<clipPath id="SVGID_4_">
			<use xlink:href="#SVGID_3_"  style="overflow:visible;"/>
		</clipPath>
		<rect x="83.6" y="22.9" class="st1" width="30.9" height="42.3"/>
	</g>
</g>
<g>
	<defs>
		<path id="SVGID_5_" d="M62.8,50.7c4.7-0.3,5.7-3.5,5.8-4.7c0.1-1,2.7-20.3,2.7-20.3l-0.3,0c-6.5,0.5-7.1,8.4-7.1,8.4
			s-2.1,15.3-2.1,15.6C61.8,49.9,61.7,50.8,62.8,50.7"/>
	</defs>
	<clipPath id="SVGID_6_">
		<use xlink:href="#SVGID_5_"  style="overflow:visible;"/>
	</clipPath>
	<g class="st2">
		<defs>
			<rect id="SVGID_7_" x="-1227.9" y="-1174.4" width="1562.7" height="2231.7"/>
		</defs>
		<clipPath id="SVGID_8_">
			<use xlink:href="#SVGID_7_"  style="overflow:visible;"/>
		</clipPath>
		<rect x="55.7" y="19.5" class="st3" width="21.8" height="37.3"/>
	</g>
</g>
<g>
	<defs>
		<path id="SVGID_9_" d="M112.2,29.1c0,0,0.3,0.6-0.6,4.3c-0.9,3.6-1.7,8.2-0.7,10.6c1,2.3,3,4,5.5,4c-0.1,0-0.9-2.3-0.7-4.4
			c0.2-2.1,1.4-7,1.9-9.3c0.4-2.3-0.5-4.3-2.2-4.8C113.6,28.9,112.2,29.1,112.2,29.1"/>
	</defs>
	<clipPath id="SVGID_10_">
		<use xlink:href="#SVGID_9_"  style="overflow:visible;"/>
	</clipPath>
	<g class="st4">
		<defs>
			<rect id="SVGID_11_" x="-1227.9" y="-1174.4" width="1562.7" height="2231.7"/>
		</defs>
		<clipPath id="SVGID_12_">
			<use xlink:href="#SVGID_11_"  style="overflow:visible;"/>
		</clipPath>
		<rect x="104.3" y="23" class="st5" width="19.4" height="31.1"/>
	</g>
</g>
<g>
	<defs>
		<path id="SVGID_13_" d="M171.3,43.9c0,0-0.7-1.6-1.1-5.9c-0.5-4.3,1-11.5,1-11.6l0-0.2l-0.2-0.1c-0.1,0-2.2-1.1-5.6-1.1
			c-3.2,0-6.3,1.5-8.7,4.1c-2,2.2-3,4.6-3.4,7.5c-0.4,3.5,0.8,5.6,2.2,6.8c1.5,1.3,3.8,0.8,4.4,0.6c2.7-1.1,4.1-3.7,4.7-5.1
			c1.6,5.4,5.5,5.4,6.3,5.3c0.3,0,0.5-0.1,0.5-0.1L171.3,43.9C171.3,43.9,171.3,43.9,171.3,43.9C171.3,43.9,171.3,43.9,171.3,43.9
			 M162.1,29.4L162.1,29.4c1-1.1,2.3-1.8,3.9-1.9c-0.3,0.8-1,2.8-1.6,4.5c-0.5,1.3-0.9,2.6-1.3,3.6c-0.8,2.2-1.7,3.1-2.3,3.1
			C158.6,38.9,159.7,32.2,162.1,29.4"/>
	</defs>
	<clipPath id="SVGID_14_">
		<use xlink:href="#SVGID_13_"  style="overflow:visible;"/>
	</clipPath>
	<g class="st6">
		<defs>
			<rect id="SVGID_15_" x="-1227.9" y="-1174.4" width="1562.7" height="2231.7"/>
		</defs>
		<clipPath id="SVGID_16_">
			<use xlink:href="#SVGID_15_"  style="overflow:visible;"/>
		</clipPath>
		<rect x="147.1" y="18.9" class="st7" width="30.4" height="31.5"/>
	</g>
</g>
<g>
	<defs>
		<path id="SVGID_17_" d="M81.9,31c-5.4,0.4-10.1,4.7-10.9,10.1c-0.8,5.5,2.8,9,8.7,8.6c2.5-0.2,5.3-1.4,7.3-3.1
			c0.8-0.7,0.3-1.4,0.3-1.4L86.5,44c0,0-0.6-0.7-1.4-0.1c-0.8,0.6-2.5,1.3-4,1.4c-2.6,0.2-4.2-1.3-3.9-3.6c0.2,0,8.6-0.6,11.1-0.8
			c0.8-0.1,1-0.7,1-0.9c0.1-0.3,0.1-0.6,0.2-0.8c0.3-2.1-0.1-4.1-1.3-5.6C86.8,31.8,84.5,30.9,81.9,31 M85.2,37.7L85.2,37.7
			l-7.5,0.5c0,0,0.5-3.4,4.1-3.7C85.3,34.3,85.2,37.7,85.2,37.7"/>
	</defs>
	<clipPath id="SVGID_18_">
		<use xlink:href="#SVGID_17_"  style="overflow:visible;"/>
	</clipPath>
	<g class="st8">
		<defs>
			<rect id="SVGID_19_" x="-1227.9" y="-1174.4" width="1562.7" height="2231.7"/>
		</defs>
		<clipPath id="SVGID_20_">
			<use xlink:href="#SVGID_19_"  style="overflow:visible;"/>
		</clipPath>
		<rect x="64.9" y="24.9" class="st9" width="30.7" height="30.9"/>
	</g>
</g>
<g>
	<defs>
		<path id="SVGID_21_" d="M121.7,34.3c0,0-3.6-2-1.5-4.5c1.8-2,4.9-2.3,7.5-2.3c2.7,0,6.7,0.4,7,4c0.2,2.5-1,3.8-5.2,7.6
			c-1.9,1.8-3.8,3.4-4,4.2c0.9-0.5,12.8-2.7,10.2,6.4c-4-3.6-8.2-3.2-9.3-3.2c-3,0.3-6.5,0.5-6.9-3.1c-0.1-0.5-0.1-3,4.8-7.3
			c4.4-3.9,4.4-5.2,3.5-5.6C126.8,30,122.9,31.4,121.7,34.3"/>
	</defs>
	<clipPath id="SVGID_22_">
		<use xlink:href="#SVGID_21_"  style="overflow:visible;"/>
	</clipPath>
	<g class="st10">
		<defs>
			<rect id="SVGID_23_" x="-1227.9" y="-1174.4" width="1562.7" height="2231.7"/>
		</defs>
		<clipPath id="SVGID_24_">
			<use xlink:href="#SVGID_23_"  style="overflow:visible;"/>
		</clipPath>
		<rect x="113.4" y="21.5" class="st11" width="28.8" height="34.3"/>
	</g>
</g>
<g>
	<defs>
		<path id="SVGID_25_" d="M138.9,33.1c0,0-3.6-2.1-1.5-4.5c1.8-2,4.9-2.3,7.5-2.3c2.7,0,6.7,0.4,7,4c0.2,2.5-1,3.8-5.2,7.6
			c-1.9,1.8-3.8,3.4-4,4.2c0.9-0.5,12.8-2.7,10.2,6.4c-4-3.6-8.2-3.2-9.3-3.2c-3,0.3-6.5,0.5-6.9-3.1c-0.1-0.6-0.1-3,4.8-7.3
			c4.4-3.9,4.4-5.2,3.5-5.6C143.9,28.8,140,30.2,138.9,33.1"/>
	</defs>
	<clipPath id="SVGID_26_">
		<use xlink:href="#SVGID_25_"  style="overflow:visible;"/>
	</clipPath>
	<g class="st12">
		<defs>
			<rect id="SVGID_27_" x="-1227.9" y="-1174.4" width="1562.7" height="2231.7"/>
		</defs>
		<clipPath id="SVGID_28_">
			<use xlink:href="#SVGID_27_"  style="overflow:visible;"/>
		</clipPath>
		<rect x="130.6" y="20.3" class="st13" width="28.8" height="34.3"/>
	</g>
</g>
<g>
	<defs>
		<path id="SVGID_29_" d="M53.5,33c-5.4,0.4-10.1,4.7-10.9,10.1c-0.8,5.4,2.8,9,8.7,8.6c2.5-0.2,5.3-1.4,7.3-3.1
			c0.8-0.7,0.3-1.4,0.3-1.4L58,46c0,0-0.6-0.7-1.4-0.1c-0.8,0.6-2.5,1.3-4,1.4c-2.6,0.2-4.2-1.3-3.9-3.6c0.2,0,8.6-0.6,11.1-0.8
			c0.8-0.1,1-0.7,1-0.9c0.1-0.3,0.1-0.6,0.2-0.8c0.3-2.1-0.1-4.1-1.3-5.6C58.3,33.8,56,32.8,53.5,33 M56.7,39.6L56.7,39.6l-7.5,0.5
			c0,0,0.5-3.4,4.1-3.7C56.8,36.2,56.7,39.6,56.7,39.6"/>
	</defs>
	<clipPath id="SVGID_30_">
		<use xlink:href="#SVGID_29_"  style="overflow:visible;"/>
	</clipPath>
	<g class="st14">
		<defs>
			<rect id="SVGID_31_" x="-1227.9" y="-1174.4" width="1562.7" height="2231.7"/>
		</defs>
		<clipPath id="SVGID_32_">
			<use xlink:href="#SVGID_31_"  style="overflow:visible;"/>
		</clipPath>
		<rect x="36.4" y="26.9" class="st15" width="30.7" height="30.9"/>
	</g>
</g>
<g>
	<defs>
		<path id="SVGID_33_" d="M42.7,42.5c0,0.2-0.1,0.4-0.1,0.6c0,0.2,0,0.4-0.1,0.6c0,0,0,0,0,0c0,0-0.9,4.3-3.7,4.5
			c-2.3,0.2-3.2-1-2.9-3.6c0,0,0.5-3.3,0.7-5c0.1-0.6,0.7-1,1.3-1.1c1.4-0.1,3.5-0.2,3.5-0.2l0.4-2.7c0,0,0.3-1-1.2-0.9
			c-0.8,0.1-1.6,0.1-2.4,0.2c-0.8,0.1-0.9,0.1-1,0.1c0-0.2,0.5-3.6,0.8-5.5c0-0.8-1.1-0.6-1.7-0.2c-2.1,1.5-4,2.9-6.2,4.8
			c-2.1,1.7-3.3,3-3.4,3.8c-0.1,0.6-0.6,1.6,0.3,1.5c0.2,0,3.1-0.2,3.2-0.2c0,0,0,0,0.1,0c0,0.2-0.9,6.6-0.9,6.6
			c-0.7,5,2.7,7.4,6.4,7.1c4.7-0.3,6.5-3.6,7.1-5.8C43.4,48.4,42.3,45.1,42.7,42.5"/>
	</defs>
	<clipPath id="SVGID_34_">
		<use xlink:href="#SVGID_33_"  style="overflow:visible;"/>
	</clipPath>
	<g class="st16">
		<defs>
			<rect id="SVGID_35_" x="-1227.9" y="-1174.4" width="1562.7" height="2231.7"/>
		</defs>
		<clipPath id="SVGID_36_">
			<use xlink:href="#SVGID_35_"  style="overflow:visible;"/>
		</clipPath>
		<rect x="20.4" y="22.8" class="st17" width="28.7" height="36.2"/>
	</g>
</g>
<g>
	<defs>
		<path id="SVGID_37_" d="M117.3,27c0,0.1,0.3,0.6,0.1,0.8c-0.2,0.1-0.3,0.1-0.4-0.2c-0.1-0.5,0-0.9-0.4-1.1c-0.3-0.1-1.1,1.2-4,0.2
			c-2.9-1-4.2-3.7-4.4-4.4c0,0-0.1-0.2,0.8,0.2c0.8,0.4,1.7,0.2,3.2-0.3c1.6-0.5,5.2,0.3,5.1,3.3c0,0-1.8-3.7-6.8-1.7
			c0,0-0.3,0.2,0.3,0.2c0.6,0,3.8-0.7,5.5,1.2C117,26.1,117.3,27,117.3,27"/>
	</defs>
	<clipPath id="SVGID_38_">
		<use xlink:href="#SVGID_37_"  style="overflow:visible;"/>
	</clipPath>
	<g class="st18">
		<defs>
			<rect id="SVGID_39_" x="-1227.9" y="-1174.4" width="1562.7" height="2231.7"/>
		</defs>
		<clipPath id="SVGID_40_">
			<use xlink:href="#SVGID_39_"  style="overflow:visible;"/>
		</clipPath>
		<rect x="102.1" y="16" class="st19" width="21.5" height="18"/>
	</g>
</g>
</svg>
