<?xml version="1.0" encoding="utf-8"?>
<!-- Generator: Adobe Illustrator 21.1.0, SVG Export Plug-In . SVG Version: 6.00 Build 0)  -->
<svg version="1.1" id="Capa_1" xmlns="http://www.w3.org/2000/svg" xmlns:xlink="http://www.w3.org/1999/xlink" x="0px" y="0px"
	 viewBox="0 0 198 81.2" style="enable-background:new 0 0 198 81.2;" xml:space="preserve">
<style type="text/css">
	.st0{clip-path:url(#SVGID_2_);}
	.st1{clip-path:url(#SVGID_4_);fill:#FFFFFF;}
	.st2{clip-path:url(#SVGID_6_);}
	.st3{clip-path:url(#SVGID_8_);fill:#FFFFFF;}
	.st4{clip-path:url(#SVGID_10_);}
	.st5{clip-path:url(#SVGID_12_);fill:#FFFFFF;}
</style>
<g>
	<defs>
		<path id="SVGID_1_" d="M64.3,5.1v30.5c0.9-0.6,1.6-1.2,2.2-2c0.3-0.4,0.9-0.6,1.5-0.4c0.5,0.2,0.8,0.8,0.7,1.3
			c-1.1,6.8,0.1,9.5,1.3,9.7c1.6,0.3,4.7-2.4,5.5-6.2c0.1-0.6,0.7-1.1,1.4-1c0.6,0.1,1.1,0.7,1,1.3c-0.2,1.7-0.1,3.8,1.2,4.6
			c1.1,0.7,3.3,0.3,5.8-0.9C85,41.8,85,41.4,85,41c0-1.3,0.3-2.5,0.8-3.6c1.2-2.7,3.5-4.1,6.1-3.6c1.7,0.3,2.3,1.4,2.3,2.4
			c0,0.1,0,0.3,0,0.4c-0.3,2-2.9,4.7-6.1,6.7c0.1,0.2,0.3,0.5,0.5,0.6c1.4,1.1,4.3,0.2,7.8-2.5l1.1-0.9c2.7-2.3,7.4-6.2,12.9-1.7
			l1.8,1.6c1.7,1.5,2.5,2.2,4.4,2.2c1,0,1.6-0.5,2.6-1.3c1-0.9,2.3-1.9,4.5-2.6c0,0,0.1,0,0.1,0c3.2-0.7,5.7,1.4,7.9,3.3
			c1.1,0.9,2.1,1.7,3,2.1V5.1H64.3z"/>
	</defs>
	<clipPath id="SVGID_2_">
		<use xlink:href="#SVGID_1_"  style="overflow:visible;"/>
	</clipPath>
	<g class="st0">
		<defs>
			<rect id="SVGID_3_" x="-587" y="-833.3" width="1123.7" height="1604.7"/>
		</defs>
		<clipPath id="SVGID_4_">
			<use xlink:href="#SVGID_3_"  style="overflow:visible;"/>
		</clipPath>
		<rect x="59.9" y="0.7" class="st1" width="79" height="48.1"/>
	</g>
</g>
<g>
	<defs>
		<path id="SVGID_5_" d="M91.6,36.3c-0.1,0-0.1,0-0.2-0.1c-2-0.4-3,1.2-3.4,2.2c-0.3,0.7-0.5,1.5-0.5,2.3
			C90.1,38.8,91.6,36.9,91.6,36.3"/>
	</defs>
	<clipPath id="SVGID_6_">
		<use xlink:href="#SVGID_5_"  style="overflow:visible;"/>
	</clipPath>
	<g class="st2">
		<defs>
			<rect id="SVGID_7_" x="-587" y="-833.3" width="1123.7" height="1604.7"/>
		</defs>
		<clipPath id="SVGID_8_">
			<use xlink:href="#SVGID_7_"  style="overflow:visible;"/>
		</clipPath>
		<rect x="83.1" y="31.8" class="st3" width="13" height="13.3"/>
	</g>
</g>
<g>
	<defs>
		<path id="SVGID_9_" d="M130,43.6c-1.9-1.6-3.7-3.2-5.7-2.8c-1.6,0.5-2.6,1.3-3.6,2.1c-1.1,0.9-2.3,1.9-4.2,1.9
			c-2.8,0-4.2-1.2-6-2.8l-1.7-1.5c-3.6-3-6.4-1.1-9.7,1.7l-1.2,1c-5.8,4.6-9.1,3.9-10.9,2.5c-0.5-0.4-0.9-0.8-1.2-1.4
			c-2.1,1-4.2,1.6-5.9,1.4c-1.2-0.1-3-0.8-3.8-2.9c-1.8,2.5-4.3,4.1-6.5,3.7c-1.5-0.3-3.8-1.7-3.8-7.4c0-0.5,0-1.1,0.1-1.7
			c-0.4,0.3-0.9,0.6-1.4,0.8c-0.1,0-0.1,0-0.2,0v36.9h70.2v-29c-0.1,0-0.3,0.1-0.4,0C132.7,45.9,131.4,44.8,130,43.6"/>
	</defs>
	<clipPath id="SVGID_10_">
		<use xlink:href="#SVGID_9_"  style="overflow:visible;"/>
	</clipPath>
	<g class="st4">
		<defs>
			<rect id="SVGID_11_" x="-587" y="-833.3" width="1123.7" height="1604.7"/>
		</defs>
		<clipPath id="SVGID_12_">
			<use xlink:href="#SVGID_11_"  style="overflow:visible;"/>
		</clipPath>
		<rect x="59.9" y="33.1" class="st5" width="79" height="46.6"/>
	</g>
</g>
</svg>
