<?xml version="1.0" encoding="utf-8"?>
<!-- Generator: Adobe Illustrator 21.1.0, SVG Export Plug-In . SVG Version: 6.00 Build 0)  -->
<svg version="1.1" id="Capa_1" xmlns="http://www.w3.org/2000/svg" xmlns:xlink="http://www.w3.org/1999/xlink" x="0px" y="0px"
	 viewBox="0 0 198 81.2" style="enable-background:new 0 0 198 81.2;" xml:space="preserve">
<style type="text/css">
	.st0{clip-path:url(#SVGID_2_);}
	.st1{clip-path:url(#SVGID_4_);fill:#FFFFFF;}
	.st2{clip-path:url(#SVGID_6_);}
	.st3{clip-path:url(#SVGID_8_);fill:#FFFFFF;}
	.st4{clip-path:url(#SVGID_10_);}
	.st5{clip-path:url(#SVGID_12_);fill:#FFFFFF;}
	.st6{clip-path:url(#SVGID_14_);}
	.st7{clip-path:url(#SVGID_16_);fill:#FFFFFF;}
	.st8{clip-path:url(#SVGID_18_);}
	.st9{clip-path:url(#SVGID_20_);fill:#FFFFFF;}
	.st10{clip-path:url(#SVGID_22_);}
	.st11{clip-path:url(#SVGID_24_);fill:#FFFFFF;}
	.st12{clip-path:url(#SVGID_26_);}
	.st13{clip-path:url(#SVGID_28_);fill:#FFFFFF;}
	.st14{clip-path:url(#SVGID_30_);}
	.st15{clip-path:url(#SVGID_32_);fill:#FFFFFF;}
	.st16{clip-path:url(#SVGID_34_);}
	.st17{clip-path:url(#SVGID_36_);fill:#FFFFFF;}
	.st18{clip-path:url(#SVGID_38_);}
	.st19{clip-path:url(#SVGID_40_);fill:#FFFFFF;}
	.st20{clip-path:url(#SVGID_42_);}
	.st21{clip-path:url(#SVGID_44_);fill:#FFFFFF;}
	.st22{clip-path:url(#SVGID_46_);}
	.st23{clip-path:url(#SVGID_48_);fill:#FFFFFF;}
	.st24{clip-path:url(#SVGID_50_);}
	.st25{clip-path:url(#SVGID_52_);fill:#FFFFFF;}
	.st26{clip-path:url(#SVGID_54_);}
	.st27{clip-path:url(#SVGID_56_);fill:#FFFFFF;}
	.st28{clip-path:url(#SVGID_58_);}
	.st29{clip-path:url(#SVGID_60_);fill:#FFFFFF;}
	.st30{clip-path:url(#SVGID_62_);}
	.st31{clip-path:url(#SVGID_64_);fill:#FFFFFF;}
	.st32{clip-path:url(#SVGID_66_);}
	.st33{clip-path:url(#SVGID_68_);enable-background:new    ;}
	.st34{clip-path:url(#SVGID_70_);}
	.st35{clip-path:url(#SVGID_72_);}
	.st36{clip-path:url(#SVGID_74_);fill:#FFFFFF;}
	.st37{clip-path:url(#SVGID_76_);}
	.st38{clip-path:url(#SVGID_78_);fill:#FFFFFF;}
	.st39{clip-path:url(#SVGID_80_);}
	.st40{clip-path:url(#SVGID_82_);fill:#FFFFFF;}
	.st41{clip-path:url(#SVGID_84_);}
	.st42{clip-path:url(#SVGID_86_);fill:#FFFFFF;}
	.st43{clip-path:url(#SVGID_88_);}
	.st44{clip-path:url(#SVGID_90_);fill:#FFFFFF;}
	.st45{clip-path:url(#SVGID_92_);}
	.st46{clip-path:url(#SVGID_94_);fill:#FFFFFF;}
	.st47{clip-path:url(#SVGID_96_);}
	.st48{clip-path:url(#SVGID_98_);fill:#FFFFFF;}
	.st49{clip-path:url(#SVGID_100_);}
	.st50{clip-path:url(#SVGID_102_);fill:#FFFFFF;}
	.st51{clip-path:url(#SVGID_104_);}
	.st52{clip-path:url(#SVGID_106_);fill:#FFFFFF;}
	.st53{clip-path:url(#SVGID_108_);}
	.st54{clip-path:url(#SVGID_110_);fill:#FFFFFF;}
	.st55{clip-path:url(#SVGID_112_);}
	.st56{clip-path:url(#SVGID_114_);fill:#FFFFFF;}
	.st57{clip-path:url(#SVGID_116_);}
	.st58{clip-path:url(#SVGID_118_);fill:#FFFFFF;}
	.st59{clip-path:url(#SVGID_120_);}
	.st60{clip-path:url(#SVGID_122_);fill:#FFFFFF;}
	.st61{clip-path:url(#SVGID_124_);}
	.st62{clip-path:url(#SVGID_126_);fill:#FFFFFF;}
	.st63{clip-path:url(#SVGID_128_);}
	.st64{clip-path:url(#SVGID_130_);fill:#FFFFFF;}
	.st65{clip-path:url(#SVGID_132_);}
	.st66{clip-path:url(#SVGID_134_);fill:#FFFFFF;}
</style>
<g>
	<defs>
		<path id="SVGID_1_" d="M77.7,48.5c0.1,0.2,0.3,0.3,0.5,0.3c0.2,0,0.4-0.1,0.5-0.3c0.1-0.2,0.1-0.5,0.1-1l0-1.5l-1.3,0l0.1,1.5
			C77.5,48,77.6,48.3,77.7,48.5"/>
	</defs>
	<clipPath id="SVGID_2_">
		<use xlink:href="#SVGID_1_"  style="overflow:visible;"/>
	</clipPath>
	<g class="st0">
		<defs>
			<rect id="SVGID_3_" x="-56.8" y="-827" width="915.9" height="1308"/>
		</defs>
		<clipPath id="SVGID_4_">
			<use xlink:href="#SVGID_3_"  style="overflow:visible;"/>
		</clipPath>
		<rect x="73.9" y="42.4" class="st1" width="8.5" height="10"/>
	</g>
</g>
<g>
	<defs>
		<path id="SVGID_5_" d="M88.5,10.2c0.4,0,0.6-0.1,0.9-0.3c0.2-0.2,0.3-0.5,0.3-0.8c0-0.3-0.1-0.6-0.3-0.8C89.1,8.1,88.8,8,88.5,8
			c-0.4,0-0.6,0.1-0.9,0.3c-0.2,0.2-0.3,0.5-0.3,0.8c0,0.3,0.1,0.6,0.3,0.8C87.8,10.1,88.1,10.2,88.5,10.2"/>
	</defs>
	<clipPath id="SVGID_6_">
		<use xlink:href="#SVGID_5_"  style="overflow:visible;"/>
	</clipPath>
	<g class="st2">
		<defs>
			<rect id="SVGID_7_" x="-56.8" y="-827" width="915.9" height="1308"/>
		</defs>
		<clipPath id="SVGID_8_">
			<use xlink:href="#SVGID_7_"  style="overflow:visible;"/>
		</clipPath>
		<rect x="83.7" y="4.4" class="st3" width="9.5" height="9.4"/>
	</g>
</g>
<g>
	<defs>
		<polygon id="SVGID_9_" points="119.9,16.8 118.2,17.6 119.9,18.5 		"/>
	</defs>
	<clipPath id="SVGID_10_">
		<use xlink:href="#SVGID_9_"  style="overflow:visible;"/>
	</clipPath>
	<g class="st4">
		<defs>
			<rect id="SVGID_11_" x="-56.8" y="-827" width="915.9" height="1308"/>
		</defs>
		<clipPath id="SVGID_12_">
			<use xlink:href="#SVGID_11_"  style="overflow:visible;"/>
		</clipPath>
		<rect x="114.6" y="13.3" class="st5" width="8.8" height="8.8"/>
	</g>
</g>
<g>
	<defs>
		<polygon id="SVGID_13_" points="85.6,63 87,63.6 87,61.7 		"/>
	</defs>
	<clipPath id="SVGID_14_">
		<use xlink:href="#SVGID_13_"  style="overflow:visible;"/>
	</clipPath>
	<g class="st6">
		<defs>
			<rect id="SVGID_15_" x="-56.8" y="-827" width="915.9" height="1308"/>
		</defs>
		<clipPath id="SVGID_16_">
			<use xlink:href="#SVGID_15_"  style="overflow:visible;"/>
		</clipPath>
		<rect x="82" y="58.1" class="st7" width="8.6" height="9.1"/>
	</g>
</g>
<g>
	<defs>
		<path id="SVGID_17_" d="M84,59.9c0-0.4-0.2-0.8-0.6-1.2l-0.9-0.9l-2.2,2.4l0.9,0.9c0.4,0.4,0.8,0.6,1.2,0.6c0.4,0,0.8-0.2,1.1-0.6
			C83.8,60.7,84,60.3,84,59.9"/>
	</defs>
	<clipPath id="SVGID_18_">
		<use xlink:href="#SVGID_17_"  style="overflow:visible;"/>
	</clipPath>
	<g class="st8">
		<defs>
			<rect id="SVGID_19_" x="-56.8" y="-827" width="915.9" height="1308"/>
		</defs>
		<clipPath id="SVGID_20_">
			<use xlink:href="#SVGID_19_"  style="overflow:visible;"/>
		</clipPath>
		<rect x="76.7" y="54.2" class="st9" width="10.9" height="11"/>
	</g>
</g>
<g>
	<defs>
		<path id="SVGID_21_" d="M96.9,10.2c0.4,0,0.6-0.1,0.9-0.3c0.2-0.2,0.3-0.5,0.3-0.8c0-0.3-0.1-0.6-0.3-0.8C97.5,8.1,97.2,8,96.9,8
			c-0.4,0-0.6,0.1-0.9,0.3c-0.2,0.2-0.3,0.5-0.3,0.8c0,0.3,0.1,0.6,0.3,0.8C96.2,10.1,96.5,10.2,96.9,10.2"/>
	</defs>
	<clipPath id="SVGID_22_">
		<use xlink:href="#SVGID_21_"  style="overflow:visible;"/>
	</clipPath>
	<g class="st10">
		<defs>
			<rect id="SVGID_23_" x="-56.8" y="-827" width="915.9" height="1308"/>
		</defs>
		<clipPath id="SVGID_24_">
			<use xlink:href="#SVGID_23_"  style="overflow:visible;"/>
		</clipPath>
		<rect x="92.1" y="4.4" class="st11" width="9.5" height="9.4"/>
	</g>
</g>
<g>
	<defs>
		<path id="SVGID_25_" d="M120.3,35.5c-0.2,0-0.4,0.1-0.5,0.3c-0.1,0.2-0.2,0.5-0.2,1v1.6h1.3v-1.6c0-0.5,0-0.8-0.1-1
			C120.7,35.6,120.5,35.5,120.3,35.5"/>
	</defs>
	<clipPath id="SVGID_26_">
		<use xlink:href="#SVGID_25_"  style="overflow:visible;"/>
	</clipPath>
	<g class="st12">
		<defs>
			<rect id="SVGID_27_" x="-56.8" y="-827" width="915.9" height="1308"/>
		</defs>
		<clipPath id="SVGID_28_">
			<use xlink:href="#SVGID_27_"  style="overflow:visible;"/>
		</clipPath>
		<rect x="116.1" y="31.9" class="st13" width="8.4" height="10"/>
	</g>
</g>
<g>
	<defs>
		<path id="SVGID_29_" d="M118.3,35.6c-0.2,0-0.3,0.1-0.4,0.2c-0.1,0.1-0.1,0.4-0.1,0.8v1.7h1v-1.9c0-0.3,0-0.5-0.1-0.7
			C118.6,35.7,118.5,35.6,118.3,35.6"/>
	</defs>
	<clipPath id="SVGID_30_">
		<use xlink:href="#SVGID_29_"  style="overflow:visible;"/>
	</clipPath>
	<g class="st14">
		<defs>
			<rect id="SVGID_31_" x="-56.8" y="-827" width="915.9" height="1308"/>
		</defs>
		<clipPath id="SVGID_32_">
			<use xlink:href="#SVGID_31_"  style="overflow:visible;"/>
		</clipPath>
		<rect x="114.2" y="32" class="st15" width="8.2" height="9.9"/>
	</g>
</g>
<g>
	<defs>
		<path id="SVGID_33_" d="M92.3,63.1L91,62.8L90.4,66l1.2,0.3c0.5,0.1,1,0.1,1.3-0.2c0.3-0.2,0.5-0.6,0.6-1.1c0.1-0.5,0-1-0.2-1.3
			C93.2,63.4,92.8,63.2,92.3,63.1"/>
	</defs>
	<clipPath id="SVGID_34_">
		<use xlink:href="#SVGID_33_"  style="overflow:visible;"/>
	</clipPath>
	<g class="st16">
		<defs>
			<rect id="SVGID_35_" x="-56.8" y="-827" width="915.9" height="1308"/>
		</defs>
		<clipPath id="SVGID_36_">
			<use xlink:href="#SVGID_35_"  style="overflow:visible;"/>
		</clipPath>
		<rect x="86.9" y="59.2" class="st17" width="10.4" height="10.7"/>
	</g>
</g>
<g>
	<defs>
		<polygon id="SVGID_37_" points="112.7,8.3 112.1,9.4 113.2,9.4 		"/>
	</defs>
	<clipPath id="SVGID_38_">
		<use xlink:href="#SVGID_37_"  style="overflow:visible;"/>
	</clipPath>
	<g class="st18">
		<defs>
			<rect id="SVGID_39_" x="-56.8" y="-827" width="915.9" height="1308"/>
		</defs>
		<clipPath id="SVGID_40_">
			<use xlink:href="#SVGID_39_"  style="overflow:visible;"/>
		</clipPath>
		<rect x="108.5" y="4.7" class="st19" width="8.2" height="8.3"/>
	</g>
</g>
<g>
	<defs>
		<polygon id="SVGID_41_" points="119.8,30.1 118.2,30.9 119.8,31.8 		"/>
	</defs>
	<clipPath id="SVGID_42_">
		<use xlink:href="#SVGID_41_"  style="overflow:visible;"/>
	</clipPath>
	<g class="st20">
		<defs>
			<rect id="SVGID_43_" x="-56.8" y="-827" width="915.9" height="1308"/>
		</defs>
		<clipPath id="SVGID_44_">
			<use xlink:href="#SVGID_43_"  style="overflow:visible;"/>
		</clipPath>
		<rect x="114.6" y="26.6" class="st21" width="8.8" height="8.8"/>
	</g>
</g>
<g>
	<defs>
		<path id="SVGID_45_" d="M107.3,8.6c0.1-0.1,0.1-0.1,0.1-0.3c0-0.1,0-0.2-0.1-0.3C107.2,8,107,8,106.8,8h-1.1v0.7h1.2
			C107.1,8.7,107.2,8.7,107.3,8.6"/>
	</defs>
	<clipPath id="SVGID_46_">
		<use xlink:href="#SVGID_45_"  style="overflow:visible;"/>
	</clipPath>
	<g class="st22">
		<defs>
			<rect id="SVGID_47_" x="-56.8" y="-827" width="915.9" height="1308"/>
		</defs>
		<clipPath id="SVGID_48_">
			<use xlink:href="#SVGID_47_"  style="overflow:visible;"/>
		</clipPath>
		<rect x="102.1" y="4.4" class="st23" width="9" height="7.9"/>
	</g>
</g>
<g>
	<defs>
		<path id="SVGID_49_" d="M107.6,9.7c0-0.2-0.1-0.3-0.2-0.3c-0.1-0.1-0.3-0.1-0.6-0.1h-1.1v0.9h1c0.3,0,0.6,0,0.7-0.1
			C107.5,10,107.6,9.9,107.6,9.7"/>
	</defs>
	<clipPath id="SVGID_50_">
		<use xlink:href="#SVGID_49_"  style="overflow:visible;"/>
	</clipPath>
	<g class="st24">
		<defs>
			<rect id="SVGID_51_" x="-56.8" y="-827" width="915.9" height="1308"/>
		</defs>
		<clipPath id="SVGID_52_">
			<use xlink:href="#SVGID_51_"  style="overflow:visible;"/>
		</clipPath>
		<rect x="102.1" y="5.7" class="st25" width="9" height="8"/>
	</g>
</g>
<g>
	<defs>
		<polygon id="SVGID_53_" points="119.9,44.5 119.9,42.9 118.3,43.7 		"/>
	</defs>
	<clipPath id="SVGID_54_">
		<use xlink:href="#SVGID_53_"  style="overflow:visible;"/>
	</clipPath>
	<g class="st26">
		<defs>
			<rect id="SVGID_55_" x="-56.8" y="-827" width="915.9" height="1308"/>
		</defs>
		<clipPath id="SVGID_56_">
			<use xlink:href="#SVGID_55_"  style="overflow:visible;"/>
		</clipPath>
		<rect x="114.7" y="39.3" class="st27" width="8.8" height="8.8"/>
	</g>
</g>
<g>
	<defs>
		<path id="SVGID_57_" d="M100.6,63.6l-1.3,0.1l0.2,3.3l1.3-0.1c0.5,0,0.9-0.2,1.2-0.5c0.3-0.3,0.4-0.7,0.4-1.3
			c0-0.5-0.2-0.9-0.5-1.2C101.6,63.6,101.1,63.5,100.6,63.6"/>
	</defs>
	<clipPath id="SVGID_58_">
		<use xlink:href="#SVGID_57_"  style="overflow:visible;"/>
	</clipPath>
	<g class="st28">
		<defs>
			<rect id="SVGID_59_" x="-56.8" y="-827" width="915.9" height="1308"/>
		</defs>
		<clipPath id="SVGID_60_">
			<use xlink:href="#SVGID_59_"  style="overflow:visible;"/>
		</clipPath>
		<rect x="95.8" y="60" class="st29" width="10.1" height="10.5"/>
	</g>
</g>
<g>
	<defs>
		<polygon id="SVGID_61_" points="116.9,58.1 117.7,56.6 115.8,56.4 		"/>
	</defs>
	<clipPath id="SVGID_62_">
		<use xlink:href="#SVGID_61_"  style="overflow:visible;"/>
	</clipPath>
	<g class="st30">
		<defs>
			<rect id="SVGID_63_" x="-56.8" y="-827" width="915.9" height="1308"/>
		</defs>
		<clipPath id="SVGID_64_">
			<use xlink:href="#SVGID_63_"  style="overflow:visible;"/>
		</clipPath>
		<rect x="112.3" y="52.9" class="st31" width="9" height="8.8"/>
	</g>
</g>
<g>
	<defs>
		<rect id="SVGID_65_" x="72" y="3.5" width="52.5" height="69.5"/>
	</defs>
	<clipPath id="SVGID_66_">
		<use xlink:href="#SVGID_65_"  style="overflow:visible;"/>
	</clipPath>
	<g class="st32">
		<defs>
			<rect id="SVGID_67_" x="-56.8" y="-827" width="915.9" height="1308"/>
		</defs>
		<clipPath id="SVGID_68_">
			<use xlink:href="#SVGID_67_"  style="overflow:visible;"/>
		</clipPath>
		<g class="st33">
			<g>
				<defs>
					<rect id="SVGID_69_" x="72" y="3" width="52.9" height="70.1"/>
				</defs>
				<clipPath id="SVGID_70_">
					<use xlink:href="#SVGID_69_"  style="overflow:visible;"/>
				</clipPath>
				<g class="st34">
					<defs>
						<path id="SVGID_71_" d="M72,3.5v48.7c0,5,1.4,9.8,5.4,13.1c3.3,2.7,8.4,4.4,16.1,4.4c1.2,0,2.4,0.6,3.4,1.4
							c0.6,0.5,1.1,1.2,1.4,1.8c0.3-0.7,0.8-1.3,1.4-1.9c1-0.8,2.3-1.4,3.5-1.4c7,0,12.3-1.4,15.9-4.3c3.6-2.9,5.4-7.3,5.4-13.3V3.5
							H72z M121.4,25.8c0.1,0,0.2,0,0.2,0c0,0,0.1-0.1,0.1-0.2h0.1V27h-0.1c0-0.1-0.1-0.2-0.1-0.2c0,0-0.1,0-0.2,0h-4
							c-0.1,0-0.1,0-0.2,0c0,0-0.1,0.1-0.1,0.2H117v-1.8h0.1c0,0,0,0.1,0,0.1c0,0,0.1,0,0.1,0c0,0,0.1,0,0.1,0c0,0,0.1-0.1,0.1-0.1
							l2.6-2.7h-2.7c-0.1,0-0.2,0-0.2,0c0,0-0.1,0.1-0.1,0.2H117v-1.4h0.1c0,0.1,0.1,0.2,0.1,0.2c0,0,0.1,0,0.2,0h4
							c0.1,0,0.1,0,0.2,0c0,0,0.1-0.1,0.1-0.2h0.1V23h-0.1c0-0.1,0-0.1,0-0.1c0,0-0.1,0-0.1,0c0,0-0.1,0-0.1,0c0,0-0.1,0.1-0.1,0.1
							l-2.7,2.8H121.4z M117,16.8h0.1c0,0.1,0.1,0.2,0.1,0.2c0,0,0.1,0,0.1,0c0,0,0,0,0.1,0c0,0,0.1,0,0.1,0l3.7-1.9
							c0.2-0.1,0.3-0.2,0.3-0.2c0.1-0.1,0.1-0.1,0.1-0.2h0.1v1.8h-0.1c0-0.1-0.1-0.1-0.1-0.2c0,0-0.1-0.1-0.1-0.1c0,0,0,0-0.1,0
							c0,0-0.1,0-0.1,0l-0.7,0.4v2.3l0.7,0.3c0,0,0.1,0,0.1,0c0,0,0,0,0.1,0c0.1,0,0.1,0,0.1-0.1c0,0,0.1-0.1,0.1-0.2h0.1v1.5h-0.1
							c0-0.2-0.2-0.3-0.4-0.4c0,0,0,0-0.1,0l-3.7-1.8c0,0-0.1,0-0.1,0c0,0,0,0,0,0c-0.1,0-0.1,0-0.1,0.1c0,0-0.1,0.1-0.1,0.2H117
							V16.8z M117,30.1h0.1c0,0.1,0.1,0.2,0.1,0.2c0,0,0.1,0,0.1,0c0,0,0,0,0.1,0c0,0,0.1,0,0.1,0l3.7-1.9c0.2-0.1,0.3-0.2,0.3-0.2
							c0.1-0.1,0.1-0.1,0.1-0.2h0.1v1.8h-0.1c0-0.1-0.1-0.1-0.1-0.2c0,0-0.1-0.1-0.1-0.1c0,0,0,0-0.1,0c0,0-0.1,0-0.1,0l-0.7,0.4
							v2.3l0.7,0.3c0,0,0.1,0,0.1,0c0,0,0,0,0.1,0c0.1,0,0.1,0,0.1-0.1c0,0,0.1-0.1,0.1-0.2h0.1v1.5h-0.1c0-0.2-0.2-0.3-0.4-0.4
							c0,0,0,0-0.1,0l-3.7-1.8c0,0-0.1,0-0.1,0c0,0,0,0,0,0c-0.1,0-0.1,0-0.1,0.1c0,0-0.1,0.1-0.1,0.2H117V30.1z M121.7,36.4v3.2
							h-0.1c0-0.1-0.1-0.2-0.1-0.2c0,0-0.1,0-0.2,0h-4c-0.1,0-0.1,0-0.2,0c0,0-0.1,0.1-0.1,0.2H117v-3.3c0-0.6,0.1-1,0.3-1.3
							c0.2-0.3,0.5-0.5,0.9-0.5c0.2,0,0.4,0.1,0.6,0.2c0.2,0.1,0.3,0.3,0.4,0.5c0.1-0.3,0.3-0.5,0.5-0.6c0.2-0.1,0.4-0.2,0.7-0.2
							c0.4,0,0.8,0.2,1,0.5C121.6,35.3,121.7,35.8,121.7,36.4z M110.8,10.6c0.1,0,0.2-0.1,0.3-0.3c0,0,0,0,0,0l1.2-2.5
							c0,0,0,0,0-0.1c0,0,0,0,0,0c0,0,0-0.1,0-0.1c0,0-0.1,0-0.1-0.1V7.5h1.1v0.1c-0.1,0-0.1,0-0.1,0.1c0,0,0,0,0,0.1c0,0,0,0,0,0
							c0,0,0,0,0,0.1l1.2,2.5c0.1,0.1,0.1,0.2,0.1,0.2c0,0,0.1,0.1,0.2,0.1v0.1h-1.2v-0.1c0.1,0,0.1,0,0.1-0.1c0,0,0,0,0-0.1
							c0,0,0,0,0,0c0,0,0,0,0-0.1l-0.2-0.5h-1.5l-0.2,0.5c0,0,0,0.1,0,0.1c0,0,0,0,0,0c0,0,0,0.1,0,0.1c0,0,0.1,0,0.1,0.1v0.1
							L110.8,10.6L110.8,10.6z M109.2,10.6c0.1,0,0.1,0,0.1-0.1c0,0,0-0.1,0-0.1V7.7c0-0.1,0-0.1,0-0.1c0,0-0.1,0-0.1-0.1V7.5h1v0.1
							c-0.1,0-0.1,0-0.1,0.1c0,0,0,0.1,0,0.1v2.7c0,0.1,0,0.1,0,0.1c0,0,0.1,0,0.1,0.1v0.1L109.2,10.6L109.2,10.6z M104.8,10.6
							c0.1,0,0.1,0,0.1-0.1c0,0,0-0.1,0-0.1V7.7c0-0.1,0-0.1,0-0.1c0,0-0.1,0-0.1-0.1V7.5h2.2c0.4,0,0.7,0.1,0.9,0.2
							c0.2,0.1,0.3,0.4,0.3,0.6c0,0.1,0,0.3-0.1,0.4c-0.1,0.1-0.2,0.2-0.3,0.3c0.2,0.1,0.3,0.2,0.4,0.3c0.1,0.1,0.1,0.3,0.1,0.5
							c0,0.3-0.1,0.5-0.3,0.7c-0.2,0.2-0.6,0.3-1,0.3L104.8,10.6L104.8,10.6z M99.6,10.6c0.1,0,0.1,0,0.1-0.1c0,0,0-0.1,0-0.1V7.7
							c0-0.1,0-0.1,0-0.1c0,0-0.1,0-0.1-0.1V7.5h1.2v0.1c0,0-0.1,0-0.1,0c0,0,0,0.1,0,0.1c0,0,0,0,0,0.1c0,0,0,0,0,0l0.9,1.7
							l0.9-1.7c0,0,0-0.1,0-0.1c0,0,0,0,0,0c0,0,0-0.1,0-0.1c0,0-0.1,0-0.1,0V7.5h1.2v0.1c-0.1,0-0.1,0-0.1,0.1c0,0,0,0.1,0,0.1v2.7
							c0,0.1,0,0.1,0,0.1c0,0,0.1,0,0.1,0.1v0.1h-1v-0.1c0.1,0,0.1,0,0.1-0.1c0,0,0-0.1,0-0.1V8.4l-1.3,2.3l-1.2-2.3v2.1
							c0,0.1,0,0.1,0,0.1c0,0,0.1,0,0.1,0.1v0.1L99.6,10.6L99.6,10.6z M95.5,7.9c0.4-0.3,0.8-0.5,1.3-0.5c0.5,0,1,0.2,1.4,0.5
							c0.4,0.3,0.5,0.7,0.5,1.2c0,0.5-0.2,0.9-0.5,1.2c-0.4,0.3-0.8,0.5-1.4,0.5c-0.5,0-1-0.2-1.3-0.5C95.2,10,95,9.6,95,9.1
							C95,8.6,95.2,8.2,95.5,7.9z M91.2,10.6c0.1,0,0.1,0,0.1-0.1c0,0,0-0.1,0-0.1V7.7c0-0.1,0-0.1,0-0.1c0,0-0.1,0-0.1-0.1V7.5h1
							v0.1c-0.1,0-0.1,0-0.1,0.1c0,0,0,0.1,0,0.1v2.4h2c0.1,0,0.1,0,0.1,0c0,0,0-0.1,0.1-0.1l0.1,0v0.9h-0.1c0-0.1,0-0.1-0.1-0.1
							c0,0-0.1,0-0.1,0L91.2,10.6L91.2,10.6z M87.1,7.9c0.4-0.3,0.8-0.5,1.3-0.5c0.5,0,1,0.2,1.4,0.5c0.4,0.3,0.5,0.7,0.5,1.2
							c0,0.5-0.2,0.9-0.5,1.2c-0.4,0.3-0.8,0.5-1.4,0.5c-0.5,0-1-0.2-1.3-0.5c-0.4-0.3-0.5-0.7-0.5-1.2C86.6,8.6,86.8,8.2,87.1,7.9z
							 M82.9,7.9c0.4-0.3,0.8-0.5,1.4-0.5c0.3,0,0.6,0,0.9,0.1c0.3,0.1,0.5,0.1,0.5,0.1c0,0,0,0,0.1,0c0,0,0.1,0,0.1,0l0.1,0
							l-0.5,0.7l-0.1,0c0,0,0,0,0,0c0,0,0,0,0,0c0-0.1-0.1-0.2-0.4-0.3c-0.2-0.1-0.5-0.1-0.8-0.1c-0.4,0-0.7,0.1-0.9,0.3
							c-0.2,0.2-0.4,0.5-0.4,0.8c0,0.3,0.1,0.6,0.3,0.8c0.2,0.2,0.5,0.3,0.9,0.3c0.3,0,0.5-0.1,0.8-0.2c0.3-0.1,0.4-0.2,0.4-0.3
							c0,0,0,0,0-0.1c0,0,0,0,0-0.1l0.1,0l0.5,0.7l-0.1,0c0,0,0,0-0.1,0c0,0,0,0,0,0c0,0-0.1,0-0.2,0.1c-0.5,0.3-1,0.4-1.4,0.4
							c-0.5,0-1-0.2-1.3-0.5c-0.4-0.3-0.5-0.7-0.5-1.2C82.4,8.6,82.6,8.2,82.9,7.9z M79.1,35.9C79.1,35.9,79.2,35.9,79.1,35.9
							c0.1,0,0.1,0.1,0.2,0.1c0,0,0.1,0,0.1-0.1c0,0,0.1-0.1,0.1-0.2h0.1v1.7h-0.1c0-0.2-0.2-0.3-0.4-0.4c0,0-0.1,0-0.1,0l-3.7-1.7
							c0,0,0,0-0.1,0c0,0-0.1,0-0.1,0c-0.1,0-0.1,0-0.1,0.1c0,0-0.1,0.1-0.1,0.2h-0.1v-1.8H75c0,0.1,0.1,0.1,0.1,0.2
							c0,0,0.1,0.1,0.1,0.1c0,0,0,0,0.1,0c0,0,0.1,0,0.1,0L79,32c0.2-0.1,0.3-0.1,0.3-0.2c0.1-0.1,0.1-0.1,0.1-0.2h0.1v1.7h-0.1
							c0-0.1-0.1-0.2-0.1-0.2c0,0-0.1-0.1-0.1-0.1c0,0-0.1,0-0.1,0c0,0,0,0,0,0l-2.9,1.4L79.1,35.9z M75.3,22.9c-0.1,0-0.2,0-0.2,0
							c0,0-0.1,0.1-0.1,0.2h-0.1v-1.4H75c0,0.1,0.1,0.2,0.1,0.2c0,0,0.1,0,0.2,0h4c0.1,0,0.1,0,0.2,0c0,0,0.1-0.1,0.1-0.2h0.1v1.8
							h-0.1c0,0,0-0.1,0-0.1c0,0-0.1,0-0.1,0c0,0-0.1,0-0.1,0c0,0-0.1,0.1-0.1,0.1l-2.6,2.7h2.7c0.1,0,0.2,0,0.2,0
							c0,0,0.1-0.1,0.1-0.2h0.1v1.4h-0.1c0-0.1-0.1-0.2-0.1-0.2c0,0-0.1,0-0.2,0h-4c-0.1,0-0.1,0-0.2,0c0,0-0.1,0.1-0.1,0.2h-0.1
							v-1.6H75c0,0.1,0,0.1,0,0.1c0,0,0.1,0,0.1,0c0,0,0.1,0,0.1,0c0,0,0.1-0.1,0.1-0.1l2.7-2.8H75.3z M79.5,30.6
							c0-0.1,0-0.1-0.1-0.2c0,0-0.1,0-0.2,0h-4c-0.1,0-0.2,0-0.2,0c0,0-0.1,0.1-0.1,0.2h-0.1V29H75c0,0.1,0,0.2,0.1,0.2
							c0,0,0.1,0,0.2,0h4c0.1,0,0.2,0,0.2,0c0,0,0.1-0.1,0.1-0.2h0.1v1.5H79.5z M75.3,15.4c0.3-0.4,0.8-0.6,1.4-0.6h2.5
							c0.1,0,0.2,0,0.2,0c0,0,0.1-0.1,0.1-0.2h0.1v1.5h-0.1c0-0.1,0-0.1-0.1-0.2c0,0-0.1,0-0.2,0h-2.5c-0.4,0-0.7,0.1-0.9,0.3
							c-0.2,0.2-0.3,0.6-0.3,1.1c0,0.5,0.1,0.9,0.3,1.1c0.2,0.2,0.5,0.3,0.9,0.3h0h2.4c0.1,0,0.2,0,0.2,0c0,0,0.1-0.1,0.1-0.2h0.1
							v1.6h-0.1c0-0.1,0-0.2-0.1-0.2c0,0-0.1,0-0.2,0h-2.5c-0.7,0-1.2-0.2-1.4-0.6c-0.3-0.4-0.4-1-0.4-1.9
							C74.8,16.4,75,15.8,75.3,15.4z M74.7,43c0.1,0,0.1-0.1,0.2-0.1c0,0,0-0.1,0-0.2v-4.5H75c0,0.1,0.1,0.2,0.1,0.2
							c0,0,0.1,0,0.2,0h4c0.1,0,0.1,0,0.2,0c0,0,0.1-0.1,0.1-0.2h0.1v4.4c0,0.1,0,0.2,0,0.2c0,0,0.1,0.1,0.2,0.1v0.1h-1.3V43
							c0.1,0,0.1,0,0.2-0.1c0,0,0-0.1,0-0.2v0v-3.1h-1v2c0,0.1,0,0.2,0,0.2c0,0,0.1,0.1,0.2,0.1V42h-1.2v-0.1c0.1,0,0.1,0,0.2-0.1
							c0,0,0-0.1,0-0.2v-2h-1.2v3.2c0,0.1,0,0.2,0,0.2c0,0,0.1,0.1,0.2,0.1v0.1h-1.3V43z M75.1,50.2l-0.1,0l-0.1-1.8l0.1,0
							c0,0.1,0,0.1,0.1,0.2c0,0,0.1,0.1,0.1,0c0,0,0,0,0.1,0c0,0,0.1-0.1,0.1-0.1l1.4-1.1l0-1.3l-1.6,0.1c-0.1,0-0.1,0-0.2,0.1
							c0,0-0.1,0.1-0.1,0.2l-0.1,0l-0.1-1.6l0.1,0c0,0.1,0,0.2,0.1,0.2c0,0,0.1,0,0.2,0l4-0.1c0.1,0,0.1,0,0.2-0.1
							c0,0,0.1-0.1,0.1-0.2l0.1,0l0.1,3.1c0,0.6-0.1,1.1-0.3,1.5c-0.2,0.4-0.6,0.6-1,0.6c-0.4,0-0.6-0.1-0.9-0.3
							c-0.2-0.2-0.4-0.5-0.6-1l-1.4,1.1c-0.1,0.1-0.2,0.1-0.2,0.2C75.2,49.9,75.2,50,75.1,50.2z M76.6,55.1
							c-0.4-0.4-0.7-0.9-0.9-1.6c-0.2-0.7-0.2-1.3-0.1-2c0-0.1,0-0.2,0-0.2c0,0,0-0.1,0-0.1c0,0,0,0-0.1,0l0-0.2l1.2,0.2l0,0.2
							c0,0,0,0,0,0c0,0,0,0-0.1,0c-0.1,0-0.2,0.3-0.2,0.7c0,0.4,0,0.8,0.1,1.3c0.1,0.4,0.3,0.6,0.4,0.8c0.2,0.2,0.4,0.3,0.5,0.2
							c0.3-0.1,0.3-0.5,0.1-1.3c-0.1-0.3-0.1-0.5-0.2-0.7c-0.1-0.6-0.1-1,0-1.4c0.1-0.3,0.4-0.6,0.7-0.7c0.4-0.1,0.9-0.1,1.3,0.3
							c0.4,0.3,0.7,0.8,0.9,1.5c0.2,0.5,0.2,1.2,0.1,1.9c0,0.2,0,0.3,0,0.3c0,0,0,0,0,0.1c0,0,0.1,0,0.1,0.1l0,0.1l-1.2-0.2l0-0.2
							c0,0,0,0,0,0c0,0,0,0,0,0c0.1,0,0.2-0.3,0.3-0.7c0-0.4,0-0.8-0.1-1.2c-0.1-0.3-0.2-0.6-0.4-0.8c-0.2-0.2-0.3-0.2-0.5-0.2
							c-0.2,0.1-0.3,0.5-0.1,1.2c0.1,0.4,0.1,0.6,0.2,0.9c0.1,0.6,0.1,1.1-0.1,1.4c-0.1,0.4-0.4,0.6-0.8,0.7
							C77.5,55.5,77.1,55.4,76.6,55.1z M78.1,58.2c0,0,0,0.1,0,0.2L78,58.4l-0.7-1.3l0.1-0.1c0.1,0.1,0.1,0.1,0.2,0.1
							c0,0,0.1,0,0.2-0.1l3.4-2.1c0.1,0,0.1-0.1,0.1-0.1c0,0,0-0.1,0-0.2l0.1-0.1l0.7,1.3L82,56c-0.1-0.1-0.1-0.1-0.2-0.1
							c0,0-0.1,0-0.2,0.1L78.2,58C78.1,58.1,78.1,58.1,78.1,58.2z M81.6,62.5c-0.3-0.2-0.6-0.4-1-0.8L78.8,60l0.1-0.1
							c0.1,0,0.1,0.1,0.2,0.1c0,0,0.1,0,0.1-0.1l2.7-3c0.1-0.1,0.1-0.1,0.1-0.2c0,0,0-0.1-0.1-0.2l0.1-0.1l1.7,1.7
							c0.4,0.4,0.7,0.7,0.9,1c0.2,0.3,0.3,0.6,0.3,0.9c0,0.3,0,0.7-0.1,1c-0.1,0.3-0.3,0.6-0.6,0.9c-0.3,0.3-0.6,0.5-0.9,0.7
							c-0.3,0.1-0.6,0.2-0.9,0.2C82.1,62.7,81.8,62.6,81.6,62.5z M88.2,66.3l-1.6-0.7l0-0.1c0.1,0,0.2,0,0.2,0c0,0,0.1,0,0.1-0.1
							c0,0,0,0,0-0.1c0,0,0-0.1,0-0.1l0-0.8l-2-0.9L84.5,64c0,0-0.1,0.1-0.1,0.1c0,0,0,0,0,0.1c0,0,0,0.1,0,0.1c0,0,0.1,0.1,0.1,0.2
							l0,0.1l-1.3-0.6l0-0.1c0.2,0,0.3,0,0.5-0.2c0,0,0,0,0,0l3.1-2.8c0,0,0.1-0.1,0.1-0.1c0,0,0,0,0,0c0-0.1,0-0.1,0-0.2
							c0-0.1-0.1-0.1-0.1-0.2l0-0.1l1.5,0.7l0,0.1c-0.1,0-0.2,0-0.2,0c0,0-0.1,0-0.1,0.1c0,0,0,0,0,0.1c0,0,0,0.1,0,0.1l0.2,4.3
							c0,0.2,0,0.3,0.1,0.4c0,0.1,0.1,0.2,0.2,0.2L88.2,66.3z M94.6,65.2c-0.1,0.4-0.2,0.8-0.4,1.1c-0.2,0.3-0.4,0.5-0.7,0.7
							c-0.3,0.1-0.6,0.2-0.9,0.3c-0.3,0-0.8,0-1.3-0.1L89,66.6l0-0.1c0.1,0,0.2,0,0.2-0.1c0,0,0.1-0.1,0.1-0.2l0.8-4.1
							c0-0.1,0-0.2,0-0.2c0,0-0.1-0.1-0.2-0.1l0-0.1l2.3,0.5c0.6,0.1,1,0.2,1.3,0.4c0.3,0.1,0.5,0.3,0.7,0.6
							c0.2,0.3,0.3,0.6,0.4,0.9C94.7,64.5,94.7,64.8,94.6,65.2z M97.5,59.6c-0.6-0.5-1.4-0.9-2.1-0.9c-4.6,0-7.7-1-9.7-2.7
							c-2.4-2-3.3-4.9-3.3-7.9V14.3h31.7v33.8c0,3.6-1.1,6.3-3.2,8c-2.2,1.7-5.4,2.6-9.6,2.6c-0.8,0-1.6,0.3-2.2,0.9
							c-0.3,0.3-0.6,0.6-0.8,1C98.1,60.2,97.8,59.9,97.5,59.6z M103.2,66.2c-0.1,0.3-0.3,0.6-0.5,0.8c-0.2,0.2-0.5,0.4-0.8,0.5
							c-0.3,0.1-0.7,0.2-1.3,0.2l-2.3,0.1l0-0.1c0.1,0,0.2-0.1,0.2-0.1c0,0,0-0.1,0-0.2l-0.2-4.2c0-0.1,0-0.2-0.1-0.2
							c0,0-0.1-0.1-0.2-0.1l0-0.1l2.3-0.1c0.6,0,1,0,1.3,0.1c0.3,0.1,0.6,0.2,0.8,0.4c0.3,0.2,0.5,0.5,0.6,0.8
							c0.1,0.3,0.2,0.7,0.2,1.1C103.4,65.5,103.4,65.8,103.2,66.2z M109.2,66.5c0-0.1-0.1-0.1-0.1-0.2c0,0-0.1,0-0.2,0l-4.2,1l0-0.1
							c0.1,0,0.1-0.1,0.2-0.1c0,0,0-0.1,0-0.2l-0.9-4c0-0.1,0-0.1-0.1-0.2c0,0-0.1,0-0.2,0l0-0.1l4.1-1c0.1,0,0.1-0.1,0.2-0.1
							c0,0,0-0.1,0-0.2l0.1,0l0.3,1.3l-0.1,0c0-0.1-0.1-0.1-0.1-0.2c0,0-0.1,0-0.2,0l0,0l-2.9,0.7l0.2,1.1l1.8-0.4
							c0.1,0,0.1-0.1,0.2-0.1c0,0,0-0.1,0-0.2l0.1,0l0.3,1.2l-0.1,0c0-0.1-0.1-0.1-0.1-0.2c0,0-0.1,0-0.2,0l-1.8,0.4l0.3,1.3l3-0.7
							c0.1,0,0.1-0.1,0.2-0.1c0,0,0-0.1,0-0.2l0.1,0l0.3,1.3L109.2,66.5z M117,61.7c-0.1-0.1-0.1-0.1-0.2-0.1c0,0-0.1,0-0.2,0.1
							l-3.4,2.7l-0.1-0.1c0.1-0.1,0.1-0.1,0.1-0.2c0,0,0-0.1-0.1-0.2l-2.4-3.3c-0.1-0.1-0.1-0.1-0.1-0.1c0,0-0.1,0-0.2,0l-0.1-0.1
							l1.2-0.9l0.1,0.1c-0.1,0.1-0.1,0.1-0.1,0.2c0,0,0,0.1,0.1,0.2l2.1,2.9l2.4-1.9c0.1-0.1,0.1-0.1,0.1-0.1c0,0,0-0.1,0-0.2
							l0.1-0.1L117,61.7L117,61.7z M119.5,57.2l-0.1-0.1c0-0.1,0-0.2,0-0.2c0,0,0-0.1-0.1-0.1c0,0,0,0-0.1,0c0,0-0.1,0-0.1,0
							l-0.8-0.1l-1.1,2l0.5,0.7c0,0,0,0.1,0.1,0.1c0,0,0,0,0.1,0c0,0,0.1,0,0.1,0c0,0,0.1-0.1,0.2-0.1l0.1,0.1l-0.7,1.3l-0.1-0.1
							c0-0.2,0-0.4-0.1-0.6c0,0,0,0,0-0.1l-2.3-3.5c0,0,0-0.1-0.1-0.1c0,0,0,0,0,0c0,0-0.1,0-0.1,0c-0.1,0-0.1,0.1-0.2,0.1l-0.1-0.1
							l0.8-1.5l0.1,0.1c0,0.1,0,0.2,0,0.2c0,0,0,0.1,0.1,0.1c0,0,0,0,0.1,0c0,0,0.1,0,0.1,0l4.1,0.3c0.2,0,0.3,0,0.4,0
							c0.1,0,0.2-0.1,0.2-0.1l0.1,0.1L119.5,57.2z M121.6,49.6c-0.1,0.7-0.3,1.3-0.6,1.9c-0.1,0.1-0.1,0.2-0.1,0.2c0,0,0,0.1,0,0.1
							c0,0,0,0,0.1,0.1l-0.1,0.1l-1.1-0.7l0.1-0.1c0,0,0,0,0,0c0,0,0,0,0.1,0c0.1,0,0.3-0.2,0.4-0.6c0.2-0.4,0.3-0.8,0.3-1.2
							c0-0.4,0-0.7-0.1-1c-0.1-0.3-0.2-0.4-0.4-0.4c-0.3,0-0.5,0.4-0.6,1.2c0,0.3-0.1,0.5-0.1,0.7c-0.1,0.6-0.3,1-0.5,1.3
							c-0.2,0.3-0.6,0.4-0.9,0.3c-0.5-0.1-0.8-0.3-1.1-0.8c-0.2-0.4-0.3-1-0.3-1.7c0.1-0.6,0.3-1.2,0.6-1.8c0.1-0.2,0.1-0.3,0.1-0.3
							c0,0,0,0,0-0.1c0,0,0-0.1-0.1-0.1l0.1-0.1l1,0.7l-0.1,0.1c0,0,0,0,0,0c0,0,0,0,0,0c-0.1,0-0.3,0.2-0.5,0.5
							c-0.2,0.4-0.3,0.7-0.4,1.1c0,0.4,0,0.7,0.1,0.9c0.1,0.2,0.2,0.4,0.4,0.4c0.3,0,0.4-0.3,0.5-1c0.1-0.4,0.1-0.7,0.2-0.9
							c0.1-0.6,0.3-1,0.6-1.3c0.3-0.3,0.6-0.4,1-0.4c0.4,0.1,0.8,0.3,1,0.8C121.6,48.3,121.7,48.9,121.6,49.6z M121.8,42.4h-0.1
							c0-0.1-0.1-0.1-0.1-0.2c0,0-0.1-0.1-0.1-0.1c0,0,0,0-0.1,0c0,0-0.1,0-0.1,0l-0.7,0.4v2.3l0.7,0.3c0,0,0.1,0,0.1,0
							c0,0,0,0,0.1,0c0.1,0,0.1,0,0.1-0.1c0,0,0.1-0.1,0.1-0.2h0.1v1.5h-0.1c0-0.2-0.2-0.3-0.4-0.4c0,0,0,0-0.1,0l-3.7-1.8
							c0,0-0.1,0-0.1,0c0,0,0,0,0,0c-0.1,0-0.1,0-0.1,0.1c0,0-0.1,0.1-0.1,0.2h-0.1v-1.7h0.1c0,0.1,0.1,0.2,0.1,0.2c0,0,0.1,0,0.1,0
							c0,0,0,0,0.1,0c0,0,0.1,0,0.1,0l3.7-1.9c0.2-0.1,0.3-0.2,0.3-0.2c0.1-0.1,0.1-0.1,0.1-0.2h0.1V42.4z"/>
					</defs>
					<clipPath id="SVGID_72_">
						<use xlink:href="#SVGID_71_"  style="overflow:visible;"/>
					</clipPath>
					<g class="st35">
						<defs>
							<rect id="SVGID_73_" x="72" y="3" width="52.9" height="70.1"/>
						</defs>
						<clipPath id="SVGID_74_">
							<use xlink:href="#SVGID_73_"  style="overflow:visible;"/>
						</clipPath>
						<rect x="68.5" y="0" class="st36" width="59.6" height="76.7"/>
					</g>
				</g>
			</g>
		</g>
	</g>
</g>
<g>
	<defs>
		<path id="SVGID_75_" d="M96.3,36.6c0.6,0,1-0.5,1-1s-0.5-1-1-1c-0.6,0-1,0.5-1,1S95.7,36.6,96.3,36.6"/>
	</defs>
	<clipPath id="SVGID_76_">
		<use xlink:href="#SVGID_75_"  style="overflow:visible;"/>
	</clipPath>
	<g class="st37">
		<defs>
			<rect id="SVGID_77_" x="-56.8" y="-827" width="915.9" height="1308"/>
		</defs>
		<clipPath id="SVGID_78_">
			<use xlink:href="#SVGID_77_"  style="overflow:visible;"/>
		</clipPath>
		<rect x="91.7" y="30.9" class="st38" width="9.2" height="9.2"/>
	</g>
</g>
<g>
	<defs>
		<path id="SVGID_79_" d="M96,33.7c0.6,0,1-0.5,1-1c0-0.6-0.5-1-1-1c-0.6,0-1,0.5-1,1C94.9,33.3,95.4,33.7,96,33.7"/>
	</defs>
	<clipPath id="SVGID_80_">
		<use xlink:href="#SVGID_79_"  style="overflow:visible;"/>
	</clipPath>
	<g class="st39">
		<defs>
			<rect id="SVGID_81_" x="-56.8" y="-827" width="915.9" height="1308"/>
		</defs>
		<clipPath id="SVGID_82_">
			<use xlink:href="#SVGID_81_"  style="overflow:visible;"/>
		</clipPath>
		<rect x="91.4" y="28.1" class="st40" width="9.2" height="9.2"/>
	</g>
</g>
<g>
	<defs>
		<path id="SVGID_83_" d="M98.4,29.5c0.6,0,1-0.5,1-1c0-0.6-0.5-1-1-1c-0.6,0-1,0.5-1,1C97.4,29,97.8,29.5,98.4,29.5"/>
	</defs>
	<clipPath id="SVGID_84_">
		<use xlink:href="#SVGID_83_"  style="overflow:visible;"/>
	</clipPath>
	<g class="st41">
		<defs>
			<rect id="SVGID_85_" x="-56.8" y="-827" width="915.9" height="1308"/>
		</defs>
		<clipPath id="SVGID_86_">
			<use xlink:href="#SVGID_85_"  style="overflow:visible;"/>
		</clipPath>
		<rect x="93.8" y="23.8" class="st42" width="9.2" height="9.2"/>
	</g>
</g>
<g>
	<defs>
		<path id="SVGID_87_" d="M93.4,39.2c1.6,0.7,3.3,0.3,4.8,0.1c-2.7-1.3-4.3-3-4.7-5.7c-0.2-1.7-0.4-3.4-0.2-5.2
			c0.3-2.2,1.4-3.2,2.8-3.7c1.6-0.5,3.6-0.7,5,0.2c1.6,1,2.3,3.5,2.4,6.5c0.1,3.6-1.5,6.2-4.6,8c1,0.3,1.9,0.3,2.9,0
			c1.9-0.6,3.8-1.9,4.9-4.4c0.8-1.9,0.9-4.3,0.4-6.5c-0.9-3.7-3.5-5-6.5-5.3l2.6-3.3l-3.9,0.7l-1-4L97.5,21l-3.7-0.6l1.8,1.5
			l0.3,1.5c-2.6,0.3-4.9,1.8-6,4.8c-0.7,2-0.4,4.2,0,6.3C90.2,36.4,91.3,38.3,93.4,39.2"/>
	</defs>
	<clipPath id="SVGID_88_">
		<use xlink:href="#SVGID_87_"  style="overflow:visible;"/>
	</clipPath>
	<g class="st43">
		<defs>
			<rect id="SVGID_89_" x="-56.8" y="-827" width="915.9" height="1308"/>
		</defs>
		<clipPath id="SVGID_90_">
			<use xlink:href="#SVGID_89_"  style="overflow:visible;"/>
		</clipPath>
		<rect x="85.8" y="13.2" class="st44" width="25.2" height="30.1"/>
	</g>
</g>
<g>
	<defs>
		<path id="SVGID_91_" d="M98.4,33.2c-0.6,0-1,0.5-1,1s0.5,1,1,1c0.6,0,1-0.5,1-1S99,33.2,98.4,33.2"/>
	</defs>
	<clipPath id="SVGID_92_">
		<use xlink:href="#SVGID_91_"  style="overflow:visible;"/>
	</clipPath>
	<g class="st45">
		<defs>
			<rect id="SVGID_93_" x="-56.8" y="-827" width="915.9" height="1308"/>
		</defs>
		<clipPath id="SVGID_94_">
			<use xlink:href="#SVGID_93_"  style="overflow:visible;"/>
		</clipPath>
		<rect x="93.8" y="29.6" class="st46" width="9.2" height="9.2"/>
	</g>
</g>
<g>
	<defs>
		<path id="SVGID_95_" d="M98.4,38.2c0.6,0,1-0.5,1-1c0-0.6-0.5-1-1-1c-0.6,0-1,0.5-1,1C97.4,37.7,97.8,38.2,98.4,38.2"/>
	</defs>
	<clipPath id="SVGID_96_">
		<use xlink:href="#SVGID_95_"  style="overflow:visible;"/>
	</clipPath>
	<g class="st47">
		<defs>
			<rect id="SVGID_97_" x="-56.8" y="-827" width="915.9" height="1308"/>
		</defs>
		<clipPath id="SVGID_98_">
			<use xlink:href="#SVGID_97_"  style="overflow:visible;"/>
		</clipPath>
		<rect x="93.8" y="32.5" class="st48" width="9.2" height="9.2"/>
	</g>
</g>
<g>
	<defs>
		<path id="SVGID_99_" d="M98.4,32.2c0.6,0,1-0.5,1-1c0-0.6-0.5-1-1-1c-0.6,0-1,0.5-1,1C97.4,31.7,97.8,32.2,98.4,32.2"/>
	</defs>
	<clipPath id="SVGID_100_">
		<use xlink:href="#SVGID_99_"  style="overflow:visible;"/>
	</clipPath>
	<g class="st49">
		<defs>
			<rect id="SVGID_101_" x="-56.8" y="-827" width="915.9" height="1308"/>
		</defs>
		<clipPath id="SVGID_102_">
			<use xlink:href="#SVGID_101_"  style="overflow:visible;"/>
		</clipPath>
		<rect x="93.8" y="26.6" class="st50" width="9.2" height="9.2"/>
	</g>
</g>
<g>
	<defs>
		<path id="SVGID_103_" d="M96.9,27.2c0-0.6-0.5-1-1-1c-0.6,0-1,0.5-1,1c0,0.6,0.5,1,1,1C96.4,28.2,96.9,27.7,96.9,27.2"/>
	</defs>
	<clipPath id="SVGID_104_">
		<use xlink:href="#SVGID_103_"  style="overflow:visible;"/>
	</clipPath>
	<g class="st51">
		<defs>
			<rect id="SVGID_105_" x="-56.8" y="-827" width="915.9" height="1308"/>
		</defs>
		<clipPath id="SVGID_106_">
			<use xlink:href="#SVGID_105_"  style="overflow:visible;"/>
		</clipPath>
		<rect x="91.2" y="22.6" class="st52" width="9.2" height="9.2"/>
	</g>
</g>
<g>
	<defs>
		<path id="SVGID_107_" d="M101,25.8c-0.6,0-1,0.5-1,1c0,0.6,0.5,1,1,1s1-0.5,1-1C102.1,26.3,101.6,25.8,101,25.8"/>
	</defs>
	<clipPath id="SVGID_108_">
		<use xlink:href="#SVGID_107_"  style="overflow:visible;"/>
	</clipPath>
	<g class="st53">
		<defs>
			<rect id="SVGID_109_" x="-56.8" y="-827" width="915.9" height="1308"/>
		</defs>
		<clipPath id="SVGID_110_">
			<use xlink:href="#SVGID_109_"  style="overflow:visible;"/>
		</clipPath>
		<rect x="96.4" y="22.2" class="st54" width="9.2" height="9.2"/>
	</g>
</g>
<g>
	<defs>
		<path id="SVGID_111_" d="M98.4,26.7c0.6,0,1-0.5,1-1c0-0.6-0.5-1-1-1c-0.6,0-1,0.5-1,1C97.4,26.3,97.8,26.7,98.4,26.7"/>
	</defs>
	<clipPath id="SVGID_112_">
		<use xlink:href="#SVGID_111_"  style="overflow:visible;"/>
	</clipPath>
	<g class="st55">
		<defs>
			<rect id="SVGID_113_" x="-56.8" y="-827" width="915.9" height="1308"/>
		</defs>
		<clipPath id="SVGID_114_">
			<use xlink:href="#SVGID_113_"  style="overflow:visible;"/>
		</clipPath>
		<rect x="93.8" y="21.1" class="st56" width="9.2" height="9.2"/>
	</g>
</g>
<g>
	<defs>
		<path id="SVGID_115_" d="M99.3,48.5c2.5-0.8,4.4-2.8,6.4-4.9c2.2-2.3,4.5-3.5,6.8-4.5c-3-0.2-6.1,0.1-9.4,3.1
			c-1.4,1.3-2.6,2.8-3.7,4.4V43h0.8v-1.3h-0.9v-1.8h-2.3v1.9h-0.8v1.2h0.8v3.2l-3.7-3.7c-1.2-1.2-2.7-2.5-4.8-3.2
			c-1.6-0.5-3.2-0.4-4.8-0.1c3,1.2,6,2.9,8.6,6c1.3,1.6,2.8,2.6,4.5,3.2v5.9l2.4,1.9V48.5z"/>
	</defs>
	<clipPath id="SVGID_116_">
		<use xlink:href="#SVGID_115_"  style="overflow:visible;"/>
	</clipPath>
	<g class="st57">
		<defs>
			<rect id="SVGID_117_" x="-56.8" y="-827" width="915.9" height="1308"/>
		</defs>
		<clipPath id="SVGID_118_">
			<use xlink:href="#SVGID_117_"  style="overflow:visible;"/>
		</clipPath>
		<rect x="80.3" y="35.3" class="st58" width="35.8" height="24.4"/>
	</g>
</g>
<g>
	<defs>
		<path id="SVGID_119_" d="M100.9,31.6c-0.6,0-1,0.5-1,1c0,0.6,0.5,1,1,1c0.6,0,1-0.5,1-1C102,32,101.5,31.6,100.9,31.6"/>
	</defs>
	<clipPath id="SVGID_120_">
		<use xlink:href="#SVGID_119_"  style="overflow:visible;"/>
	</clipPath>
	<g class="st59">
		<defs>
			<rect id="SVGID_121_" x="-56.8" y="-827" width="915.9" height="1308"/>
		</defs>
		<clipPath id="SVGID_122_">
			<use xlink:href="#SVGID_121_"  style="overflow:visible;"/>
		</clipPath>
		<rect x="96.3" y="28" class="st60" width="9.2" height="9.2"/>
	</g>
</g>
<g>
	<defs>
		<path id="SVGID_123_" d="M96.3,29.1c-0.6,0-1,0.5-1,1c0,0.6,0.5,1,1,1c0.6,0,1-0.5,1-1C97.4,29.5,96.9,29.1,96.3,29.1"/>
	</defs>
	<clipPath id="SVGID_124_">
		<use xlink:href="#SVGID_123_"  style="overflow:visible;"/>
	</clipPath>
	<g class="st61">
		<defs>
			<rect id="SVGID_125_" x="-56.8" y="-827" width="915.9" height="1308"/>
		</defs>
		<clipPath id="SVGID_126_">
			<use xlink:href="#SVGID_125_"  style="overflow:visible;"/>
		</clipPath>
		<rect x="91.7" y="25.5" class="st62" width="9.2" height="9.2"/>
	</g>
</g>
<g>
	<defs>
		<path id="SVGID_127_" d="M100.5,36.6c0.6,0,1-0.5,1-1s-0.5-1-1-1c-0.6,0-1,0.5-1,1S99.9,36.6,100.5,36.6"/>
	</defs>
	<clipPath id="SVGID_128_">
		<use xlink:href="#SVGID_127_"  style="overflow:visible;"/>
	</clipPath>
	<g class="st63">
		<defs>
			<rect id="SVGID_129_" x="-56.8" y="-827" width="915.9" height="1308"/>
		</defs>
		<clipPath id="SVGID_130_">
			<use xlink:href="#SVGID_129_"  style="overflow:visible;"/>
		</clipPath>
		<rect x="95.9" y="30.9" class="st64" width="9.2" height="9.2"/>
	</g>
</g>
<g>
	<defs>
		<path id="SVGID_131_" d="M99.5,30c0,0.6,0.5,1,1,1s1-0.5,1-1s-0.5-1-1-1S99.5,29.4,99.5,30"/>
	</defs>
	<clipPath id="SVGID_132_">
		<use xlink:href="#SVGID_131_"  style="overflow:visible;"/>
	</clipPath>
	<g class="st65">
		<defs>
			<rect id="SVGID_133_" x="-56.8" y="-827" width="915.9" height="1308"/>
		</defs>
		<clipPath id="SVGID_134_">
			<use xlink:href="#SVGID_133_"  style="overflow:visible;"/>
		</clipPath>
		<rect x="95.9" y="25.4" class="st66" width="9.2" height="9.2"/>
	</g>
</g>
</svg>
